<?xml version="1.0" encoding="utf-8"?>
<!-- Generator: Adobe Illustrator 22.0.0, SVG Export Plug-In . SVG Version: 6.00 Build 0)  -->
<svg version="1.1" id="Layer_1" xmlns="http://www.w3.org/2000/svg" xmlns:xlink="http://www.w3.org/1999/xlink" x="0px" y="0px"
	 viewBox="0 0 1600 1200" style="enable-background:new 0 0 1600 1200;" xml:space="preserve">
<style type="text/css">
	.st0{fill:none;stroke:#FFFFFF;stroke-width:3;stroke-miterlimit:10;}
	.st1{fill:none;stroke:#D9AE2E;stroke-width:3;stroke-miterlimit:10;}
	.st2{fill:#FFFFFF;}
	.st3{fill:#FCF8F0;}
</style>
<title>pointing</title>
<rect x="280.1" y="158.6" class="st0" width="933.5" height="467.2"/>
<circle class="st1" cx="1213.6" cy="319.5" r="106.3"/>
<g>
	<g>
		<g>
			<g>
				<g>
					<path class="st2" d="M833,817.5c-0.5-0.2-0.8,0.1-1.2,0.3c-0.9,0.5-1.7,0.9-2.6,1.4c-0.7-0.9-1.4-1.5-2.4-1.9
						c-0.7-0.3-1.4-0.6-2-0.8c-1-0.4-1.9,0-2.5,0.9c-0.5,0.7-1,1.4-1.5,2.1c-0.3,0.4-0.5,0.8-0.7,1.2c-0.2,0.3-0.3,0.5-0.7,0.9
						c-0.2-0.6-0.3-1-0.4-1.3c-0.2-0.8-1.1-1.3-1.8-1.1c-0.6,0.1-0.9,0.7-0.8,1.5c0,0.2,0.1,0.4,0.1,0.5c0.4,0.9,0.7,1.8,1.1,2.8
						c0.1,0.2,0.2,0.5,0.1,0.6c-0.7,1.2-1.5,2.4-2.3,3.6c-0.4-0.2-0.7-0.4-1-0.6c-0.8-0.4-1.4-0.2-1.5,0.8c-0.1,0.3,0,0.6,0.1,0.8
						c0.2,0.8,0.4,1.5,0.6,2.3c0.1,0.3,0,0.7-0.1,1c-0.4,0.8-0.8,1.5-0.9,2.4c-0.1,0.3-0.2,0.6-0.4,0.8c-0.4,0.7-0.7,0.8-1.3,0.3
						c-1.2-0.9-2.5-1.8-3.7-2.7c-1.1-0.7-2.1-1.4-3.2-2c-1-0.6-1.9-1.2-2.9-1.6c-1-0.4-2-0.6-3.1-0.9c-1.6-0.4-3.2-0.9-5-0.7
						c-0.2,0.1-0.5-0.1-0.7-0.1c-0.2-0.6,0.2-1,0.4-1.4c0.2-0.3,0.4-0.6,0.5-0.9c0.1-0.7,0.2-1.3,0.6-1.9c0.2-0.2,0.2-0.5,0.2-0.8
						c0.1-1.3,0.2-2.6,0.3-3.9c0-0.3-0.1-0.5-0.2-0.8c-0.1-0.2-0.2-0.5-0.2-0.7c-0.1-0.7,0.1-0.9,0.8-0.9c0.5-0.1,0.9-0.1,1.4-0.2
						c0.6-0.2,0.9-0.6,0.8-1.2c-0.2-1-0.4-1.2-1.4-1.2c-0.4,0-0.7,0.1-1,0.1s-0.7-0.1-1.2-0.1c0.5-1.1,1.2-2,1.9-2.8
						c0.6-0.6,0.6-1,0-1.6c-0.4-0.5-1-0.6-1.5-0.2c-0.4,0.3-0.6,0.7-0.9,1.1c-0.2,0.2-0.4,0.5-0.6,0.7c-0.6-0.6-0.6-0.9-0.3-1.5
						c0.3-0.5,0.5-1,0.8-1.5s0.6-1.1,1-1.5c0.8-0.8,1.3-1.8,2-2.7c1.2-1.3,2.3-2.7,3.4-3.9c0.4-0.4,0.8-0.8,1.3-1.1
						c0.7-0.6,1.5-1.1,2.3-1.6c0.2-0.2,0.6-0.2,0.8-0.1c1.1,0.3,2.3,0.1,3.2-0.5c1.7-1,2.8-2.6,3.3-4.6c0.3-1,0.3-2.1-0.1-3.2
						c-0.6-1.5-1.5-2.6-2.7-3.7c-1.4-1.3-3-1.3-4.7-1c-0.2,0.1-0.4,0.2-0.5,0.4c-0.3,0.7-1,1.1-1.5,1.6c-0.8,0.7-1.7,1.3-2.1,2.1
						c-0.7,1.3-1.8,2.3-2.6,3.5c-0.5,0.8-1.1,1.5-1.6,2.2c-0.8,1-1.3,2.2-2.3,3.1c-0.9,0.8-1.6,1.8-2.2,2.8c-1,1.6-2.2,3-3.5,4.3
						c-0.6,0.7-1.3,1-2.3,0.6c-0.9-0.4-1.7-0.7-2.8-1c0-0.6-0.1-1.1,0-1.6c0.4-1.6,0.8-3.3,1.2-4.9c0.2-0.8,0.5-1.5,0.7-2.2
						c0.5-1.3,0.9-2.7,1.3-4c0.1-0.1,0.2-0.3,0.2-0.4c0.6-1.1,1.2-2.3,1.8-3.3s1.1-1.9,1.7-2.8c0.8-1,1.6-1.8,2.5-2.8
						c0.4-0.4,0.7-0.7,1.1-1c0.8-0.6,1.5-1.3,2.4-1.9c1-0.7,2-0.8,2.9,0.4c0.1,0.2,0.4,0.2,0.5,0.3c0.4,0.1,0.7,0.2,1,0.4
						c1.3,0.7,2.5,0.4,3.5-0.4c0.8-0.7,1.4-1.5,1.7-2.5c0.2-0.5,0.2-1,0.3-1.5c0.1-0.7,0.2-1.4,0-2c-0.4-1.1-1-2.2-1.5-3.2
						c-0.1-0.2-0.4-0.4-0.6-0.5c-1-0.5-2.1-0.7-3.2-0.8c-1.1-0.1-2.3,0-3.2,0.7c-1.1,0.9-2.5,1.4-3.7,2.1c-0.7,0.4-1.5,0.8-2,1.3
						c-0.8,0.9-1.8,1.4-2.6,2.3c-0.4,0.5-0.9,0.9-1.3,1.4c-0.7,0.8-1.3,1.5-1.9,2.3c-1.1,1.3-2,2.6-2.7,4.1
						c-0.1,0.3-0.3,0.5-0.4,0.7c-0.4,0.5-0.7,1-1,1.5c-0.4,0.6-0.7,1.3-1.2,1.9c-0.9,1.1-1.5,2.4-2,3.7c-0.3,0.7-0.6,1.3-0.9,2
						c-0.6,1.3-1.2,2.6-1.8,3.9c-0.4,0.9-0.8,1.7-1.2,2.5s-0.4,1.9-0.8,2.8c-0.6,1.1-1.1,2.2-1.2,3.4c-0.1,0.5-0.3,1-0.7,1.3
						c-0.7,0.4-1.3,0.8-1.9,1.3c-0.9,0.8-2,1.5-2.7,2.6c-0.1,0.2-0.4,0.4-0.6,0.4c-0.9,0.1-1.5,0.7-2.1,1.3s-1.1,1.3-1.7,1.8
						c-1.3,1-2.4,2.2-3.3,3.5c-0.3,0.4-0.5,0.8-0.7,1.2c-0.6,1.1-1.1,2.3-1.7,3.4c-0.7,1.2-1.5,2.4-2.2,3.6c-0.6,1.3-1.1,2.6-2,3.7
						c-0.7,0.9-1.1,1.9-1.6,3c-0.9,1.8-2.2,3.6-2.9,5.5c-0.1,0.2-0.1,0.3-0.3,0.5c-0.6,0.8-1,1.7-1.2,2.6c-0.1,0.4-0.3,0.8-0.7,1
						c-0.2,0.1-0.4,0.4-0.4,0.7c-0.1,0.4-0.3,0.6-0.6,0.9c-0.3,0.3-0.5,0.6-0.7,0.9c-0.5,0.7-1,1.4-1.5,2.2c-0.3,0.4-0.6,0.7-0.8,1
						c-0.5,0.8-0.9,1.7-1.8,2.1c-0.1,0.1-0.2,0.2-0.3,0.3c-0.6,0.7-1.1,1.4-1.6,2c-0.9,1-2.6,2.6-3.2,2.9c-1.8,0.8-3.2,2-4.9,3
						c-0.9,0.5-4,1.7-4.3,2c-0.4,0.4-12.2,1.1-12.4,1.1c-1.9,0-3.7-0.6-5.5-1.2c-1-0.3-2-0.4-3-0.4c-0.7,0.1-1.3,0.1-2.2,0.1
						c0.1-0.5,0.2-0.8,0.2-1.1c0.1-0.5,0.3-0.9,0.4-1.4c0.1-0.4-0.1-0.7-0.5-0.8c-0.4-0.2-0.7-0.1-0.8,0.4c-0.1,0.3-0.3,0.6-0.4,0.9
						c-0.3,0.7-0.6,1.5-1,2.2s-1.8,1.3-1.9,1c-0.5,0-0.9,0-1.5,0.1c-0.2-0.8-0.4-1.6-0.6-2.4c-0.1-0.2-0.3-0.5-0.5-0.5
						c-0.3-0.1-0.6,0.1-0.7,0.5c-0.1,0.5-0.1,1-0.1,1.5c0.1,0.7,0.4,1.3,0.6,1.9c-0.3,0-0.5,0-0.6,0.1c-0.9,0.3-1.8,0.5-2.5,1
						c-0.9,0.6-1.9,1.2-2.7,2c-0.3,0.3-0.7,0.5-1.1,0.6c-1.2,0.5-2.4,0.9-3.5,1.5c-0.9,0.5-1.8,0.8-2.9,0.7c-0.3,0-0.6,0.1-0.8,0
						c-0.9-0.1-1.8-0.2-2.9-0.3c0.1-1.1,0.2-2,0.3-3c0.1-0.6-0.1-1.1-0.4-1.6c-0.3-0.5-0.9-0.8-1.3-0.6s-0.6,0.6-0.5,1.1
						c0.2,1.1-0.4,2.2-0.6,3.2c0,0.1-0.2,0.2-0.3,0.3c-0.3-0.2-0.7-0.3-1-0.5c-1.9-1.1-3.7-2.5-5.8-3.1c-0.1-0.1-0.2-0.1-0.3-0.1
						c-1.4-0.8-3-0.9-4.5-0.9c-0.7,0-1.3,0.2-1.9,0.4c-0.7,0.3-1.3,0.6-2,1c-0.4,0.2-0.7,0.6-0.8,1c-0.6,1.1-0.1,2.3,0.2,3.3
						c0.5,1.5,1.7,2.6,2.8,3.7c0.3,0.3,0.8,0.3,0.9,0.6c0.7,1,1.7,1.4,2.7,1.9c1.4,0.7,2.8,1.3,4.2,1.9c0.6,0.3,1.2,0.7,1.8,1
						c0.4,0.2,0.8,0.3,1.1,0.2s0.6-0.1,0.8,0.2c0.4,0.3,0.8,0.7,1.2,0.9c1.5,0.7,3,0.8,4.6,0.9s3.2,0,4.7,0.3c2,0.3,3.9-0.2,5.8-0.5
						c1.1-0.2,2.1-0.9,3.3-0.8c0.2,0,0.3-0.1,0.5-0.2c0.5-0.2,0.9-0.4,1.3-0.4c1.2-0.2,2.4-0.7,3.7-0.6c0.5,0.1,1.1-0.3,1.6-0.4
						c0.3-0.1,0.5-0.3,0.8-0.3c0.7,0.2,1.3-0.1,1.9-0.2c0.7-0.1,1.4-0.3,2.1-0.2c2,0.1,4,0.3,6,0.4c0.2,0,0.4,0.1,0.6,0.2
						c2,0.3,3.7,1.6,5.7,1.7c0.6,0.5,1.3,0.4,1.9,0.4c1.8-0.2,3.4,0.7,5,1.4c1.5,0.6,3,1.3,4.7,1.2c0.2,0,0.5,0.1,0.7,0.2
						c1.1,0.4,2.3,0.8,3.5,0.5c0.1-0.1,0.3,0,0.4,0.1c1.9,0.1,3.7,0.2,5.6,0.3c0.5,0,0.9,0.2,1.4,0.2c1.1-0.1,2.2-0.2,3.3-0.4
						c0.8-0.1,1.5-0.3,2.2-0.6c1-0.5,2-0.8,3.1-0.9c1-0.2,1.9-0.6,2.8-0.9c0.8-0.3,1.4-0.8,2.2-1c1-0.3,2.1-0.5,3.1-0.7
						c0.9-0.2,1.8-0.1,2.7-0.3c1.5-0.3,3.1-0.3,4.6-0.3c0.7,0,1.6,0.2,2.2-0.1c0.9-0.4,1.7-0.3,2.6-0.3c0.3,0,0.6,0,0.9-0.1
						c1.3-0.6,2.6-0.9,3.7-1.8c1.1-0.9,2.2-1.7,2.5-3.1c0.1-0.2,0.2-0.3,0.3-0.5c0.6-1.4,1.2-2.8,1.4-4.3c0.2-1.7,0.5-3.4,0.7-5.2
						c0-0.2,0.1-0.3,0.2-0.5c0.9-2.4,1.7-4.8,2.6-7.2c0.2-0.5,0.4-1,0.5-1.5c0.3-0.8,0.9-1.5,1.4-2.2c0.6-0.9,1.1-1.8,1.6-2.8
						c0.5-0.9,1-1.7,1-2.7c0.1-0.7,0.2-1.4,0.4-2.3c1,0.5,1.8,1,2.4,1.7c0.5,0.7,1,1.3,1.5,2c0.7,0.8,1.3,1.6,1.9,2.4
						c0.3,0.4,0.5,0.9,1.1,1c0.1,0,0.2,0.2,0.3,0.3c0.4,0.7,0.8,1.4,1.2,2s0.7,1.4,1.2,1.8c1.2,0.8,1.4,2.1,1.9,3.2
						c-0.4,0.6-0.7,1-1,1.4c-0.7-0.5-1.3-0.9-1.8-1.3c-1.3,0.9-1.3,1-0.7,2.3c0.3,0.7,0.5,1.5,0.4,2.3c0,0.2-0.1,0.4-0.2,0.6
						c-0.4,0.6-0.8,1.1-1.2,1.7c-0.8,1-1.6,2-2.4,3c-0.7,0.9-1.3,1.8-2.4,2.2c-0.7,0.2-1.2,0.7-1.8,1c-1,0.5-1.3,1.4-1.2,2.5
						c0.1,0.9,0.3,1.7,1.1,2.3c0.3,0.2,0.6,0.5,0.8,0.8c0.9,1.1,1.8,2.1,3.3,2.5c0.2,0.1,0.3,0.2,0.5,0.3c0.6,0.5,1.3,0.6,2,0.3
						c1-0.4,2.1-0.8,2.1-2.2c0-0.2,0.1-0.4,0.2-0.5c0.3-0.5,0.3-1,0.2-1.5c-0.1-0.9-0.1-1.8,0.3-2.7c0.8-1.7,1.7-3.3,3-4.7
						c0.6-0.6,1.3-0.8,2-0.7c0.7,0.2,1.3,0.1,2-0.2c-0.1-0.7-0.5-1-1-1.4c-0.7-0.5-0.8-0.8-0.4-1.5c0.3-0.5,0.5-0.9,0.8-1.4
						c0.5-0.8,1.1-1,1.9-0.4c0.5,0.4,1.1,0.6,1.7,0.6c0.8-0.1,1.7-0.2,2.5-0.2c0.9,0,1.4-0.5,1.4-1.2c0.1-1,0.7-1.6,1.3-2.3
						c0.8-0.9,0.8-1.7,0.3-2.8c-0.3-0.5-0.5-1-0.8-1.4c-0.4-0.5-0.7-1-1.2-1.3c-1.2-0.6-1.9-1.5-2.8-2.5c-0.4-0.5-0.4-0.9-0.1-1.3
						c0.2-0.3,0.5-0.5,0.8-0.9c0.3,0.3,0.6,0.4,0.8,0.7c0.4,0.5,0.4,1.1,0.3,1.7c-0.3,1,0.1,1.5,0.9,1.9c0.6,0.2,1,0.1,1.5-0.3
						c-0.2-0.9,0.3-1.4,1-1.8c0.3-0.2,0.5-0.5,0.7-0.7c0.5-0.6,0.8-0.8,1.5-0.4c1.3,0.7,2.6,0.1,3.9-0.2c0.2-0.1,0.3-0.3,0.4-0.4
						c0.2-0.5,0.5-1,0.6-1.5c0-0.8,0.4-1.2,1.1-1.5c0.7-0.4,1.3-1.1,1.1-1.8c-0.4-1.2-0.5-2.6-1.8-3.3c-0.2-0.1-0.2-0.2-0.3-0.3
						c0.3-0.6,0.6-1.1,0.9-1.5c0.9-1.2,1.8-2.4,2.7-3.6c0.3-0.3,0.8-0.5,1.2-0.6c0.8-0.2,1.1-0.5,0.9-1.3c-0.2-0.6-0.1-1.1,0.5-1.5
						c0.5-0.3,0.8-0.7,1.2-1.2c0.5-0.6,1.1-1.2,1.4-1.9c0.5-1.1,1.4-1.3,2.5-1.3c0.3,0,0.5,0.1,0.7,0.1c0.5,0.1,0.9-0.2,0.9-0.6
						c0.1-0.5-0.2-0.7-0.6-0.8c-0.7-0.2-1.3-0.4-1.6-1.1c0.1-0.6,0.3-1.3,0.3-1.9c0.1-0.7,0.2-1.4,0.3-2.1c0-0.2,0.1-0.4,0.2-0.4
						c0.7-0.4,1-1.2,1.9-1.3c0.3,0,0.5-0.2,0.7-0.4C833.8,818.7,833.8,817.8,833,817.5z M795.9,866.5c-0.8,1.2-1.7,2.4-2.4,3.6
						c-0.6,1.1-1.2,2.2-0.8,3.5c0.1,0.4,0.1,0.7,0,1.1c-0.1,0.6-0.6,0.9-1.2,0.7c-1.2-0.4-1.9-1.2-2.7-2.2c-0.3-0.3-0.2-0.7,0.2-1
						c0.5-0.3,1-0.7,1.6-0.8c0.7-0.2,1.1-0.6,1.5-1.1c0.6-0.8,1.2-1.6,1.7-2.4c0.5-0.7,0.8-1.4,1.3-2c0.3-0.5,0.8-0.8,1.1-1.3
						C796.4,865.3,796.3,865.9,795.9,866.5z M773.5,804.5c0.5-1.2,1-2.4,1.5-3.6c0.2-0.5,0.4-1,0.6-1.5c0.4-1.5,1.2-2.8,1.9-4.1
						c0.4-0.7,0.6-1.4,0.9-2.1c0.5-0.9,0.9-1.8,1.4-2.8c0.3-0.6,0.6-1.1,0.9-1.6c0.1-0.2,0.2-0.3,0.3-0.5c1-0.9,1.3-2.2,1.9-3.4
						c0.4-0.7,0.7-1.5,1.3-2c0.3-0.3,0.5-0.6,0.8-0.9c1.2-1.8,2.7-3.4,4.4-4.8c0.7-0.6,1.2-1.3,1.9-1.8c1.3-1,2.7-1.9,4.1-2.8
						c1.3-0.8,2.8-1.2,4.4-0.6c0.8,0.3,1.3,0.8,1.4,1.7c0.1,0.6,0.3,1.2,0.1,1.9c-0.3,1.1-1.1,1.8-2.5,1.3c-0.8-0.4-1.7-0.7-2.5-1.1
						c-0.9-0.5-1.8-0.4-2.7,0.2c-1.5,1-3,2-4.3,3.5c-0.8,0.9-1.7,1.7-2.5,2.6c-1.3,1.6-2.7,3.2-3.5,5.1c-0.4,0.9-1.1,1.8-1.6,2.7
						c-0.6,1-1.1,2-1.3,3.1s-0.6,2.2-1.2,3.2c-0.1,0.2-0.3,0.4-0.3,0.6c0.1,0.9-0.3,1.7-0.6,2.5c-0.3,0.9-0.4,1.8-0.6,2.8
						c-0.1,0.2-0.1,0.3-0.1,0.4c-0.2,1.5-0.4,1.7-1.9,2c-0.8,0.2-1.5,0.4-2.4,0.7C773.5,804.9,773.4,804.7,773.5,804.5z M800.2,860
						c0,0.1-0.1,0.1-0.1,0.2c-0.2,0.4-0.5,0.7-0.7,1.1c0,0.1-0.1,0.1-0.1,0.1c-0.5,1-0.8,1.9-1.8,2.6c-0.3-0.8-0.5-1.5,0.3-2
						c0.2-0.2,0.4-0.5,0.5-0.8c0.1-0.1,0.1-0.2,0.2-0.3c0-0.1,0.1-0.3,0.2-0.3c0.2-0.6,0.6-1.1,1-1.5c0.1-0.1,0.1-0.1,0.1-0.1
						c0.1-0.1,0.2-0.2,0.4-0.1c0.1,0,0.1,0.1,0.1,0.2c0.1,0.1,0.1,0.1,0.1,0.2C800.5,859.5,800.5,859.8,800.2,860z M808.1,856.3
						L808.1,856.3c0.4,0.9,0.5,1.8,0.7,2.8c0.1,0.4,0,0.6-0.1,0.8c-0.2,0.4-0.5,0.7-1.1,0.7c-0.6-0.1-0.9-0.4-1-0.9
						c-0.2-0.1-0.3-0.1-0.5-0.2c-2.8,1.1-6.8-2.8-6.9-5.5c-0.3-0.3-0.4-0.6-0.7-0.8c-0.2-0.2-0.3-0.5-0.3-0.7
						c-1.5-1.3-2.8-3-3.5-4.8c-0.1-0.2-0.1-0.3-0.1-0.4c0-0.1-0.1-0.1-0.1-0.1c-0.2-0.4-0.5-0.8-0.7-1.1c-0.4-0.4-0.8-0.7-1.3-1.1
						c-0.3-0.2-0.5-0.5-0.5-0.8c-0.3-0.4-0.5-0.8-0.8-1.1c-0.5-0.7-1.1-1.2-1.7-1.7c-0.6-0.6-1.3-1.1-1.9-1.7l0,0
						c-0.1,0-0.2-0.1-0.3-0.1c-0.5-0.4-1-0.6-1.6-0.6c-0.1,0-0.2,0-0.2-0.1c-0.4,0-0.7-0.1-1-0.1c-0.1,0-0.2-0.1-0.3-0.1
						c-1.1,0-2.2,0-3.2,0c-0.7,0-1.5,0-2.2,0.1c-0.8,0.1-1.5,0.2-2.3,0.4c-0.8,0.4-1.6,0.8-2.5,1c-0.3,0.2-0.6,0.4-0.9,0.5
						c0.7,1.1,1.8,1.2,3.2,0.9c0.2-0.1,0.4,0.1,0.4,0.2c0.5-0.1,1-0.1,1.4-0.1c1.3-0.1,2.5-0.2,3.8-0.2c0.6,0,1.1,0.1,1.7,0.2
						c0.1,0.3,0.1,0.5,0.1,0.7c-0.4,1.6-0.8,3.3-1.8,4.8c-0.4,0.6-0.6,1.3-0.9,2c-0.2,0.5-0.4,0.9-0.7,1.3c-0.6,1.1-1.2,2.2-1.3,3.5
						c-0.1,0.8-0.4,1.7-1,2.5c-0.6,0.7-0.9,1.6-1.2,2.4c-0.6,1.8-1,3.7-1.5,5.5c-0.4,1.4-0.6,3-1.4,4.3c-0.2,0.3-0.3,0.6-0.4,0.9
						c-0.3,1.2-0.9,2.2-1.9,2.8c-0.5,0.4-1,0.8-1.6,1c-0.7,0.3-1.4,0.3-2.1,0.5c-0.7,0.1-1.4,0.2-2.1,0.3c-0.7,0.1-1.3,0.1-2,0.2
						c-0.8,0.1-1.6,0.1-2.4,0.2c-1.3,0.1-2.6,0.1-3.8,0.2c-0.8,0.1-1.5,0.3-2.4,0.4c-1.1,0.2-2.2,0.7-3.3,0.8
						c-0.7,0.1-1.4,0.5-2.2,0.8c-0.7,0.3-1.4,0.6-2.2,0.8c-0.8,0.4-1.7,0.7-2.5,1c-1.6,0.7-3.4,0.8-5.1,1c-1.1,0.1-2.2-0.1-3.2-0.2
						c-1.5-0.1-3-0.1-4.4-0.2c-0.3,0-0.5,0.1-0.7-0.1c-0.6-0.5-1.4-0.4-2.1-0.5c-1.3-0.3-2.7-0.4-4-0.7c-0.6-0.1-1.2-0.5-1.7-0.7
						c-2.1-0.8-4.3-1.2-6.5-1.7c-0.3-0.1-0.6,0.1-0.7-0.3c0-0.1-0.1-0.1-0.2-0.2c-0.7-0.3-1.4-0.5-2.2-0.7c-0.7-0.2-1.4-0.3-2-0.4
						c-1.4-0.3-2.8-0.4-4.1-0.5c-0.6,0-1.3-0.1-1.9-0.3c-1.3-0.4-2.5,0.1-3.6,0.4c-0.2,0.1-0.4,0.2-0.6,0.2
						c-1.4-0.4-2.9,0.2-4.4-0.1c-0.2,0-0.3,0.1-0.5,0.1c-0.8,0.2-1.6,0.4-2.4,0.6c-1.2,0.3-2.5,0.7-3.7,0.9c-1.4,0.3-2.8,0.7-4.2,1
						c-0.8,0.2-1.6,0.1-2.5,0.1c-1.6,0-3.2-0.1-4.8-0.1c-0.6,0-1.3,0.1-1.9,0.1c-0.1,0-0.2,0-0.2,0c-1.2-0.6-2.5-0.5-3.6-1.1
						c-0.8-0.4-1.7-0.8-2.4-1.4c-0.6-0.5-1.4-0.6-2.2-0.7c-0.8-0.1-1.4-0.4-2-0.9s-1.3-0.8-2-1.1c-1.7-0.7-2.9-1.9-4.1-3.1
						c-0.5-0.4-0.7-0.9-0.8-1.5c-0.2-0.7,0.1-1.2,0.6-1.5c0.8-0.5,1.6-0.8,2.6-0.7c1.5,0.2,2.9,0.5,4.2,1.2c0.8,0.4,1.6,0.4,2.3,1.1
						c0.2,0.2,0.4,0.3,0.4,0.4c0.4,1,1.2,1.6,1.9,2.3c0.5,0.5,1,0.9,1.5,1.4c0.5-0.5,0.8-0.9,1.3-1.4c0.4,0.6,0.8,1.1,1.2,1.7
						c0.3-0.3,0.5-0.5,0.7-0.8c0.4-0.6,0.5-0.7,1.1-0.4c0.5,0.3,1,0.3,1.5,0.1s1-0.1,1.6-0.1c0.5,0,1,0.1,1.5-0.1c1-0.2,2-0.5,3-0.8
						c1.5-0.5,2.8-1.3,4.1-2.2c1-0.6,1.8-1.3,2.8-2c0.5-0.3,1.1-0.6,1.6-0.9c0.4,0.2,0.5,0.7,0.6,1.1c0.3,0.9,0.4,1.8,1.1,2.6
						c0.4,0.4,0.6,0.4,0.9,0.1c0.7-0.5,0.8-1,0.5-1.9c-0.3-1-0.8-1.9-0.7-3.1c0.3-0.2,0.6-0.3,0.9-0.5c0.1,0.3,0.2,0.6,0.3,0.8
						c0.2,0.3,0.3,0.6,0.6,0.8s0.7,0.4,1,0.3c0.2-0.1,0.3-0.5,0.4-0.8c0.1-0.4,0.2-0.8,0.3-1.2c0.9-0.2,1.6-0.2,2.4-0.4
						c0.9-0.4,1.7-0.1,2.6,0.1c0.9,0.2,1.9,0.5,2.8,0.7c0.6,0.1,1.1,0.3,1.6,0.6c0.7,0.4,1.6,0.4,2.5,0.5c0.2,0.1,0.3,0,0.5-0.1
						c0.4,1,0.4,2-0.2,2.9c0.4,0.4,0.6,0.5,1.1,0.2c0.4-0.3,0.9-0.2,1.2,0.2c0.3,0.3,0.6,0.6,1,0.4s0.9-0.5,1-1
						c0.2-0.7,0.4-1.3,0.7-2s0.9-0.8,1.4-0.3c0.2,0.2,0.4,0.4,0.6,0.5c0.5,0.3,0.8,0.2,1.3-0.4c0.7-0.9,0.8-0.8,1.7-1.3
						c0.7-0.4,1.3-0.4,2-0.6c1-0.2,1.8-0.7,2.8-1.1c0.7-0.3,1.4-0.6,2.1-1c1.1-0.6,2.3-1.3,3.4-1.9c0.9-0.5,1.7-1.1,2.5-1.7
						c0.5-0.4,1-0.8,1.4-1.2c0.6-0.6,1.2-1,1.9-1.4c0.5-0.3,1-0.8,1.4-1.3c1.3-1.6,2.6-3.3,3.8-5c0.2-0.3,0.5-0.6,0.8-0.8
						c0.1-0.1,0.3-0.2,0.3-0.4c0.5-1.3,1.4-2.4,2-3.6c0.3-0.6,0.5-1.1,1-1.6c0.2-0.2,0.2-0.5,0.3-0.7s0.1-0.4,0.2-0.6
						c0.8-1.2,1.2-2.7,1.9-3.9c0.1-0.2,0.3-0.3,0.4-0.4s0.3-0.4,0.4-0.6c0.4-0.9,0.8-1.8,1.3-2.7c0.4-0.7,1-1.3,1.5-2
						c0.3-0.5,0.5-0.9,0.7-1.4c0.5-1,1-1.9,1.4-2.9c0.6-1.4,1.3-2.7,2.1-3.9c1.1-1.9,2-3.9,3.9-5.3c0.8-0.6,1.2-1.5,1.9-2.2
						c0.6-0.6,1.1-1.3,1.9-1.7c0.8-0.4,1.4-1.1,2-1.6s1.2-0.8,1.8-1.2c0.1-0.1,0.2-0.1,0.2-0.1c0.9-1.1,2.3-1.3,3.4-1.9
						c1.2-0.7,2.5-1,3.8-1.4c0.5-0.2,1-0.2,1.5,0.2c0.3,0.2,0.9,0,1.3-0.2c1.2-0.5,2.5-0.3,3.4,0.6c0.6,0.6,2,0.7,2.7,0.1
						c1.2-1,2.4-2,3.5-3c0.4-0.4,0.8-0.9,1-1.3c1-1.9,2.6-3.3,3.9-4.9c0.8-1,1.5-2,2.2-3.1c0.2-0.2,0.3-0.4,0.4-0.5
						c0.9-0.8,1.6-1.6,2.2-2.6c0.2-0.2,0.4-0.4,0.5-0.6c0.4-0.5,0.8-1,1.2-1.5c0.7-1,1.6-1.8,2.7-2.4c0.3-0.2,0.9-0.2,1.2,0
						c0.7,0.4,1.2,0.9,1.5,1.7c0.1,0.2,0.1,0.4,0.2,0.6c0.6,1.3,0.1,2.5-0.5,3.5c-0.2,0.3-0.6,0.5-1,0.6c-0.7,0.2-1.3,0.2-2,0.2
						c-0.4,0.1-0.8,0-1.1,0.2c-1,0.6-1.9,1.2-2.8,1.9c-1.3,1.1-2.5,2.3-3.8,3.5c-0.3,0.3-0.5,0.6-0.7,0.9c-0.2,0.3-0.3,0.6-0.5,0.7
						c-1.1,1-1.8,2.4-2.7,3.5c-0.6,0.8-1.2,1.5-1.6,2.3c-0.5,0.9-1,1.8-1.4,2.8c-0.4,0.8-0.6,1.7-0.9,2.6c-0.3,0.8-0.2,1.4,0.4,2
						c0.4,0.4,0.6,1,0.8,1.5c0.3-0.1,0.5-0.2,0.7-0.2c0.5-0.1,0.9,0.1,1,0.6c0.2,0.6,0.3,1.1,1,1.3c0.1,0.1,0.2,0.3,0.3,0.4
						c0.4,1.6,0.7,3.3-0.1,4.9c-0.2,0.4-0.4,0.7-0.6,1c-0.9,1.6-1.5,3.4-2.6,4.9c-0.9,1.2-1.4,2.5-1.8,3.9c-0.1,0.4-0.4,0.8-0.5,1.2
						c-0.2,0.6-0.5,0.6-1.1,0.7c-1,0-1.9,0.2-2.9,0.3c-1.3,0.2-2.7,0.4-4,0.5c-0.8,0.1-1.4,0.3-2,0.7c-0.3,0.2-0.6,0.3-0.9,0.5
						c-0.3,0.1-0.6,0.2-0.7,0.4c-0.6,0.6-1,1.1-1.9,1c-0.2,0-0.4,0.4-0.5,0.6c-0.1,0.2-0.1,0.3-0.1,0.4c0.3,0.3,0.8,0.4,1.3,0.5
						c1.1-0.3,2.1-0.8,3.2-1h0.1l0.1-0.1c0.1-0.1,0.2-0.1,0.3-0.1c2.3-0.6,4.7-0.6,7.1-0.5c0.1-0.1,0.2-0.2,0.4-0.2
						c0.9,0.1,1.8,0.3,2.7,0.7c0.6,0.2,1.1,0.4,1.6,0.7c0.1,0.1,0.1,0.1,0.2,0.2c0.8,0.5,1.7,0.9,2.4,1.6c0.7,0.8,1.6,1.3,2.3,2.1
						c0.2,0.2,0.4,0.5,0.6,0.7c2.3,1.6,3.7,3.9,5.6,5.8c1.4,1.4,3.2,2.2,4.9,3.3C805.8,853.2,808,854.8,808.1,856.3z M807.3,843.7
						c-0.2,0.2-0.5,0.2-0.7,0.2c-1.1-0.1-1.6,0.4-1.5,1.4c0.1,0.9-0.2,1.7-0.6,2.5c-0.3,0.5-0.7,0.9-1.4,0.7
						c-0.4-0.1-0.7-0.1-1.1-0.2c-0.2-0.1-0.4-0.2-0.6-0.4c-0.4-0.5-0.8-1-1.2-1.6c-0.8-1.1-1.6-2.2-2.5-3.2c-1.1-1.3-2.2-2.7-3.4-4
						c-0.9-0.9-2-1.7-3.1-2.5c-0.3-0.3-0.7-0.4-1.1-0.6c-0.6-0.5-1.2-0.9-1.8-1.4c-0.1-0.1-0.1-0.3-0.1-0.5c1.1-0.3,2.2-0.4,3.3-0.2
						c0.6,0.2,1.2,0,1.8,0.2c1.1,0.3,2.3,0.8,3.4,1.2c0.4,0.1,0.8,0.2,1.1,0.3c0.2,0.1,0.4,0.1,0.6,0.2c0.6,0.3,1.1,0.5,1.6,0.8
						c0.5,0.2,1.1,0.4,1.4,0.9c0.1,0.1,0.2,0.2,0.3,0.2c1.3,0.7,2.6,1.4,3.8,2.3c0.4,0.3,0.7,0.7,1,1.1c0.2,0.2,0.3,0.4,0.5,0.6
						C807.8,842.4,807.9,843.1,807.3,843.7z M805.5,835.2C805.6,835.2,805.6,835.2,805.5,835.2c1.7,0.7,3,1.6,4,3
						c0.3,0.5-0.4,1-0.7,0.6c-0.2-0.2-0.4-0.5-0.5-0.6l0,0c-0.4-0.5-0.9-0.9-1.4-1.2l0,0c0,0,0,0,0-0.1c-0.5-0.3-1-0.6-1.6-0.8
						c-1.4-0.4-2.6-1.3-3.7-2.2c-0.8-0.3-1.7-0.5-2.5-0.8s-1.6-0.6-2.3-0.9c-0.7-0.3-1.4-0.6-2.2-0.5c-0.3,0.1-0.6,0.1-0.8-0.1
						c-0.9-0.3-1.8-0.3-2.7-0.3c-0.3,0-0.6-0.2-0.9-0.3c-0.1,0,0-0.3,0-0.3c0.3-0.1,0.7-0.2,0.9-0.1c0.8,0.5,1.6,0.1,2.3-0.2
						c0.7-0.2,1.2-0.3,1.8,0c1,0.4,2,0.7,3.1,0.7c0.8,0,1.3,0.5,2,0.8c0.3,0.1,0.5,0.4,0.7,0.4c1,0.2,1.6,0.8,2.3,1.4 M818.1,845.5
						c-0.4,0.7-0.6,1.4-1,2.1c-0.1,0.2-0.3,0.3-0.5,0.4c-0.2,0.1-0.4,0.1-0.6,0.1c-0.4-0.1-0.7-0.3-0.8-0.5c0-0.1-0.1-0.1-0.1-0.1
						c-0.1-0.1-0.1-0.2-0.1-0.2c-0.1-0.3-0.1-0.5,0.1-0.8v-0.1c0-0.1,0.1-0.1,0.1-0.2c0.5-0.8,0.7-1.6,1.2-2.4
						c0.2-0.3,0.4-0.4,0.7-0.5c0.2-0.2,0.4-0.2,0.7-0.2C819.1,843.4,819.1,845.1,818.1,845.5z M826.8,824.8
						c-0.1,0.2-0.4,0.3-0.7,0.3c-0.5,0.1-0.9,0.1-1.4,0.1c-0.8,0.1-1.1,0.7-0.7,1.3c0.3,0.4,0.7,0.8,1.1,1.2c-0.5,1-1,1.9-1.9,2.7
						c-0.2,0.2-0.4,0.4-0.5,0.6c-0.4,0.5-0.8,1-1.2,1.5c-0.2,0.2-0.4,0.3-0.6,0.3c-0.4,0.1-0.9,0.2-1.3,0.2c-0.5,0-1,0.2-1.2,0.6
						c-0.2,0.5,0.1,0.8,0.4,1.2c0.1,0.1,0.2,0.3,0.3,0.5c-0.9,0.8-1.1,2.1-2.2,2.8c-0.2,0.1-0.2,0.3-0.3,0.5c-0.6,1.1-1.3,2.2-2,3.2
						c-0.5,0.8-0.9,1.6-1.5,2.4c-0.7,1-1.4,1.9-2.2,2.9c-0.2,0.3-0.4,0.4-0.6,0.6c-0.2-0.1-0.2,0-0.3-0.1c-1.3-0.9-1.3-1.2-0.4-2.5
						c0.3-0.4,0.6-0.6,0.9-0.9c0.3-0.3,0.5-0.6,0.6-1c0.3-1.1,1-2,1.5-3c0.6-1.1,1.4-2.2,1.4-3.5c0.1-0.7,0.4-1.4,0.7-2.3
						c0.4,0.5,0.7,0.8,0.9,1s0.3,0.4,0.5,0.5c0.3,0.1,0.7,0.2,1,0c0.2-0.1,0.2-0.5,0.2-0.8c-0.1-0.4-0.3-0.8-0.4-1.2
						c-0.2-0.7-0.4-1.3-0.6-2c-0.1-0.2,0-0.5,0.1-0.7c0.3-0.6,0.6-1.1,1-1.6c0.3-0.5,0.6-1,0.9-1.5c0.1-0.2,0.2-0.3,0.4-0.4
						c0.4,0.4,0.7,0.7,1.1,1.1c0.7,0.6,1.1,0.7,1.4,0.4c0.4-0.4,0.4-0.9,0.2-1.6c-0.4-0.9-0.7-1.8-0.7-2.8c0-0.7,0.2-1.3,0.7-1.8
						c0.8-0.9,1.6-1.9,1.9-3.1c0.2-0.6,0.7-0.7,1.1-0.7c0.8,0.1,1.6,0.2,2.2,0.9c-0.3,0.6-1.2,0.8-0.8,1.6c0.3,0.6,0.8,0.9,1.4,1
						C827.3,823.5,827,824.2,826.8,824.8z"/>
				</g>
			</g>
			<g>
				<path class="st2" d="M811.9,901.9c0.7,0.4,1.3,0.6,1.9,0.9c1.1,0.5,1.9,1.3,2.6,2.5c0.5,0.9,0.7,1.8,0.7,2.8
					c0.1,2.2-0.5,4-1.7,5.4c-0.9,1.1-2,1.9-3.2,2.7c-1.1,0.7-2.1,1.4-3.3,1.8c-1.4,0.5-2.7,0-3.9-1.2c-0.5-0.5-1-1-1.5-1.4
					c-0.8-0.8-1.4-1.7-1.4-3.1c0-1.1-0.1-2.3-0.3-3.4c-0.5-2.6-1.1-5.3-1.7-7.8c-0.7-2.4-1.5-4.8-2.7-6.9c-0.7-1.3-0.5-2.2,0.6-2.9
					c1-0.7,2-0.5,3-0.5c1.6,0,3.3,0.2,4.9,0.3c1.9,0.1,3.7,0.9,5.4,2.1c0.7,0.5,1.2,1.4,1.5,2.5c0.4,1.8,0.3,3.5-0.5,5.1
					C812.2,901,812.1,901.4,811.9,901.9z M808,913.2c1.6-0.9,2.8-2.1,3.6-4c0.3-0.7,0.2-1.4,0.1-2.1c-0.1-0.5-0.4-0.8-0.8-0.8
					c-0.4,0-0.8,0.1-1.2,0.2c-0.4,0.1-0.8,0.4-1.2,0.5c-0.5,0.1-1.1,0.2-1.7,0.3C807.1,909.3,807.4,911.3,808,913.2z M803.4,895.6
					c0.6,1.8,1.1,3.5,1.6,5.2c0.1,0.4,0.3,0.7,0.5,1.3c0.4-0.7,0.7-1.2,1.1-1.7c0.5-0.9,0.9-1.8,1.1-2.8c0.2-1-0.1-1.7-0.8-1.8
					C805.7,895.5,804.6,895.3,803.4,895.6z"/>
				<path class="st2" d="M751.5,954.8c0.2,0.2,0.4,0.4,0.6,0.5c1.3,0.6,2.3,1.7,3.2,2.9c0.7,1,1.2,2.3,1.1,3.7
					c0,0.5-0.2,1.1-0.4,1.6c-1.7,3.2-4.2,4.7-7.2,5.2c-1.3,0.2-2.5,0.2-3.7-0.1c-1.1-0.3-2.1-1-2.5-2.5c-0.6-1.8-1.2-3.7-1.7-5.5
					c-0.3-1.3-0.6-2.5-0.8-3.8c-0.5-2.3-0.9-4.6-1.4-6.9c-0.1-0.4-0.3-0.9-0.5-1.2c-0.4-0.7-0.6-1.4-0.4-2.2c0.1-0.3,0.1-0.6,0-0.9
					c-0.2-0.6-0.2-1.1,0.2-1.6s0.9-1,1.5-0.8c0.8,0.3,1.5,0,2.1-0.5c2.8-1.8,5.7-1.8,8.5,0.5c1.3,1,2.2,2.4,2.5,4.3
					c0.3,1.7,0.2,3.5-0.3,5.2C752,953.3,751.8,953.9,751.5,954.8z M744.7,955.9c0.5-0.7,1-1.3,1.4-1.9c0.8-1.2,1.4-2.6,1.7-4.1
					c0.2-0.8,0.2-1.7,0.2-2.5s-0.4-1.2-1.1-1.3c-1.1-0.2-2,0.6-2.9,1.3c-0.6,0.4-0.8,1.1-0.5,2c0.1,0.3,0.1,0.7,0.1,1
					c0.2,1.5,0.4,3,0.7,4.4C744.4,955.2,744.6,955.5,744.7,955.9z M746.3,961.8c0,0.5,0.4,2.3,0.6,2.5c0.6,0.4,1-0.2,1.5-0.3
					c0.2,0,0.4-0.2,0.6-0.3c0.9-0.5,1.7-1.2,2.2-2.2s0.1-2.1-0.9-2.1c-0.6,0-1.2,0.2-1.6,0.5C747.9,960.4,747.1,961.1,746.3,961.8z"
					/>
				<path class="st2" d="M730.1,956.9c-0.3,1-0.5,1.8-0.7,2.5c-0.3,1.2-0.7,2.4-1.1,3.5c-0.3,1.1-1,1.7-2,1.9
					c-1.4,0.3-2.5-0.3-3.6-1.4c-0.8-0.8-1.5-1.7-2.3-2.6c0,0.2-0.1,0.5-0.2,0.7c-0.2,1.8-0.4,3.5-0.2,5.4c0.2,2.7-1.6,4.2-3.6,3.1
					c-0.3-0.2-0.6-0.4-0.9-0.6c-0.7-0.5-0.8-1-0.7-2c0.2-2,0.3-4,0.4-6.1c0.1-2.2,0.3-4.4,0.4-6.5c0-0.6-0.1-1.2-0.2-1.8
					c-0.4-1.6-0.3-2.1,0.9-2.8c1-0.7,2.1-0.4,3.1,0c0.7,0.3,1.2,1.2,1.7,1.9c1,1.6,1.8,3.2,2.8,4.8c0.1,0.2,0.3,0.4,0.5,0.7
					c0.2-0.4,0.3-0.7,0.4-1.1c0.4-1.5,0.8-3,1.2-4.5c0.3-1.2,0.7-2.5,0.9-3.7c0.2-1.3,0.9-1.8,1.7-2c0.6-0.2,1.2-0.2,1.8,0
					c0.9,0.2,1.6,0.9,2.1,2.1c0.6,2,1.5,3.9,2.1,5.9c0.4,1.1,0.7,2.3,1,3.5c0.5,2.2,1.3,4.4,2.1,6.5c0.5,1.1,0.2,2.1-0.6,2.7
					c-1.8,1.3-4-0.1-4.6-2.4c-0.6-2.3-1.3-4.5-2-6.8C730.4,957.5,730.3,957.4,730.1,956.9z"/>
				<path class="st2" d="M656.2,931c1.2,0.2,2.2-0.3,3.2-0.9c1.6-0.9,3-2,4.2-3.7c0.1-0.2,0.2-0.3,0.3-0.5c0.4-0.8,0.3-1.4-0.4-1.8
					c-1.1-0.6-2.3-1.2-3.4-1.8c-1.1-0.6-2.1-1.1-3.1-1.7c-1.3-0.8-2.6-1.7-3.7-3c-1.9-2-2.4-4.5-1-6.9c1.2-2.1,2.5-4.1,4.2-5.8
					c0.6-0.7,1.4-1.1,2.2-1.3c1-0.4,2.1-0.7,3.2-0.4c0.4,0.1,0.9,0.1,1.4,0c0.7,0,1.3,0.3,1.8,0.7c0.6,0.4,0.8,1.1,0.7,2.1
					c0,0.8-0.3,1.4-1,1.5c-0.9,0.2-1.8,0.6-2.7,0.2c-0.2-0.1-0.6,0-0.9,0.2c-1.6,1.1-2.8,2.8-3.7,4.8c-0.5,1.1-0.3,2.1,0.5,2.9
					c0.7,0.6,1.4,1.2,2.1,1.6c2.1,1.2,4.3,2.2,6.4,3.3c1.2,0.6,2.3,1.4,3.1,2.6c0.9,1.3,0.8,2.5,0.3,3.7c-0.6,1.5-1.5,2.7-2.6,3.7
					c-1.5,1.4-3.1,2.4-4.8,3.3c-1.6,0.9-3.2,1.4-4.9,1.5c-0.6,0-1.2,0-1.7-0.1c-1-0.1-2-0.2-2.9-0.2c-1,0-1.6-0.7-2.2-1.5
					c-0.8-1-0.4-2.2,0.6-2.6c0.1,0,0.3-0.1,0.4-0.1C652.2,930.9,653.8,930.6,656.2,931z"/>
				<path class="st2" d="M790.9,957.7c0.5,2.6,1.1,5,1.9,7.3c0.7,1.9-0.4,3-1.5,3.1c-1.5,0.2-3-1.4-3.3-3.3
					c-0.3-1.6-0.7-3.2-1.1-4.8c-0.8-3.1-1.5-6.3-1.7-9.5c-0.2-1.9-0.6-3.8-1-5.7c-0.1-0.6,0-1.2,0.4-1.6c0.6-0.5,1.2-0.8,2-0.5
					c1.4,0.6,2.5,1.5,2.7,3.6c0.1,1.7,0.3,3.4,0.5,5c0.1,1.1,0.2,1.4,1.1,1.2c1.4-0.2,2.8-0.5,4.3-0.7c0-0.4,0-0.7-0.1-1.1
					c-0.5-2.3-1-4.6-1.5-6.9c-0.1-0.4-0.2-0.8-0.3-1.1c-0.3-0.6-0.3-1.3-0.1-1.9c0.2-0.9,0.9-1,1.5-1.1c1.5-0.2,3,1.1,3.4,3
					c0.4,1.7,0.7,3.5,1.1,5.3c0.2,1,0.4,2,0.6,2.9c0.1,0.3,0.2,0.6,0.4,0.9c0.4,0.5,0.5,1.1,0.4,1.7c-0.2,1.3,0.2,2.5,0.4,3.7
					s0.6,2.4,0.8,3.7c0.3,1.4,0.5,2.8,0.8,4.2c0.2,1.2-0.2,2.1-1.2,2.3c-1.1,0.2-2.1-0.1-2.8-1.2c-0.2-0.4-0.5-0.8-0.6-1.3
					c-0.4-2.1-0.8-4.1-1.2-6.2c-0.1-0.5-0.1-1-0.2-1.5c-0.2-0.7-0.3-0.8-0.9-0.7C794,957,792.5,957.3,790.9,957.7z"/>
				<path class="st2" d="M721.8,914.8c-1.2-0.7-2.4-1.3-3.5-1.9c-0.4-0.2-0.7-0.6-0.8-1.2c0-0.5,0.1-0.9,0.4-1.3
					c1.8-1.7,3.7-1.4,5.7-0.4c1.2,0.6,2.2,1.4,3.3,2.2c0.3,0.2,0.6,0.5,0.8,0.8c0.5,0.7,0.6,1.6,0.1,2.4c-1.3,2.2-2.6,4.4-4,6.6
					c-1.4,2.3-3.5,3.3-5.7,3.5c-1.5,0.2-3-0.4-4.3-1.5c-0.6-0.5-1.2-0.9-1.6-1.5c-1.8-2-2.5-4.6-2.9-7.4c-0.2-2.2-0.3-4.3,0.1-6.4
					c0.3-1.4,0.8-2.8,1.3-4.1c0.2-0.7,0.5-1.3,0.8-1.9c0.6-1.1,1.2-2.1,1.9-3c0.6-0.7,1.4-1.2,2.3-1.2c1.5,0,2.9-0.1,4.2,0.9
					c0.3,0.2,0.6,0.4,0.8,0.8c0.5,0.7,0.4,1.9-0.2,2.4c-0.6,0.5-1.3,0.9-2,0.8c-0.8-0.1-1.2,0.3-1.5,1.1c-0.8,1.6-1.5,3.2-1.9,5.1
					c-0.1,0.7-0.3,1.5-0.3,2.2c-0.2,2.6,0,5.1,1.1,7.4c0,0.1,0.1,0.2,0.1,0.3c0.9,1.8,1.6,2,2.8,0.6c1.1-1.4,1.9-3,2.9-4.5
					C721.7,915.3,721.7,915.1,721.8,914.8z"/>
				<path class="st2" d="M683.1,954.5c0.5-0.4,0.7-0.6,1-0.9c1.4-1.7,2.8-3.4,4.1-5.2c0.4-0.5,0.8-1.1,0.9-1.8
					c0.3-1.5,1.4-1.8,2.4-1.8c0.7,0,1.4,0.3,2.1,0.6c1,0.4,1.5,2.3,0.8,3.2c-1.4,1.8-2.4,4-4,5.5c-0.7,0.7-1.3,1.6-2,2.5
					c0.4,1.1,1.1,1.6,1.7,2.3c1.4,1.6,2.8,3.2,4.2,4.7c0.5,0.5,0.7,1.2,0.7,1.9c0,0.8-0.2,1.4-0.8,1.7c-1.5,0.9-3.1,0.5-4.2-1.3
					c-1.2-1.9-2.6-3.4-4-4.9c-0.4-0.4-0.8-0.9-1.2-1.3c-0.2-0.2-0.5-0.4-0.8-0.6c-0.1,0-0.1,0.1-0.2,0.2c0.2,1.2,0.4,2.3,0.6,3.5
					c0.3,1.6,0.6,3.2,0.9,4.8c0.2,1,0.1,1.4-0.6,1.9c-0.7,0.5-1.4,0.7-2.2,0.3c-0.6-0.3-1.4-0.4-1.8-1.1c-0.2-0.4-0.5-0.8-0.6-1.3
					c-0.5-2.9-0.9-5.9-1.3-8.8c-0.5-3.2-1-6.4-1.6-9.6c-0.1-0.5-0.3-1-0.4-1.4c-0.3-1,0-1.8,0.8-2.1c1.1-0.4,2.1-0.3,3.2,0
					c1,0.3,1.4,1.4,1.6,2.6c0.2,1.4,0.3,2.8,0.5,4.1C682.9,953,683,953.6,683.1,954.5z"/>
				<path class="st2" d="M695.5,918.9c0.6-1,0.9-2.1,1.1-3.2c0.5-2.5,0.7-4.9,0.5-7.5c-0.1-1-0.1-2-0.2-3c-0.1-0.8-0.4-1.5-0.8-2.2
					c-0.5-1.1-0.5-1.8,0.3-2.4c1.3-1,2.7-0.8,4.1-0.4c0.7,0.2,1.1,1.1,1.4,2c0.7,2.1,0.7,4.4,0.8,6.6c0.1,3.7-0.2,7.3-1.3,10.7
					c-0.9,2.7-2.5,4-4.8,4.4c-0.2,0-0.4,0-0.5,0c-3.2,0.4-6.7-2.8-7.6-6.6c-0.7-2.6-1.2-5.2-1.5-7.9c-0.1-1-0.4-1.9-0.6-2.9
					c-0.3-1.3-0.1-1.7,0.9-2.2c0.5-0.2,1.1-0.3,1.6-0.3c0.4,0,0.9,0.1,1.3,0.1c1.3,0.1,2.2,1,2.4,2.6c0.2,1.8,0.4,3.6,0.7,5.4
					c0.3,1.9,0.6,3.7,1.3,5.5C694.6,918.2,695,918.6,695.5,918.9z"/>
				<path class="st2" d="M805.7,963.4c0-0.8,0.1-1.5,0.1-2.3c0.1-1.7,0.1-3.4,0.2-5.2c0-1.6,0.1-3.1,0-4.7
					c-0.1-3.6-0.3-7.2-0.5-10.8c0-0.3-0.1-0.7-0.2-1c-0.1-0.7,0.1-1.2,0.6-1.5c1.1-0.7,2.9-0.3,3.6,0.9c0.7,1.1,1.3,2.2,1.8,3.4
					c1.1,2.3,2.2,4.6,3.5,6.7c0.7,1.1,1.4,2.3,2,3.4c0.2,0.3,0.4,0.7,0.7,0.9c0.6,0.6,1.2,1.3,1.5,2.2c0.7,1.8,1.7,3.4,2.8,5
					c0.7,1.1,0.5,2.7-0.5,3.4c-1.3,1-3.5-0.4-3.9-2.2c-0.2-1-0.7-1.7-1.2-2.5c-0.4-0.5-0.8-0.7-1.3-0.4c-0.9,0.5-1.7,1-2.6,1.5
					c-0.3,0.2-0.6,0.3-0.9,0.3c-1,0.2-1.2,0.6-1.3,1.8c0,0.9-0.1,1.7-0.3,2.6c-0.2,1.1-1.3,1.9-2.1,1.7c-1-0.2-1.8-1.2-1.9-2.5
					C805.8,963.8,805.8,963.6,805.7,963.4C805.7,963.4,805.7,963.4,805.7,963.4z M810.3,955c0.8-0.3,1.5-0.5,2.1-0.7
					c0.8-0.3,0.8-0.5,0.3-1.4c-0.7-1.2-1.4-2.4-2.2-3.5c-0.1-0.1-0.2-0.2-0.5-0.3C810,951.2,810.4,953.1,810.3,955z"/>
				<path class="st2" d="M788.7,911.6c0.6-1.7,0.7-3.1,0.9-4.6c0.3-3-0.1-5.8-0.9-8.7c-0.2-0.7-0.3-1.4-0.4-2
					c-0.2-1.1,0.1-1.6,0.9-1.9c0.6-0.2,1.2-0.5,1.9-0.1c0.2,0.1,0.4,0.1,0.5,0.1c1,0.1,1.8,1,2,2.3c0.3,1.9,0.6,3.9,0.9,5.8
					c0.7,4.2,0.4,8.2-1,12c-0.9,2.4-2.6,3.3-4.4,3.1c-1.4-0.2-2.8-1-3.9-2.4c-1.3-1.6-2.2-3.5-2.9-5.5c-0.9-2.7-1.5-5.6-2.1-8.5
					c-0.1-0.4-0.2-0.9-0.4-1.3c-0.3-0.9-0.2-1.5,0.5-2c0.5-0.4,1-0.6,1.6-0.6c0.4,0,0.7,0,1.1,0c1.6,0.1,2.5,1.4,2.7,3.3
					c0.3,3.3,0.8,6.5,2,9.5C788.1,910.6,788.3,911,788.7,911.6z"/>
				<path class="st2" d="M763.2,960.8c0.4-1.4,0.6-2.6,0.6-3.9c0-2.1,0-4.2-0.4-6.2c-0.4-2.1-0.7-4.3-1.5-6.2
					c-0.7-1.6-0.3-2.8,1.1-3c1.2-0.2,2.4,0.1,3.2,1.5c0.3,0.5,0.4,1.3,0.5,1.9c0.3,1.6,0.5,3.3,0.9,4.8c0.7,2.6,0.8,5.2,0.9,7.9
					c0,2.5-0.4,4.9-1.4,7c-0.7,1.5-1.8,2.4-3.2,2.3c-1.3-0.1-2.6-0.8-3.5-2.3c-0.8-1.3-1.5-2.7-2.1-4.2c-0.4-1-0.7-2.1-1-3.1
					c-0.6-2.3-1.2-4.5-1.8-6.8c-0.1-0.4-0.3-0.9-0.5-1.3c-0.3-0.7-0.7-1.5-0.4-2.3c0.4-0.9,1.2-1.3,2-1.2c1.7,0.2,2.8,1.2,3.4,3.4
					c0.3,1.1,0.4,2.4,0.7,3.5c0.5,2.5,1.3,4.9,2.1,7.2C762.8,960.2,763,960.4,763.2,960.8z"/>
				<path class="st2" d="M745.7,912.6c-0.3-3.3,0.1-5.9,1.1-8.3c0.6-1.4,1.3-2.8,1.9-4.1c0.7-1.4,1.7-2.5,2.9-3.3
					c1.2-0.9,2.6-1.5,4.1-0.8c0.4,0.2,0.8,0.2,1.3,0.4c0.2,0.1,0.5,0.2,0.6,0.4c1,1.1,0.7,2.8-0.5,3.1c-2.4,0.6-3.6,2.8-4.7,5
					c-0.6,1.2-1.1,2.6-1.3,4.1c-0.2,1.3-0.3,2.6,0,3.9c0.3,1.4,1,2.4,2,3.1c0.6,0.4,1.3,0.9,2.1,0.8c0.6-0.1,1.1-0.3,1.4-0.9
					c0.9-1.8,2.2-2,3.7-1.5c0.1,0,0.3,0,0.4,0.1c0.5,0.1,1,0.1,1.3,1s0.4,1.6-0.1,2.4c-1.9,3-4.4,4.2-7.4,3.8
					c-0.5-0.1-1-0.2-1.5-0.3c-2.6-0.7-4.7-2.5-6.3-5.3C745.9,914.8,745.9,913.4,745.7,912.6z"/>
				<path class="st2" d="M711.8,958.4c0.1,2-0.3,3.8-1.1,5.5c-0.6,1.3-1.5,2.1-2.5,2.9c-1.2,0.9-2.6,1.3-4,1
					c-1.3-0.2-2.5-0.7-3.5-1.9c-0.6-0.8-1.3-1.6-1.8-2.5c-1.3-2.2-1.2-4.6-0.9-7c0.1-1.1,0.4-2.2,0.7-3.3c0.3-1.4,1-2.6,1.9-3.5
					c1.3-1.3,2.9-1.8,4.6-1.4c2.4,0.5,4,2.3,5.2,4.8C711.7,955.4,711.8,956.9,711.8,958.4z M704.9,952.6c-0.3,0.3-0.5,0.5-0.7,0.7
					c-1.2,1.5-1.3,3.5-1.5,5.5c0,0.2,0,0.4,0.1,0.6c0.3,0.9,0.5,1.7,0.9,2.5c0.7,1.5,1.2,1.6,2.1,0.2c1.2-1.8,1.5-5.5,0.1-7.8
					C705.6,953.7,705.3,953.2,704.9,952.6z"/>
				<path class="st2" d="M778.3,966.9c-1.9-0.1-3.8-0.7-5.3-2.4c-1.8-2-2.5-4.7-2.4-7.6c0.1-2.5,0.6-4.8,1.3-7.1
					c0.5-1.5,1-2.9,1.7-4.3c1-2,2.3-3.7,4.1-4.6c1-0.5,2.7,0,3.3,1.6c0.1,0.2,0.2,0.3,0.2,0.5c0.3,0.7,0.2,1.1-0.2,1.6
					c-0.2,0.2-0.4,0.4-0.7,0.6c-1.5,1-2.2,2.7-3.1,4.3c-0.8,1.6-1.2,3.4-1.6,5.2c-0.3,1.5-0.6,3-0.4,4.5c0,0.1,0,0.2,0,0.3
					c0.1,1,0.3,2,1.2,2.3s1.6,0.1,2.3-0.7c0.4-0.6,0.9-1.2,1.1-2c0.1-0.5,0.4-0.7,0.8-0.7c0.7-0.1,1.4-0.2,2.1,0.2
					c0.9,0.4,1.4,1.2,1.5,2.4c0,0.3,0,0.8-0.2,1.1c-0.6,1-1.3,2.1-2,2.9C781,966.1,779.7,966.9,778.3,966.9z"/>
				<path class="st2" d="M681.2,924.9c0.8-0.1,1.5-0.1,2.2-0.2c0.7,0,1.4-0.1,2.1-0.1c0.6,0,0.9,0.6,1.2,1.2
					c0.2,0.5,0.1,1.2-0.2,1.6c-1.3,1.5-2.8,2.6-4.7,2.8c-0.9,0.1-1.8,0.2-2.7,0.2c-1.6-0.1-3-1.5-3.4-3.4c-0.3-1.4-0.5-2.8-0.8-4.2
					c-0.3-2.2-0.7-4.3-1-6.5c-0.3-2-0.5-4-0.8-5.9c-0.1-0.8-0.3-1.6-0.5-2.3c-0.4-1.3-0.2-2,0.8-2.5c0.5-0.2,1-0.3,1.5-0.3
					c0.6,0,1.2,0,1.7,0.1c1.2,0.1,1.9,1.1,2.1,2.5c0.4,3.3,0.9,6.6,1.3,10c0.2,2.2,0.6,4.4,1.1,6.5
					C681,924.5,681.1,924.7,681.2,924.9z"/>
				<path class="st2" d="M771,916.1c0.5-0.2,0.9-0.3,1.2-0.5c1-0.7,2.1-0.8,3.2-1c0.3,0,0.5,0,0.8,0.1c0.5,0.1,1,0.3,1.5,0.4
					c0.6,0.1,1.1,0.5,1.5,1.1c0.7,1.1,0.4,2.4-0.7,3c-0.4,0.2-1,0.4-1.4,0.3c-1.3-0.2-2.3,0.4-3.3,1.1c-1.4,0.9-2.8,1.2-4.3,0.9
					s-2.5-1.4-3.3-3c-0.7-1.4-0.9-3-1.2-4.6c-0.3-2.2-0.7-4.3-1-6.5c-0.3-1.8-0.5-3.6-0.8-5.4c-0.1-0.5-0.2-1-0.3-1.5
					c-0.4-1.4-0.1-2.3,1.2-2.7c0.9-0.2,1.9-0.1,2.8,0.1c0.9,0.2,1.5,1.2,1.6,2.3c0.3,2.2,0.5,4.5,0.8,6.8c0.1,0.8,0.2,1.7,0.4,2.5
					c0.3,1.9,0.6,3.7,0.9,5.6C770.8,915.4,770.8,915.7,771,916.1z"/>
			</g>
		</g>
		<g>
			<polygon class="st2" points="409.6,825.4 413.5,825.4 405.8,876.3 399.1,876.3 391.3,825.4 395.3,825.4 402.4,871.9 402.5,871.9 
							"/>
			<rect x="418.3" y="825.4" class="st2" width="3.9" height="50.9"/>
			<polygon class="st2" points="445.2,825.4 449.1,825.4 441.4,876.3 434.7,876.3 427,825.4 430.9,825.4 438,871.9 438.1,871.9 			
				"/>
			<polygon class="st2" points="457.8,829.3 457.8,848.8 466.9,848.8 466.9,852.8 457.8,852.8 457.8,872.4 470.8,872.4 470.8,876.3 
				453.9,876.3 453.9,825.4 470.2,825.4 470.2,829.3 			"/>
			<polygon class="st2" points="476.1,825.4 480.9,825.4 492.9,864 493,864 493,825.4 497,825.4 497,876.3 493,876.3 480.2,835.6 
				480.1,835.6 480.1,876.3 476.1,876.3 			"/>
			<path class="st2" d="M519.8,842.4v-8c0-3.2-2.6-5.9-5.9-5.9c-3.2,0-5.9,2.6-5.9,5.9v32.8c0,3.2,2.6,5.9,5.9,5.9
				c3.2,0,5.9-2.6,5.9-5.9v-6.9h3.9v6.9c0,5.4-4.4,9.8-9.8,9.8c-5.4,0-9.8-4.4-9.8-9.8v-32.8c0-5.4,4.4-9.8,9.8-9.8
				c5.4,0,9.8,4.4,9.8,9.8v7.5L519.8,842.4z"/>
			<rect x="530.1" y="825.4" class="st2" width="3.9" height="50.9"/>
			<path class="st2" d="M561,876.3h-4l-2-13h-10.3l-2,13h-3.9l7.8-50.9h6.6L561,876.3z M545.3,859.3h9.1l-4.5-29.6h-0.2L545.3,859.3
				z"/>
			<path class="st2" d="M566.5,844.2c0,0-2.3-2.7-2.3-6.3v-3.4c0-5.4,4.4-9.8,9.8-9.8c5.4,0,9.8,4.4,9.8,9.8v6.3l-3.9,0.5v-6.8
				c0-3.2-2.6-5.9-5.9-5.9c-3.2,0-5.9,2.6-5.9,5.9v3.4c0,2.2,1.4,3.8,1.4,3.8l12,14.3c0,0,2.3,2.8,2.3,6.5v4.9
				c0,5.4-4.4,9.8-9.8,9.8c-5.4,0-9.8-4.4-9.8-9.8v-7.5l3.9-0.5v7.9c0,3.2,2.6,5.9,5.9,5.9c3.2,0,5.9-2.6,5.9-5.9v-4.9
				c0-2.2-1.4-3.9-1.4-3.9L566.5,844.2z"/>
			<g>
				<path class="st2" d="M387.9,883.8v30.9h200v-30.9H387.9z M411.7,893h-5v14.4h-1.9V893h-5v-1.7h11.9V893z M443.3,907.3l-5-7.2
					h-1.6v7.3h-1.9v-15.9c0.6-0.1,1.2-0.2,2-0.3s1.4-0.1,2.1-0.1s1.4,0.1,2,0.2c0.6,0.2,1.2,0.4,1.7,0.8c0.5,0.4,0.9,0.8,1.2,1.4
					c0.3,0.6,0.4,1.3,0.4,2.1c0,1.3-0.3,2.3-1,3.1s-1.6,1.2-2.6,1.4l5.1,7.4h-2.4V907.3z M477.7,907.3l-1.7-4.4h-5.9l-1.6,4.4h-1.9
					l6.1-16.4h0.8l6.1,16.4H477.7z M507.5,907.6h-0.8l-6.2-16.3h2.1l4.6,12.6l0,0l4.5-12.6h1.9L507.5,907.6z M545,907.3h-8.9v-16.1
					h8.7v1.7H538v5.3h6.1v1.7H538v5.7h6.9L545,907.3L545,907.3z M578.6,907.3h-9.5v-16.1h1.9v14.4h7.6V907.3z"/>
				<path class="st2" d="M442.1,895.6c0-0.8-0.3-1.5-0.8-2c-0.6-0.5-1.4-0.8-2.4-0.8h-0.6c-0.2,0-0.4,0-0.6,0s-0.4,0-0.6,0
					s-0.3,0-0.4,0.1v5.9h1.8c1.1,0,1.9-0.3,2.6-0.8C441.7,897.5,442.1,896.7,442.1,895.6z"/>
				<polygon class="st2" points="473.1,894.6 470.8,901.2 475.5,901.2 				"/>
			</g>
		</g>
		<g>
			<g>
				<path class="st2" d="M885.8,901.8V896l15.6-15.6h9.7v21.4h-7.8v-1.9h-11.7l-1.9,1.9L885.8,901.8L885.8,901.8z M903.3,896v-5.8
					l1.9-1.9v-1.9l-9.7,9.7L903.3,896L903.3,896z"/>
			</g>
			<g>
				<path class="st2" d="M885.8,901.8V896l15.6-15.6h9.7v21.4h-7.8v-1.9h-11.7l-1.9,1.9L885.8,901.8L885.8,901.8z M903.3,896v-5.8
					l1.9-1.9v-1.9l-9.7,9.7L903.3,896L903.3,896z"/>
			</g>
			<g>
				<path class="st2" d="M915,901.8l-1.9-1.9v-17.5l1.9-1.9h21.4l1.9,1.9v10.7l-2.9,2.9l2.9,2.9v2.9h-7.8l-5.8-5.8h-3.9v5.8
					L915,901.8L915,901.8z M930.6,890.2v-3.9h-11.7l1.9,1.9v1.9L930.6,890.2L930.6,890.2z"/>
			</g>
			<g>
				<path class="st2" d="M915,901.8l-1.9-1.9v-17.5l1.9-1.9h21.4l1.9,1.9v10.7l-2.9,2.9l2.9,2.9v2.9h-7.8l-5.8-5.8h-3.9v5.8
					L915,901.8L915,901.8z M930.6,890.2v-3.9h-11.7l1.9,1.9v1.9L930.6,890.2L930.6,890.2z"/>
			</g>
			<g>
				<path class="st2" d="M940.3,901.8v-21.4l7.8,7.8v7.8h7.8l1.9-1.9h5.8v5.8l-1.9,1.9L940.3,901.8L940.3,901.8z M957.9,888.2
					l-1.9-1.9h-7.8l-5.8-5.8h19.5l1.9,1.9v5.8H957.9z"/>
			</g>
			<g>
				<path class="st2" d="M940.3,901.8v-21.4l7.8,7.8v7.8h7.8l1.9-1.9h5.8v5.8l-1.9,1.9L940.3,901.8L940.3,901.8z M957.9,888.2
					l-1.9-1.9h-7.8l-5.8-5.8h19.5l1.9,1.9v5.8H957.9z"/>
			</g>
			<g>
				<path class="st2" d="M967.6,901.8l-1.9-1.9v-17.5l1.9-1.9h3.9V896h9.7l4.9,4.9l-1,1h-17.5V901.8z M987.1,899.9l-5.8-5.8v-13.6
					h5.8V899.9z"/>
			</g>
			<g>
				<path class="st2" d="M967.6,901.8l-1.9-1.9v-17.5l1.9-1.9h3.9V896h9.7l4.9,4.9l-1,1h-17.5V901.8z M987.1,899.9l-5.8-5.8v-13.6
					h5.8V899.9z"/>
			</g>
			<g>
				<path class="st2" d="M999.7,901.8L989,880.4h6.8l8.8,17.5h1l-1.9,3.9L999.7,901.8L999.7,901.8z M1004.6,896l-2.9-5.8h1l4.9-9.7
					h6.8l-7.8,15.6L1004.6,896L1004.6,896z"/>
			</g>
			<g>
				<path class="st2" d="M999.7,901.8L989,880.4h6.8l8.8,17.5h1l-1.9,3.9L999.7,901.8L999.7,901.8z M1004.6,896l-2.9-5.8h1l4.9-9.7
					h6.8l-7.8,15.6L1004.6,896L1004.6,896z"/>
			</g>
			<g>
				<path class="st2" d="M1010.1,902.1v-5.8l15.6-15.6h9.7v21.4h-7.8v-1.9h-11.7l-1.9,1.9L1010.1,902.1L1010.1,902.1z M1027.6,896.3
					v-5.8l1.9-1.9v-1.9l-9.7,9.7L1027.6,896.3L1027.6,896.3z"/>
			</g>
			<g>
				<path class="st2" d="M1010.1,902.1v-5.8l15.6-15.6h9.7v21.4h-7.8v-1.9h-11.7l-1.9,1.9L1010.1,902.1L1010.1,902.1z M1027.6,896.3
					v-5.8l1.9-1.9v-1.9l-9.7,9.7L1027.6,896.3L1027.6,896.3z"/>
			</g>
			<g>
				<path class="st2" d="M1065.9,901.8l-10.7-21.4h6.8l8.8,17.5h1l-1.9,3.9H1065.9z M1070.8,896l-2.9-5.8h1l4.9-9.7h6.8l-7.8,15.6
					L1070.8,896L1070.8,896z"/>
			</g>
			<g>
				<path class="st2" d="M1065.9,901.8l-10.7-21.4h6.8l8.8,17.5h1l-1.9,3.9H1065.9z M1070.8,896l-2.9-5.8h1l4.9-9.7h6.8l-7.8,15.6
					L1070.8,896L1070.8,896z"/>
			</g>
			<g>
				<path class="st2" d="M1082.5,901.8v-21.4l7.8,7.8v1.9h9.7v-1.9l-1.9-1.9h-7.8l-5.8-5.8h19.5l1.9,1.9V894l-1.9,1.9h-13.6v5.8
					L1082.5,901.8L1082.5,901.8z"/>
			</g>
			<g>
				<path class="st2" d="M1082.5,901.8v-21.4l7.8,7.8v1.9h9.7v-1.9l-1.9-1.9h-7.8l-5.8-5.8h19.5l1.9,1.9V894l-1.9,1.9h-13.6v5.8
					L1082.5,901.8L1082.5,901.8z"/>
			</g>
			<rect x="1055.2" y="876.1" class="st2" width="6.7" height="3.4"/>
			<rect x="1055.2" y="876.1" class="st2" width="6.7" height="3.4"/>
			<rect x="1073.8" y="876.1" class="st2" width="6.7" height="3.4"/>
			<rect x="1073.8" y="876.1" class="st2" width="6.7" height="3.4"/>
			<path class="st2" d="M966.7,868.1c2.6-0.4,7.7-2.6,10.1-3.7c1.4-0.6,2.2-0.7,3.6-1.3l13.9-5.7c4.7-1.9,8.7-3.6,13.6-5.5
				c4.4-1.7,11.8-5.8,14-4.4c-0.4,2.3-8.5,5.7-12.3,7.9l-39.7,21.9c0.4,0.1,25.9-10.5,30-12.1l27.1-11.1c2.9-1.1,2.4-1.3,4,0.5
				c-1.9,2.9-38.5,21-44.6,25.6c3.7-0.5,42.4-17.3,49.6-20c2.1-0.8,2.2-0.5,3.7,0.7l10.3,7.3l-8.9-10c3.5-1.1,3.3-2.3,6.1-0.1
				c2.7,2.1,15.8,12.3,17.9,13.1c-1.1-2.7-1.1-1.9-3.6-4.7l-9.3-9.8c-1.6-1.6-1.2-0.3-1.5-2.4c3.3,0.2,22.8,17.5,29.3,20.9
				c-1.3-2.9-4.5-5.1-6.7-7.8l-21.4-23c-3,0.6-5,2.7-7.8,3.7c-2.6-2.1-3.9-4.7-6.6-7.1c-3.6,0.5-5.9,3.5-9.6,4.3
				c-1.7-2.4-4-5.8-6.5-7.9L966.7,868.1z"/>
			<path class="st2" d="M911.8,868c2.6-0.4,7.7-2.6,10.1-3.7c1.4-0.6,2.2-0.7,3.6-1.3l13.9-5.7c4.7-1.9,8.7-3.6,13.6-5.5
				c4.4-1.7,11.8-5.8,14-4.4c-0.4,2.3-8.5,5.7-12.3,7.9L915,877.2c0.4,0.1,25.9-10.5,30-12.1l27.1-11.1c2.9-1.1,2.4-1.3,4,0.5
				c-1.9,2.9-38.5,21-44.6,25.6c3.7-0.5,42.4-17.3,49.6-20c2.1-0.8,2.2-0.5,3.7,0.7l10.3,7.3l-8.9-10c3.5-1.1,3.3-2.3,6.1-0.1
				c2.7,2.1,15.8,12.3,17.9,13.1c-1.1-2.7-1.1-1.9-3.6-4.7l-9.3-9.8c-1.6-1.6-1.2-0.3-1.5-2.4c3.3,0.2,22.8,17.5,29.3,20.9
				c-1.3-2.9-4.5-5.1-6.7-7.8l-21.4-23c-3,0.6-5,2.7-7.8,3.7c-2.6-2.1-3.9-4.7-6.6-7.1c-3.6,0.5-5.9,3.5-9.6,4.3
				c-1.7-2.4-4-5.8-6.5-7.9L911.8,868z"/>
		</g>
	</g>
	<g>
		<path class="st3" d="M565.1,735.1c-1.7,0-3.3-0.3-4.6-0.9c-1.3-0.6-2.5-1.5-3.4-2.8s-1.6-2.9-2.1-4.9s-0.7-4.4-0.7-7.2
			s0.2-5.2,0.7-7.2s1.2-3.6,2.1-4.9c0.9-1.3,2.1-2.2,3.4-2.8c1.3-0.6,2.9-0.9,4.6-0.9c2.1,0,3.8,0.6,5.3,1.7
			c1.5,1.1,2.5,2.6,3.2,4.5l-0.8,0.3c-0.6-1.8-1.5-3.1-2.9-4.1c-1.3-1-2.9-1.5-4.8-1.5c-3.2,0-5.6,1.1-7.3,3.4
			c-1.7,2.3-2.5,5.7-2.5,10.2v2.8c0,4.5,0.8,7.9,2.5,10.2s4.1,3.4,7.3,3.4c1.9,0,3.5-0.5,4.8-1.5s2.3-2.4,2.9-4.1l0.8,0.3
			c-0.7,1.9-1.7,3.4-3.2,4.5C568.9,734.5,567.2,735.1,565.1,735.1z"/>
		<path class="st3" d="M590.4,735.1c-1.6,0-3-0.3-4.3-0.9c-1.2-0.6-2.3-1.5-3.2-2.8s-1.5-2.9-2-4.9c-0.4-2-0.7-4.4-0.7-7.2
			s0.2-5.2,0.7-7.2c0.4-2,1.1-3.6,2-4.9c0.9-1.3,1.9-2.2,3.2-2.8c1.2-0.6,2.7-0.9,4.3-0.9s3,0.3,4.3,0.9c1.2,0.6,2.3,1.5,3.1,2.8
			c0.9,1.3,1.5,2.9,2,4.9s0.7,4.4,0.7,7.2s-0.2,5.2-0.7,7.2s-1.1,3.6-2,4.9c-0.9,1.3-1.9,2.2-3.1,2.8
			C593.4,734.8,592,735.1,590.4,735.1z M590.4,734.2c2.9,0,5.2-1.1,6.7-3.4c1.5-2.3,2.3-5.7,2.3-10.2v-2.8c0-4.5-0.8-7.9-2.3-10.2
			s-3.8-3.4-6.7-3.4s-5.2,1.1-6.7,3.4c-1.5,2.3-2.3,5.7-2.3,10.2v2.8c0,4.5,0.8,7.9,2.3,10.2S587.4,734.2,590.4,734.2z"/>
		<path class="st3" d="M608.9,705.2L608.9,705.2l-0.1,29.4h-0.9v-30.7h1.4l15.3,29.4h0.1v-29.4h0.9v30.7h-1.4L608.9,705.2z"/>
		<path class="st3" d="M661.1,734.5v-30.7H679v0.9h-17v13.8h16.3v0.9H662v14.2h16.9v0.9L661.1,734.5L661.1,734.5z"/>
		<path class="st3" d="M689.1,734.5v-30.7h1v29.8h15.8v0.9H689.1z"/>
		<path class="st3" d="M758.6,734.5l-3.4-10.2h-12.9l-3.4,10.2h-1l10.2-30.7h1.3l10.2,30.7H758.6z M748.7,705L748.7,705l-6.2,18.5
			h12.4L748.7,705z"/>
		<path class="st3" d="M766.6,734.5v-30.7h10.7c2.5,0,4.4,0.7,5.7,2.2s1.9,3.5,1.9,6s-0.6,4.5-1.9,6c-1.3,1.5-3.2,2.2-5.7,2.2h-9.8
			v14.2L766.6,734.5L766.6,734.5z M767.6,719.5h9.8c1.1,0,2.1-0.2,2.9-0.5s1.5-0.8,2-1.4c0.5-0.6,0.9-1.3,1.2-2
			c0.3-0.8,0.4-1.6,0.4-2.4v-1.8c0-0.8-0.1-1.6-0.4-2.4c-0.3-0.8-0.7-1.5-1.2-2.1s-1.2-1.1-2-1.4c-0.8-0.4-1.8-0.5-2.9-0.5h-9.8
			V719.5z"/>
		<path class="st3" d="M801.4,735.1c-1.6,0-3-0.3-4.3-0.9c-1.2-0.6-2.3-1.5-3.2-2.8s-1.5-2.9-2-4.9c-0.4-2-0.7-4.4-0.7-7.2
			s0.2-5.2,0.7-7.2c0.4-2,1.1-3.6,2-4.9c0.9-1.3,1.9-2.2,3.2-2.8c1.2-0.6,2.7-0.9,4.3-0.9s3,0.3,4.3,0.9c1.2,0.6,2.3,1.5,3.1,2.8
			c0.9,1.3,1.5,2.9,2,4.9s0.7,4.4,0.7,7.2s-0.2,5.2-0.7,7.2s-1.1,3.6-2,4.9c-0.9,1.3-1.9,2.2-3.1,2.8
			C804.5,734.8,803,735.1,801.4,735.1z M801.4,734.2c2.9,0,5.2-1.1,6.7-3.4c1.5-2.3,2.3-5.7,2.3-10.2v-2.8c0-4.5-0.8-7.9-2.3-10.2
			s-3.8-3.4-6.7-3.4s-5.2,1.1-6.7,3.4c-1.5,2.3-2.3,5.7-2.3,10.2v2.8c0,4.5,0.8,7.9,2.3,10.2C796.3,733.1,798.5,734.2,801.4,734.2z"
			/>
		<path class="st3" d="M827.3,734.5v-12.9l-11.5-17.8h1.1l10.8,16.7h0.1l10.8-16.7h1.1l-11.5,17.8v12.9H827.3z"/>
		<path class="st3" d="M854.2,735.1c-1.6,0-3-0.3-4.3-0.9c-1.2-0.6-2.3-1.5-3.2-2.8s-1.5-2.9-2-4.9c-0.4-2-0.7-4.4-0.7-7.2
			s0.2-5.2,0.7-7.2c0.4-2,1.1-3.6,2-4.9c0.9-1.3,1.9-2.2,3.2-2.8c1.2-0.6,2.7-0.9,4.3-0.9s3,0.3,4.3,0.9c1.2,0.6,2.3,1.5,3.1,2.8
			c0.9,1.3,1.5,2.9,2,4.9s0.7,4.4,0.7,7.2s-0.2,5.2-0.7,7.2s-1.1,3.6-2,4.9c-0.9,1.3-1.9,2.2-3.1,2.8
			C857.2,734.8,855.8,735.1,854.2,735.1z M854.2,734.2c2.9,0,5.2-1.1,6.7-3.4c1.5-2.3,2.3-5.7,2.3-10.2v-2.8c0-4.5-0.8-7.9-2.3-10.2
			s-3.8-3.4-6.7-3.4s-5.2,1.1-6.7,3.4c-1.5,2.3-2.3,5.7-2.3,10.2v2.8c0,4.5,0.8,7.9,2.3,10.2S851.3,734.2,854.2,734.2z"/>
		<path class="st3" d="M898.5,703.9h8c3.7,0,6.4,1.3,8,3.8c1.6,2.6,2.5,6.4,2.5,11.5s-0.8,8.9-2.5,11.5c-1.6,2.6-4.3,3.8-8,3.8h-8
			V703.9z M906.6,733.7c1.6,0,3-0.3,4.2-0.9c1.2-0.6,2.1-1.5,2.9-2.6c0.8-1.1,1.3-2.5,1.7-4.1s0.5-3.5,0.5-5.5v-2.8
			c0-2-0.2-3.8-0.5-5.5c-0.4-1.6-0.9-3-1.7-4.1s-1.7-2-2.9-2.6s-2.6-0.9-4.2-0.9h-7.1v28.9L906.6,733.7L906.6,733.7z"/>
		<path class="st3" d="M924.9,734.5v-30.7h17.9v0.9h-16.9v13.8h16.3v0.9h-16.3v14.2h16.9v0.9L924.9,734.5L924.9,734.5z"/>
	</g>
</g>
</svg>
