<?xml version="1.0" encoding="utf-8"?>
<!-- Generator: Adobe Illustrator 22.0.0, SVG Export Plug-In . SVG Version: 6.00 Build 0)  -->
<svg version="1.1" id="Layer_1" xmlns="http://www.w3.org/2000/svg" xmlns:xlink="http://www.w3.org/1999/xlink" x="0px" y="0px"
	 viewBox="0 0 1600 1200" style="enable-background:new 0 0 1600 1200;" xml:space="preserve">
<style type="text/css">
	.st0{fill:none;stroke:#FFFFFF;stroke-width:3;stroke-miterlimit:10;}
	.st1{fill:none;stroke:#D9AE2E;stroke-width:3;stroke-miterlimit:10;}
	.st2{fill:#FCF8F0;}
</style>
<title>pointing</title>
<rect x="206.7" y="158.6" class="st0" width="1095.3" height="548.2"/>
<circle class="st1" cx="1301.9" cy="347.4" r="124.7"/>
<g>
	<g>
		<g>
			<path class="st2" d="M1014.3,936.7c-6.7,0-12.3-2.1-16.9-6.4c-4.6-4.3-6.9-9.7-6.9-16.2c0-6.4,2.3-11.8,7-16.1
				c4.6-4.4,10.4-6.5,17.4-6.5c8.2,0,14.7,3.1,19.4,9.2l-9.4,6.8c-2.9-3.4-6.2-5-10.2-5c-3.2,0-5.9,1.1-7.9,3.4
				c-2.1,2.2-3.1,5-3.1,8.3s1,6.1,3.1,8.3s4.7,3.3,7.9,3.3c2.2,0,4.2-0.4,5.7-1.3c1.6-0.9,3.1-2.2,4.7-4l9.6,6.5
				c-2.4,3.1-5.2,5.5-8.5,7.3C1023.1,935.8,1019,936.7,1014.3,936.7z"/>
			<path class="st2" d="M1061,936.6c-6.8,0-12-1.7-15.8-5c-3.7-3.3-5.6-8.3-5.6-14.9v-24.5h13v24.2c0,3.1,0.8,5.4,2.3,6.9
				c1.5,1.6,3.6,2.3,6.2,2.3s4.7-0.7,6.2-2.2s2.3-3.7,2.3-6.7v-24.5h13v24.1c0,6.8-1.9,11.9-5.7,15.2
				C1073.1,934.9,1067.8,936.6,1061,936.6z"/>
			<path class="st2" d="M1090.2,935.8v-43.6h12.8v33h22.4v10.6H1090.2z"/>
			<path class="st2" d="M1135.6,935.8v-33h-13.9v-10.6h40.5v10.6h-13.9v33H1135.6z"/>
			<path class="st2" d="M1188.6,936.6c-6.8,0-12-1.7-15.8-5c-3.7-3.3-5.6-8.3-5.6-14.9v-24.5h13v24.2c0,3.1,0.8,5.4,2.3,6.9
				c1.5,1.6,3.6,2.3,6.2,2.3s4.7-0.7,6.2-2.2s2.3-3.7,2.3-6.7v-24.5h13v24.1c0,6.8-1.9,11.9-5.7,15.2
				C1200.8,934.9,1195.5,936.6,1188.6,936.6z"/>
			<path class="st2" d="M1217.9,935.8v-43.6h21.8c6.7,0,11.7,1.6,15.1,4.7c2.7,2.6,4.1,6,4.1,10.3c0,6.4-3.2,10.8-9.5,13.4l11,15.2
				h-14.8l-9.3-13.2h-5.6v13.2L1217.9,935.8L1217.9,935.8z M1230.7,913.1h8.4c2.2,0,3.8-0.5,5-1.4s1.8-2.2,1.8-3.9s-0.6-3-1.8-3.9
				c-1.2-0.9-2.9-1.3-5.1-1.3h-8.4L1230.7,913.1L1230.7,913.1z"/>
			<path class="st2" d="M1260.9,935.8l19.7-43.9h12.3l19.7,43.9h-13.7l-3.4-7.8h-17.8l-3.3,7.8H1260.9z M1281.4,918.6h10.4
				l-5.1-12.4L1281.4,918.6z"/>
		</g>
		<g>
			<path class="st2" d="M935.7,921.4c1.2-2,2.1-4,2.8-6.2c0.4-0.7,0.6-1.5,0.7-2.3c0.7-1.5,1-3.1,1.3-4.7c0.1-0.7,0.4-1.3,0.3-2
				c0.4-1.3,0.4-2.7,0.5-4.1c0-0.4,0-0.9,0-1.3c0.1-1.3,0.1-2.6-0.2-3.8c0-0.4-0.1-0.7-0.1-1.1c-0.1-1.1-0.2-2.2-0.7-3.3
				c0-0.4,0-0.7-0.3-1c-0.2-1-0.5-2-1-2.9c-0.1-0.5-0.2-0.9-0.6-1.3c-0.2-0.8-0.7-1.5-1.2-2.2c-0.2-0.4-0.4-0.8-0.7-1.1
				c-0.3-0.7-0.8-1.4-1.4-2c-0.2-0.3-0.5-0.6-0.7-0.9c-0.5-0.7-1-1.4-1.8-1.9c-0.2-0.3-0.5-0.6-0.8-0.8c-0.6-0.7-1.3-1.3-2.2-1.8
				c-0.2-0.3-0.5-0.5-0.8-0.6c-0.7-0.6-1.4-1.1-2.2-1.4c-0.4-0.2-0.8-0.5-1.1-0.7c-0.7-0.4-1.4-0.9-2.2-1.1c-0.5-0.4-1-0.6-1.7-0.7
				c-0.7-0.4-1.5-0.7-2.4-0.8c-0.3-0.3-0.6-0.2-1-0.3c-1.2-0.5-2.4-0.7-3.7-0.9c-0.4,0-0.7-0.1-1.1-0.1c-1.3-0.4-2.5-0.3-3.8-0.2
				c-0.5,0-0.9,0-1.4,0c-1.6,0-3.1,0.2-4.6,0.5c-0.6,0.1-1.3,0.2-1.9,0.3c-2,0.4-3.9,0.8-5.7,1.7c-0.2,0-0.4,0-0.5,0.2l0,0
				c-1.1,0.3-2.1,0.8-3,1.4c-2.5,1.3-4.6,3.1-6.6,4.9c-3.7,3.4-7.2,7.1-11.3,10.1c-1.7,1.3-3.5,2.6-5.5,3.5c-0.5,0-0.9,0-1.4,0
				c-0.8-0.3-1.6-0.7-2.2-1.3c-0.2-0.5-0.5-1-0.7-1.4c-0.1-1.6,0.7-2.8,2.2-3.7c3.4-2,6.3-4.6,9.1-7.3c3.7-3.5,7.3-7,11.5-9.9
				c0.1-0.1,0.2-0.1,0.3-0.2l0,0c0.2,0,0.4-0.1,0.5-0.3l0,0c1-0.5,2-1,3-1.6c2.1-0.8,4.2-1.5,6.3-2.3c0.6-0.1,1.3-0.3,1.9-0.4
				c1.6-0.3,3.3-0.6,4.9-0.8c0.5,0,1.1-0.1,1.6-0.1c1.4-0.1,2.7-0.2,4.1-0.2c0.5,0,0.9,0,1.4,0c1.3,0.1,2.5,0.2,3.8,0.4
				c0.3,0.2,0.7,0.2,1.1,0.2c1.1,0.2,2.2,0.5,3.3,0.7c0.3,0.2,0.7,0.3,1.1,0.3c1,0.3,2,0.7,3,1c0.3,0.3,0.7,0.4,1.1,0.5
				c0.8,0.4,1.6,0.7,2.4,1.1c0.4,0.2,0.7,0.4,1.1,0.6c0.7,0.4,1.4,0.8,2.2,1.2c0.4,0.2,0.8,0.5,1.2,0.7c0.7,0.5,1.4,1,2.2,1.5
				c0.2,0.2,0.5,0.4,0.7,0.6c0.7,0.6,1.3,1.2,2,1.8c0.4,0.3,0.7,0.7,1.1,1c0.5,0.6,1.1,1.2,1.6,1.8c0.3,0.3,0.6,0.7,0.8,1
				c0.5,0.6,0.9,1.2,1.4,1.8c0.3,0.4,0.5,0.7,0.8,1.1c0.5,0.8,0.9,1.5,1.4,2.3c0.1,0.3,0.3,0.5,0.4,0.8c0.4,0.9,0.9,1.8,1.3,2.8
				c0.1,0.3,0.2,0.5,0.3,0.8c0.3,1,0.7,2,1,3c0.1,0.3,0.2,0.7,0.3,1c0.2,1,0.5,2.1,0.7,3.1c0,0.3,0.1,0.7,0.1,1
				c0.1,1.2,0.2,2.4,0.3,3.6c0,0.4,0,0.9,0.1,1.3c0,1.4-0.1,2.7-0.1,4.1c-0.1,0.4-0.1,0.9-0.2,1.3c-0.2,1.5-0.5,3.1-0.7,4.6
				c-0.3,0.5-0.2,1-0.4,1.5c-0.6,1.8-1.1,3.6-1.7,5.4c-0.2,0.7-0.5,1.4-0.7,2c-1.1,2.2-2.1,4.5-3.2,6.7c-0.6,0.9-1.1,1.9-1.7,2.8
				c-0.1,0.1-0.1,0.2-0.2,0.3c-0.2,0.1-0.3,0.3-0.3,0.5c-3.2,4.5-6.8,8.6-11.2,12.1c-1.9,1.5-3.9,2.7-5.9,4.1
				c-0.2,0-0.4,0.1-0.5,0.3c-0.1,0.1-0.2,0.1-0.3,0.2c-0.9,0.4-1.8,0.9-2.7,1.3c-1.4,0.6-2.7,0.6-4.1-0.1c-0.2-0.2-0.4-0.3-0.5-0.5
				c-0.5-0.8-0.9-1.6-0.9-2.5c0.2-0.6,0.4-1.2,0.7-1.8c0.3-0.2,0.5-0.5,0.8-0.7c0.7-0.3,1.5-0.5,2.2-1c0.2-0.1,0.4-0.2,0.6-0.3l0,0
				c7.1-3.8,12.5-9.1,16.6-15.6l0,0c0.2-0.1,0.3-0.3,0.3-0.5l0,0c0.1-0.1,0.1-0.2,0.2-0.3c0.5-0.6,0.9-1.3,1.1-2l0,0
				C935.7,921.9,935.7,921.6,935.7,921.4z"/>
			<path class="st2" d="M917.7,934c-0.2,0.1-0.4,0.3-0.6,0.4c-1.8,1.3-3.6,2.5-5.4,3.8c-3.3,1.9-6.5,3.9-9.8,5.8
				c-0.2,0-0.4,0.1-0.5,0.3l0,0c-1,0.5-2,1-3,1.5c-1.2,0.5-2.4,1-3.5,1.6c-0.8,0.4-1.6,0.5-2.5,0.5c-0.3-0.1-0.7-0.2-1-0.4
				c-0.8-0.5-1.4-1.1-1.8-1.9c-0.1-0.3-0.1-0.7-0.2-1c0.2-1.7,1.3-2.8,3-3.4c0.5-0.2,0.9-0.5,1.4-0.7c0.2,0,0.4-0.1,0.5-0.3l0,0
				c1.1-0.3,2-0.9,3-1.5c3.4-1.7,6.7-3.5,9.8-5.7c0.1-0.1,0.2-0.2,0.3-0.2l0,0c0.2-0.1,0.3-0.2,0.5-0.3l0,0c1.6-0.9,3-1.9,4.4-3
				c0.2-0.1,0.3-0.2,0.5-0.4c0.4-0.1,0.6-0.4,0.9-0.7c3.3-2.4,6.3-5.1,8.7-8.3c0.1-0.1,0.1-0.2,0.2-0.3c0.1-0.2,0.2-0.3,0.3-0.5l0,0
				c0.1-0.1,0.2-0.2,0.3-0.3c0.8-0.9,1.4-1.8,1.9-2.8l0,0c0.2-0.1,0.3-0.3,0.3-0.5c1.3-2,2.2-4.1,2.7-6.4c0.3-0.5,0.3-1,0.4-1.5
				c0.4-1.5,0.7-3,0.6-4.6c0-0.4,0-0.9,0-1.3c0.1-1.2,0.1-2.4-0.2-3.6c0-0.3-0.1-0.7-0.1-1c-0.2-1.3-0.4-2.5-1-3.7
				c0-0.3,0-0.6-0.3-0.8c-0.2-0.8-0.6-1.6-1.1-2.3c-0.1-0.4-0.3-0.7-0.6-1c-0.4-0.9-1.1-1.7-1.9-2.4c-0.1-0.3-0.3-0.5-0.6-0.6
				c-0.6-0.6-1.2-1.2-2.1-1.6c-0.3-0.4-0.7-0.6-1.2-0.7c-0.8-0.5-1.7-0.9-2.7-1.1c-0.4-0.3-0.9-0.4-1.4-0.4
				c-1.1-0.3-2.1-0.4-3.3-0.4c-0.5-0.2-0.9-0.2-1.4-0.1c-1.6,0-3.1,0.1-4.6,0.5c-0.6,0.1-1.1,0.1-1.6,0.4c-2.6,0.5-4.9,1.4-7.1,2.8
				c-0.1,0.1-0.2,0.1-0.3,0.2l0,0c-0.2,0.1-0.3,0.2-0.5,0.3l0,0c-2.1,1.1-3.9,2.8-5.6,4.4c-3.5,3.3-6.9,6.6-10.7,9.6
				c-3.1,2.2-6.4,4.1-9.8,5.7c-0.2,0.1-0.4,0.2-0.6,0.3l0,0c-0.7,0.2-1.5,0.5-2.1,0.8c-1.3,0.4-2.6,0.3-3.8-0.4
				c-0.2-0.2-0.4-0.3-0.5-0.5c-0.5-0.8-0.9-1.7-0.8-2.7c0.4-1.7,1.9-2.4,3.4-3c3.5-1.3,6.7-3.1,9.6-5.3c0.1-0.1,0.2-0.2,0.3-0.3l0,0
				c0.1-0.1,0.2-0.1,0.3-0.2l0,0c0.2-0.1,0.3-0.2,0.5-0.4c0.2-0.1,0.4-0.3,0.6-0.4c1-0.5,1.7-1.3,2.5-2c4.2-3.8,8-7.9,12.8-11.1
				c2.4-1.5,5-2.5,7.6-3.7c0.7,0.1,1.3-0.2,1.9-0.5c1.7-0.3,3.4-0.7,5.2-1c0.5,0,1.1-0.1,1.6-0.1c1.4,0,2.9,0,4.3,0
				c0.3,0,0.6,0,0.8,0c1.2,0.2,2.3,0.4,3.5,0.6c0.5,0.1,0.9,0.3,1.4,0.4c0.8,0.3,1.6,0.6,2.4,0.8c0.4,0.2,0.8,0.4,1.1,0.5
				c0.7,0.4,1.4,0.8,2.2,1.2c0.4,0.3,0.7,0.5,1.1,0.8c0.7,0.6,1.4,1.2,2.2,1.8c0.2,0.2,0.3,0.3,0.5,0.5c0.6,0.7,1.1,1.3,1.7,2
				c0.3,0.4,0.5,0.7,0.8,1.1c0.5,0.9,1,1.7,1.5,2.6c0.1,0.2,0.2,0.4,0.3,0.5c0.4,0.9,0.8,1.9,1.2,2.8c0,0.5,0.2,1,0.5,1.4
				c0.2,0.9,0.4,1.8,0.6,2.7c0,0.4-0.1,0.7,0.2,1c0.1,1.2,0.2,2.4,0.3,3.6c0,0.4,0,0.9,0,1.3c-0.1,1.3-0.1,2.6-0.2,3.8
				c0,0.5-0.1,1-0.1,1.5c-0.4,1.6-0.7,3.2-1.1,4.9c-0.3,0.5-0.5,1.2-0.6,1.8c-1,2.3-2,4.5-3.2,6.7c-0.9,1.3-1.8,2.5-2.7,3.8
				c-0.1,0.1-0.1,0.2-0.2,0.3c-0.1,0.1-0.3,0.3-0.4,0.4l0.1,0.1v-0.1c-0.1,0.1-0.2,0.2-0.2,0.3l0,0c-0.1,0.1-0.2,0.2-0.3,0.3
				c-2.6,2.8-5.4,5.4-8.4,7.9c-0.1,0.1-0.2,0.2-0.3,0.3l0,0c-0.1,0.1-0.2,0.2-0.3,0.2h0.1h-0.1C918,933.7,917.9,933.9,917.7,934z"/>
			<path class="st2" d="M958.7,885.3c0.2,0.9,0.4,1.9,0.6,2.8c0.1,0.4,0.2,0.9,0.3,1.3c0.2,1.2,0.3,2.4,0.5,3.5
				c0,0.4-0.1,0.7,0.2,1.1c0,1.3,0.1,2.5,0.1,3.8c0,0.3,0,0.7,0,1c-0.1,1.4-0.1,2.7-0.2,4.1c-0.2,0.5-0.2,1-0.1,1.5
				c-0.2,1.5-0.5,2.9-0.7,4.4c-0.1,0.5-0.2,1-0.3,1.5c-0.4,1.7-0.9,3.4-1.3,5.2c-0.2,0.6-0.4,1.2-0.5,1.8c-0.7,2-1.5,3.9-2.2,5.9
				c-0.2,0.6-0.5,1.2-0.7,1.8l0,0c-0.2,0.1-0.3,0.3-0.3,0.5c-0.9,1.8-1.8,3.5-2.7,5.3c-1.2,2.3-2.5,2.8-5.1,2.1
				c-0.3-0.2-0.6-0.4-0.9-0.6c-0.5-0.7-0.9-1.5-0.9-2.3c0.1-0.4,0.1-0.8,0.2-1.2l0,0c0.1-0.2,0.2-0.4,0.3-0.5
				c1.3-2.2,2.4-4.4,3.2-6.7c0.4-0.6,0.7-1.3,0.8-2l0,0c0.2-0.1,0.3-0.3,0.2-0.5c0.8-1.7,1.3-3.4,1.8-5.2c0.2-0.7,0.4-1.3,0.5-2
				c0.5-1.6,0.8-3.3,1.1-4.9c0.1-0.5,0.1-1,0.2-1.5c0.3-1.4,0.5-2.9,0.4-4.4c0-0.4,0-0.9,0-1.3c0.2-1.3,0.1-2.6,0-3.8
				c0-0.3,0-0.7,0-1c0-1.2-0.1-2.4-0.5-3.6c0-0.4,0.1-0.7-0.2-1c0-1.1-0.4-2-0.7-3.1c-0.1-0.4-0.2-0.7-0.4-1.1c-0.2-1-0.5-1.9-1-2.8
				c-0.2-0.3-0.3-0.7-0.5-1c-0.2-0.9-0.7-1.8-1.3-2.6c-0.2-0.3-0.4-0.7-0.6-1c-0.3-0.8-0.8-1.6-1.4-2.2c-0.2-0.4-0.4-0.8-0.8-1.1
				c-0.4-0.8-1-1.5-1.6-2c-0.1-0.2-0.3-0.3-0.4-0.5c-0.5-0.8-1.2-1.5-2-2c-0.3-0.3-0.6-0.5-0.8-0.8c-0.6-0.7-1.3-1.4-2.2-1.8
				c-0.3-0.2-0.6-0.4-0.8-0.7c-0.6-0.5-1.2-1-1.9-1.3c-0.3-0.3-0.7-0.6-1.1-0.7c-0.8-0.6-1.7-1.2-2.7-1.5c-0.3-0.2-0.5-0.3-0.8-0.5
				c-0.8-0.4-1.5-0.9-2.4-1.1c-0.3-0.3-0.7-0.4-1.1-0.5c-0.9-0.5-1.9-0.9-3-1.1c-0.3-0.1-0.6-0.2-0.9-0.3c-1.1-0.3-2.1-0.7-3.2-0.8
				c-0.3-0.2-0.7-0.3-1.1-0.3c-1.2-0.3-2.3-0.5-3.5-0.5c-0.4,0-0.9-0.1-1.3-0.1c-1.4-0.3-2.7-0.2-4.1-0.1c-0.5,0-0.9,0-1.4,0
				c-1.6,0-3.1,0.2-4.6,0.5c-0.5,0.1-1.1,0.2-1.6,0.3c-1.9,0.3-3.7,0.7-5.5,1.4c-0.8,0.1-1.6,0.4-2.4,0.7c-2.3,0.8-4.5,1.6-6.6,2.7
				c-0.2,0-0.4,0.1-0.5,0.3c-0.1,0-0.2,0.1-0.3,0.1c-1,0.5-2,1-3,1.5c-2.1,1-4,2.2-5.9,3.6c-0.9,0.7-1.9,1.2-3.1,1.4
				c-0.4-0.1-0.7-0.1-1.1-0.2c-0.8-0.4-1.4-0.9-1.9-1.6c-0.1-0.3-0.3-0.7-0.4-1c-0.1-1.5,0.6-2.7,1.9-3.6c2.1-1.3,4.1-2.7,6.2-4
				c0.2-0.1,0.4-0.2,0.5-0.3l0,0c1-0.4,2-0.9,3-1.5c2.4-1,4.7-2,7.1-3.1c0.7-0.2,1.4-0.5,2.2-0.7c1.9-0.5,3.8-1.1,5.7-1.6
				c0.6-0.1,1.3-0.2,1.9-0.4c1.6-0.3,3.3-0.5,4.9-0.8c0.5-0.1,0.9-0.1,1.4-0.2c1.4-0.1,2.9-0.1,4.3-0.2c0.4,0,0.9,0,1.3,0
				c1.3,0.3,2.5,0.2,3.8,0.2c0.4,0.2,0.9,0.2,1.4,0.2c1.1,0.2,2.2,0.3,3.3,0.5c0.4,0.1,0.7,0.2,1.1,0.2c1.1,0.3,2.2,0.5,3.2,0.8
				c0.3,0.2,0.7,0.3,1.1,0.3c1,0.4,2,0.7,3,1.1c0.3,0.1,0.6,0.2,0.9,0.4c0.8,0.4,1.6,0.7,2.4,1.1c0.5,0.2,0.9,0.5,1.4,0.7
				c0.7,0.4,1.4,0.7,2.1,1.1c0.4,0.2,0.8,0.5,1.1,0.7c0.7,0.4,1.4,0.9,2.2,1.3c0.3,0.2,0.6,0.4,0.9,0.6c0.8,0.6,1.6,1.2,2.3,1.7
				c0.2,0.3,0.4,0.4,0.7,0.6c0.7,0.6,1.3,1.2,2,1.8c0.4,0.3,0.7,0.7,1.1,1c0.6,0.6,1.2,1.3,1.9,1.9c0.1,0.3,0.3,0.5,0.6,0.7
				c0.6,0.7,1.2,1.5,1.8,2.2c0.2,0.2,0.4,0.5,0.5,0.7c0.5,0.7,1,1.5,1.5,2.2c0.2,0.4,0.5,0.7,0.7,1.1c0.4,0.7,0.8,1.3,1.1,2
				c0.2,0.3,0.4,0.7,0.5,1c0.4,0.9,0.8,1.7,1.1,2.6c0.2,0.3,0.3,0.7,0.5,1c0.3,0.9,0.6,1.7,0.9,2.6
				C958.4,884.4,958.5,884.9,958.7,885.3z"/>
			<path class="st2" d="M892.7,935.6c-2.4,1-4.7,2-7.1,3c-0.8,0.1-1.5,0.4-2.2,0.8c-1.2,0.3-2.3,0.7-3.5,0.3
				c-0.4-0.2-0.8-0.5-1.1-0.7c-0.7-0.8-1-1.6-1.1-2.6c0.1-0.4,0.3-0.8,0.4-1.2c0-0.1,0.1-0.2,0.1-0.3c0.1-0.2,0.2-0.3,0.4-0.5l0,0
				c0.1-0.1,0.2-0.2,0.3-0.3l0,0c0.1-0.1,0.2-0.2,0.3-0.2l0,0c0.2-0.1,0.3-0.2,0.5-0.3l0,0c0.7-0.2,1.5-0.4,2.1-0.7
				c2.3-0.7,4.5-1.6,6.5-2.6c0.2,0,0.4,0,0.6-0.3l0,0c1-0.3,1.9-0.7,2.7-1.2c3.5-1.6,6.8-3.4,9.8-5.6c0.1-0.1,0.2-0.2,0.3-0.2l0,0
				c0.2-0.1,0.3-0.2,0.5-0.3l0,0c0.6-0.4,1.1-0.7,1.7-1.1c3.7-2.8,7.3-5.8,9.8-9.7c0.1-0.1,0.1-0.2,0.2-0.3c0.2-0.1,0.3-0.3,0.3-0.5
				c1.5-2,2.5-4.2,3-6.7c0.2-0.5,0.3-1,0.3-1.5c0.3-1.2,0.2-2.4-0.2-3.6c0-0.4-0.2-0.7-0.4-1.1c-0.3-0.9-0.9-1.7-1.7-2.3
				c-0.2-0.3-0.4-0.5-0.7-0.5c-1.1-0.8-2.3-1.1-3.7-0.8c-0.8,0-1.5,0.1-2.2,0.5c-1.1,0.2-2.1,0.8-3,1.4c-2.8,1.7-5.3,3.8-7.5,6
				c-3.8,3.8-7.7,7.5-12.3,10.5c-0.2,0.1-0.3,0.2-0.5,0.3c-0.1,0.1-0.2,0.1-0.3,0.2c-1.1,0.6-2.1,1.2-3.2,1.7c-2.3,1-4.5,2-6.8,2.9
				c-0.2,0-0.4,0-0.6,0.2l0,0c-0.6,0-1.1,0.2-1.6,0.5c-1.6,0.2-3.2,1-4.9,0.7c-0.2-0.1-0.5-0.2-0.7-0.2c-0.8-0.6-1.5-1.3-1.8-2.2
				c0-0.3-0.1-0.7-0.1-1c0.3-1.7,1.4-2.6,3.1-3.1c0.7,0,1.3-0.2,1.9-0.5c2.4-0.5,4.7-1.4,6.8-2.6c0.2,0,0.4-0.1,0.5-0.3
				c0.1,0,0.2-0.1,0.3-0.1c0.9-0.3,1.7-0.7,2.4-1.3c0.2-0.1,0.4-0.2,0.6-0.3l0,0c3.7-2,6.8-4.6,9.7-7.6c4-4.1,8.3-7.9,13.4-10.7
				c0.2,0,0.4-0.1,0.5-0.3l0,0c0.8-0.3,1.6-0.6,2.4-0.9c1.5-0.4,3.1-0.6,4.6-0.8c0.5,0,0.9,0.1,1.4,0.1c1.1,0.3,2.1,0.5,3.2,0.8
				c0.3,0.1,0.6,0.2,0.9,0.4c0.8,0.5,1.6,1,2.4,1.6c0.3,0.2,0.5,0.5,0.8,0.7c0.5,0.6,1.1,1.2,1.6,1.8c0.2,0.3,0.4,0.5,0.5,0.8
				c0.4,0.9,0.9,1.7,1.3,2.6c0.1,0.3,0.1,0.7,0.3,1c0.2,1.1,0.3,2.2,0.5,3.3c0,0.4,0,0.8,0,1.3c-0.2,1.4-0.5,2.8-0.7,4.1
				c-0.2,0.8-0.4,1.5-0.7,2.3c-1.2,2.6-2.5,5.1-4.2,7.5c-0.6,0.7-1.2,1.5-1.8,2.2c-3.3,4-7.3,7.2-11.4,10.2
				c-3.2,2.1-6.6,4.1-10.1,5.9c-0.2,0.1-0.4,0.2-0.6,0.3l0,0C894.5,934.8,893.6,935.2,892.7,935.6z"/>
			<path class="st2" d="M953.1,855c0.6,0.6,1.3,1.2,1.9,1.8c0.3,0.3,0.5,0.5,0.8,0.8c0.6,0.6,1.1,1.2,1.7,1.8c0.3,0.4,0.7,0.7,1,1.1
				c0.5,0.6,0.9,1.2,1.4,1.7c0.3,0.3,0.5,0.7,0.8,1c0.5,0.7,0.9,1.4,1.4,2.1c0.2,0.4,0.5,0.7,0.7,1.1c0.4,0.8,0.9,1.5,1.3,2.3
				c0.2,0.4,0.4,0.7,0.6,1.1c0.4,0.8,0.8,1.6,1.1,2.5c0.1,0.5,0.2,1,0.5,1.4c0.2,0.7,0.4,1.5,0.6,2.2c0,0.5,0.1,1,0.1,1.5
				c-0.4,1.4-1.4,2.3-2.9,2.7c-0.5,0-1.1-0.1-1.6-0.1c-0.9-0.3-1.5-0.8-2.1-1.5c-0.1-0.2-0.2-0.4-0.3-0.6c-0.1-1.1-0.5-2.1-0.9-3
				c-0.1-0.3-0.2-0.5-0.4-0.8c-0.3-0.9-0.7-1.7-1.2-2.5c-0.2-0.5-0.4-0.9-0.8-1.3c-0.3-0.7-0.8-1.4-1.3-2c-0.1-0.3-0.3-0.6-0.5-0.8
				c-0.5-0.9-1.1-1.7-1.9-2.4c-0.1-0.3-0.3-0.5-0.6-0.7c-0.5-0.7-1-1.3-1.6-1.8c-0.3-0.4-0.6-0.8-1.1-1.1c-0.5-0.6-1-1.1-1.7-1.5
				c-0.3-0.4-0.6-0.6-1-0.9c-0.6-0.6-1.2-1.1-1.9-1.5c-0.3-0.4-0.7-0.6-1.1-0.8c-0.7-0.6-1.4-1.1-2.2-1.5c-0.3-0.2-0.7-0.4-1-0.6
				c-0.7-0.5-1.4-0.9-2.2-1.2c-0.4-0.2-0.8-0.4-1.2-0.7c-0.7-0.5-1.5-0.9-2.3-1.1c-0.4-0.3-0.9-0.5-1.5-0.7c-0.9-0.3-1.8-0.7-2.7-1
				c-0.3-0.2-0.7-0.3-1.1-0.3c-1-0.5-2.1-0.8-3.3-0.9c-0.4-0.1-0.7-0.2-1.1-0.3c-1.1-0.3-2.1-0.5-3.3-0.5c-0.5-0.1-0.9-0.2-1.4-0.2
				c-1.2-0.1-2.3-0.4-3.5-0.3c-0.4,0-0.9,0-1.3,0c-1.4-0.2-2.7-0.3-4.1-0.1c-0.5-0.1-0.9-0.1-1.4,0c-1.4,0.1-2.9,0.2-4.3,0.2
				c-0.5,0-0.9,0.1-1.4,0.1c-1.6,0-3.1,0.2-4.6,0.5c-0.7,0.1-1.4,0.2-2.1,0.3c-1.6,0.3-3.2,0.5-4.7,1c-0.5,0.1-1.1,0.2-1.6,0.2
				c-1.1-0.1-1.9-0.8-2.6-1.4c-0.1-0.2-0.2-0.4-0.4-0.6c-0.6-2.6,0.4-4,3.1-4.7c0.9-0.2,1.7-0.4,2.6-0.7c0.6-0.1,1.1,0,1.6-0.3
				c1.6-0.3,3.3-0.5,4.9-0.8c0.5,0,1.1-0.1,1.6-0.1c1.4-0.1,2.9-0.3,4.3-0.4c0.5,0,0.9,0,1.4,0c1.4,0,2.9,0.1,4.3-0.1
				c0.5,0.2,0.9,0.1,1.4,0.1c1.3,0,2.5,0.1,3.8,0.1c0.5,0.1,0.9,0.1,1.4,0.2c1.2,0.1,2.4,0.2,3.5,0.4c0.5,0.1,0.9,0.2,1.4,0.2
				c1.1,0.2,2.2,0.4,3.3,0.6c0.3,0.2,0.7,0.3,1.1,0.3c1.1,0.3,2.2,0.6,3.2,0.9c0.2,0.1,0.5,0.1,0.7,0.2c0.9,0.3,1.9,0.7,2.8,1
				c0.5,0.2,1,0.4,1.5,0.7c0.9,0.4,1.8,0.8,2.7,1.2c0.3,0.1,0.6,0.3,0.8,0.4c0.8,0.4,1.6,0.9,2.4,1.3c0.4,0.2,0.8,0.5,1.1,0.7
				c0.8,0.5,1.6,1,2.4,1.4c0.3,0.2,0.5,0.4,0.8,0.5c0.7,0.5,1.4,1,2.2,1.5c0.2,0.2,0.5,0.4,0.7,0.5c0.8,0.6,1.5,1.2,2.3,1.8
				C952.5,854.5,952.8,854.8,953.1,855z"/>
			<path class="st2" d="M920.2,829.6c1.3,0.2,2.5,0.3,3.8,0.5c0.4,0,0.7,0.1,1.1,0.1c1.2,0.2,2.3,0.4,3.5,0.7
				c0.5,0.1,0.9,0.2,1.4,0.3c1,0.2,2,0.4,3,0.6c0.5,0.1,0.9,0.3,1.4,0.4c0.8,0.2,1.5,0.4,2.3,0.6c0.5,0.3,1,0.4,1.5,0.5
				c1.1,0.4,2.2,0.8,3.2,1.2c0.3,0.1,0.6,0.2,0.8,0.3c0.9,0.4,1.8,0.7,2.7,1.1c0.3,0.1,0.6,0.3,0.8,0.4c0.9,0.4,1.8,0.9,2.7,1.3
				c0.1,0.2,0.3,0.3,0.6,0.3c1,0.6,2,1.2,2.9,1.8c0.2,0.1,0.4,0.3,0.6,0.4c0.7,0.5,1.4,1.1,2.1,1.6c0.2,0.2,0.3,0.3,0.5,0.5
				c0.7,1.1,0.9,2.2,0.5,3.4c-0.4,0.8-1.1,1.4-2,1.8c-1,0.3-2,0.2-2.9-0.1c-0.4-0.3-0.8-0.5-1.1-0.8c-0.6-0.6-1.3-1.1-2.1-1.5
				c-0.3-0.4-0.7-0.6-1.2-0.7c-0.7-0.6-1.5-1-2.4-1.4c-0.3-0.1-0.6-0.3-0.9-0.4c-0.7-0.5-1.5-0.9-2.3-1.1c-0.5-0.2-1-0.4-1.5-0.6
				c-0.9-0.4-1.9-0.8-2.9-1c-0.3-0.1-0.6-0.2-0.9-0.3c-1-0.4-2.1-0.7-3.2-0.9c-0.4-0.3-0.9-0.3-1.4-0.4c-1-0.2-2-0.6-3-0.6
				c-0.3-0.3-0.7-0.2-1.1-0.2c-1.1-0.3-2.3-0.6-3.5-0.6c-0.3-0.2-0.7-0.2-1.1-0.2c-1.2-0.3-2.5-0.4-3.8-0.5c-0.4,0-0.7,0-1.1-0.1
				c-1.2-0.3-2.5-0.3-3.8-0.3c-0.4-0.2-0.9-0.2-1.4-0.1c-1.3-0.1-2.5-0.1-3.8-0.1c-0.4-0.1-0.7-0.2-1.1-0.3
				c-0.7-0.4-1.3-0.9-1.8-1.6c-0.1-0.4-0.2-0.8-0.4-1.2c0.4-2.4,1.1-3,3.8-3.6c0.5,0,0.9,0,1.4,0c1.4,0.1,2.7,0.1,4.1,0.2
				c0.4,0,0.7,0,1.1,0c1.3,0.2,2.5,0.3,3.8,0.3C919.4,829.6,919.8,829.6,920.2,829.6z"/>
			<path class="st2" d="M869.2,927.8c0.4-1.6,1.5-2.5,3.1-2.9c0.6-0.2,1.2-0.3,1.9-0.5c2.2-0.6,4.5-1.3,6.5-2.4c0.2,0,0.5,0,0.6-0.3
				l0,0c0.7-0.2,1.3-0.4,1.9-0.8c0.2-0.1,0.4-0.2,0.5-0.3l0,0c9-4.3,16.2-10.5,21.3-18.7c1.4-2.2,2.1-2.6,4.8-2.3
				c0.3,0.2,0.6,0.3,0.8,0.5c0.7,0.7,1.1,1.4,1.4,2.3c0,0.4-0.1,0.8-0.1,1.2c-2.1,4-4.9,7.5-8,10.7c-4.4,4.6-9.6,8.2-15.3,11.4
				c-0.1,0.1-0.2,0.1-0.3,0.2l0,0c-0.2,0.1-0.4,0.2-0.5,0.3l0,0c-0.9,0.4-1.8,0.8-2.6,1.2c-2.2,0.9-4.4,1.7-6.6,2.6
				c-0.8,0.2-1.6,0.5-2.4,0.7c-1.4,0.3-2.8,1-4.4,0.7c-0.4-0.2-0.7-0.3-1.1-0.5c-0.7-0.6-1.2-1.3-1.4-2.1
				C869.2,928.5,869.2,928.2,869.2,927.8z"/>
		</g>
		<g>
			<path class="st2" d="M993.2,871.9v-35h15.8c4.4,0,7.6,1,9.7,3.1c1.6,1.6,2.4,3.5,2.4,5.7c0,3.8-2,6.5-5.9,8.1
				c5.3,1.5,8,4.4,8,8.6c0,3-1.2,5.3-3.7,7c-2.4,1.7-5.7,2.6-9.8,2.6L993.2,871.9L993.2,871.9z M997.3,852.5h11
				c2.6,0,4.7-0.6,6.2-1.7c1.6-1.1,2.3-2.7,2.3-4.7c0-1.8-0.7-3.2-2.1-4.2c-1.4-1-3.5-1.5-6.1-1.5h-11.3L997.3,852.5L997.3,852.5z
				 M997.3,868.4h12.5c2.8,0,5.1-0.6,6.7-1.7c1.6-1.1,2.4-2.7,2.4-4.7c0-1.9-0.8-3.4-2.5-4.5c-1.7-1-4.1-1.6-7.4-1.6h-11.7V868.4z"
				/>
			<path class="st2" d="M1028.3,871.9l16.9-35.3h3.9l16.9,35.3h-4.5l-4.4-9.3H1037l-4.4,9.3H1028.3z M1038.7,859.1h16.9l-8.4-17.9
				L1038.7,859.1z"/>
			<path class="st2" d="M1073.5,871.9v-35h16c4.6,0,8.1,1.2,10.6,3.5c1.9,1.8,2.9,4.1,2.9,7c0,2.8-0.9,5.1-2.8,6.8s-4.3,2.9-7.3,3.4
				l11.4,14.3h-5.1l-10.8-13.6h-10.6v13.6H1073.5z M1077.6,854.7h11.4c2.8,0,5.1-0.7,6.9-2s2.7-3.1,2.7-5.4c0-2.2-0.8-3.9-2.5-5.1
				c-1.7-1.2-4-1.8-7-1.8h-11.5V854.7z"/>
			<path class="st2" d="M1112.2,871.9v-35h4.2v35H1112.2z"/>
			<path class="st2" d="M1127.3,871.9v-35h4.2v31.4h20.9v3.7h-25.1V871.9z"/>
			<path class="st2" d="M1188.9,867.2c-3.6,3.6-8.1,5.3-13.6,5.3s-10.1-1.8-13.6-5.3s-5.3-7.8-5.3-12.8s1.8-9.2,5.4-12.8
				s8.1-5.3,13.6-5.3s10.1,1.8,13.6,5.3s5.3,7.8,5.3,12.8S1192.5,863.6,1188.9,867.2z M1164.9,864.7c2.8,2.8,6.3,4.2,10.5,4.2
				s7.7-1.4,10.4-4.2c2.7-2.8,4.1-6.2,4.1-10.3c0-4-1.4-7.5-4.2-10.3c-2.8-2.8-6.3-4.2-10.5-4.2s-7.7,1.4-10.4,4.2
				c-2.7,2.8-4.1,6.2-4.1,10.3C1160.7,858.4,1162.1,861.8,1164.9,864.7z"/>
			<path class="st2" d="M1220.2,872.5c-5.3,0-9.8-1.7-13.3-5.2s-5.3-7.8-5.3-12.9c0-5,1.8-9.3,5.4-12.8s8.1-5.3,13.4-5.3
				c3.1,0,5.8,0.5,8,1.4c2.2,1,4.3,2.4,6.4,4.2l-2.8,2.8c-3.6-3.2-7.5-4.8-11.7-4.8c-4.1,0-7.5,1.4-10.3,4.2
				c-2.7,2.8-4.1,6.2-4.1,10.3s1.4,7.5,4.1,10.3c2.8,2.8,6.2,4.2,10.2,4.2c2.4,0,4.5-0.4,6.4-1.3c1.8-0.8,3.7-2.1,5.6-3.8l2.8,2.8
				c-2.1,2-4.3,3.5-6.6,4.5C1226.1,872,1223.4,872.5,1220.2,872.5z"/>
			<path class="st2" d="M1242.4,871.9v-35h4.2v15.6h21.5v-15.6h4.2v35h-4.2v-15.8h-21.5v15.8H1242.4z"/>
			<path class="st2" d="M1282.7,871.9v-35h26.9v3.6h-22.7v12h20.3v3.6h-20.3v12.3h22.9v3.6L1282.7,871.9L1282.7,871.9z"/>
		</g>
	</g>
	<g>
		<path class="st2" d="M393.1,886.4c-10.9,2.9-15.8,7.6-21,14.3c0.3-3.7,0.4-7,0.2-9.2c0-0.4-0.1-1.4-0.3-2.5v-0.3
			c9.3-9.2,20.3-11,26.2-10.8c0.9,0,1.8,0.1,2.6,0.2v-9c-15.2-2.9-23.9,7.8-23.9,7.8c-7.3,8.3-14.9,5.7-14.9,5.7s-5.2-1.4-5.8-2.7
			c-0.5-0.5,0.5-1.8,0.5-1.8c16.6-18.5,33.7-18.3,44.1-15.6v-35.6H287.5V881c1.4-2.7,3.2-4.5,3.2-4.5c3.3,1.4,7.2,2.1,7.2,2.1
			c-7.2,3.3-9.3,8.3-9,11.3c0.1,1.3-0.7,1.5-1.3,1.3v10.1c1.9-3.3,4.3-6.1,5.8-7.7c1.4,0.7,5.9,2.8,11.5,3.8l-13.2,9.3
			c-2.3,2.7-3.7,4.7-4.1,6.7v9.5c20.7-22.8,47-19.9,48.1-19.8c2.4,2.7,5.7,6.5,9.2,10.8c-28.7-7.6-47.3,6.4-57.2,17.9v8.5h113.4
			v-53.8C398.1,885.7,395.4,885.8,393.1,886.4 M346.5,843.3L346.5,843.3c2.7-3.1,7.9-5.1,13.8-5c8.5,0.2,15.2,4.7,15.2,10.1
			c0,0.7-0.2,1.7-0.3,1.9c-1.7,6-22,28.2-22,28.2c-0.3,0.3-0.5,0.6-0.8,0.8c-1.1-3.1-1.4-10.7,5.8-28.3c0.5-1.1-0.2-1.6-1-0.2
			c-9.6,16.4-9.9,24.2-9.4,27.1C337.6,853.1,346.5,843.3,346.5,843.3 M333.8,838.3c0,0,2,26.7,13.9,44.1c1.1,1.6-1.4,3.6-2.5,1.7
			c-0.9-1.4-12.5-30.6-15.5-44.9C329.1,836.5,333.4,835.2,333.8,838.3 M325,859.1c1.2-1.7,3.8-1.5,3.8-1.5c2.9,0.3,0.9,2.8,0.9,2.8
			c-1.7,2.2-3.4,1.9-4.3,1.1C324.5,860.7,324.8,859.5,325,859.1 M317,848.8c2.1-0.2,3.6,2,3.6,2c1.7,2.4-1.5,2.5-1.5,2.5
			c-2.8,0.1-3.6-1.4-3.7-2.6C315.4,849.4,316.5,848.9,317,848.8 M292,874.5c0,0,26.5-21.7,47,2.7c-3.9-1.8-11.3-3.9-24.8-4.2
			c-1.6,0-1.5,0.8-0.3,1c17.5,2.8,24.2,6.7,26.7,9.3C337.7,885.6,327,885.9,292,874.5 M294.6,891.8c15.4-8.1,33.1-6,39.6-4.9
			c1.6,0.3,3.1,0.6,1.1,3.2C325.1,903.1,294.6,891.8,294.6,891.8 M364.8,927.8c-1.5,6.7-5.1,0.7-5.1,0.7
			c-6.1-10.4-15.5-21.1-20.2-26.4c-0.6-0.7-2.2-2.2-2.5-2.5c-1-1.1-1.7-2.4-1.7-3.8c0-3.9,4.7-7.1,10.4-7.1c0.8,0,1.5,0.1,2.2,0.2
			c2.8,2.4,7.1,8.8,11.1,25.8c0.3,1.2,1.1,1.2,0.9-0.4c-1.6-16.2-4.9-23.3-7.2-26.3c0.6-0.5,1.3-1,2-1.5c5-3,10.6-2.8,12.7,0.5
			c0.8,1.3,1,3.8,1,4.5C369.2,900.5,364.8,927.8,364.8,927.8"/>
		<g>
			<path class="st2" d="M425.1,828.8h17.6c2.4,0,4.6,0.3,6.5,1s3.4,1.6,4.6,2.8c1.8,1.8,2.7,4.1,2.7,6.7v0.1c0,1.5-0.2,2.8-0.6,3.9
				c-0.4,1.1-1,2.1-1.7,2.9c-0.7,0.8-1.5,1.5-2.4,2.1s-1.7,1-2.6,1.4c1.3,0.3,2.5,0.8,3.7,1.3c1.2,0.6,2.2,1.2,3,2.1
				c0.9,0.8,1.6,1.8,2.1,2.9c0.5,1.1,0.8,2.4,0.8,3.9v0.1c0,1.8-0.4,3.4-1.1,4.9c-0.7,1.4-1.8,2.7-3.1,3.7c-1.3,1-2.9,1.8-4.8,2.3
				c-1.9,0.6-4,0.8-6.3,0.8H425L425.1,828.8L425.1,828.8z M442.4,848.6c1.6,0,3.1-0.2,4.4-0.6c1.3-0.4,2.5-1,3.5-1.7
				s1.7-1.7,2.3-2.8c0.6-1.1,0.8-2.4,0.8-3.8v-0.1c0-2.4-0.9-4.3-2.8-5.8c-1.8-1.5-4.5-2.2-7.9-2.2h-14.4v16.9L442.4,848.6
				L442.4,848.6z M443.8,868.7c3.7,0,6.6-0.8,8.7-2.4c2.2-1.6,3.2-3.7,3.2-6.4v-0.1c0-2.7-1.1-4.7-3.3-6.2c-2.2-1.5-5.4-2.2-9.7-2.2
				h-14.5v17.2h15.6L443.8,868.7L443.8,868.7z"/>
			<path class="st2" d="M484.3,828.5h3.1l19.9,43.1h-3.5l-5.4-12h-25.3l-5.4,12h-3.3L484.3,828.5z M497,856.8L485.8,832l-11.3,24.8
				H497z"/>
			<path class="st2" d="M515.1,828.8h18c2.6,0,5,0.4,7,1.1c2,0.8,3.7,1.8,5,3.1c1,1,1.8,2.2,2.4,3.6c0.6,1.4,0.9,2.8,0.9,4.4v0.1
				c0,1.8-0.3,3.4-0.9,4.8c-0.6,1.4-1.5,2.6-2.6,3.6s-2.4,1.8-4,2.5c-1.5,0.6-3.2,1.1-5,1.3l14.1,18.3h-4l-13.6-17.7h-0.1h-13.9
				v17.7h-3.2v-42.8L515.1,828.8L515.1,828.8z M532.8,851c1.8,0,3.5-0.2,5-0.7c1.5-0.4,2.8-1.1,3.9-1.9c1.1-0.8,2-1.9,2.6-3.1
				c0.6-1.2,0.9-2.6,0.9-4.1v-0.1c0-2.9-1.1-5.2-3.2-6.9c-2.1-1.7-5.2-2.5-9.1-2.5h-14.6V851H532.8z"/>
			<rect x="558.6" y="828.8" class="st2" width="3.2" height="42.8"/>
			<polygon class="st2" points="573.7,828.8 576.9,828.8 576.9,868.7 602,868.7 602,871.6 573.7,871.6 			"/>
			<path class="st2" d="M627.4,872.4c-3.2,0-6.2-0.6-8.8-1.8c-2.7-1.2-4.9-2.8-6.8-4.8c-1.9-2-3.3-4.4-4.3-7s-1.5-5.4-1.5-8.4v-0.1
				c0-2.9,0.5-5.7,1.6-8.4c1-2.7,2.5-5,4.4-7.1c1.9-2,4.1-3.7,6.8-4.9s5.6-1.8,8.8-1.8c3.3,0,6.2,0.6,8.8,1.8s4.9,2.8,6.8,4.8
				c1.9,2,3.3,4.4,4.3,7c1,2.7,1.5,5.4,1.5,8.4v0.1c0,2.9-0.5,5.7-1.6,8.4c-1,2.7-2.5,5-4.4,7.1c-1.9,2-4.1,3.7-6.8,4.9
				C633.7,871.8,630.7,872.4,627.4,872.4 M627.6,869.5c2.7,0,5.1-0.5,7.3-1.5s4.1-2.4,5.8-4.1c1.6-1.7,2.9-3.8,3.8-6.1
				c0.9-2.3,1.3-4.8,1.3-7.5v-0.1c0-2.6-0.5-5.1-1.4-7.5c-0.9-2.3-2.2-4.4-3.8-6.1c-1.6-1.7-3.5-3.1-5.8-4.1c-2.2-1-4.7-1.5-7.3-1.5
				s-5.1,0.5-7.3,1.5s-4.1,2.4-5.7,4.1c-1.6,1.7-2.9,3.8-3.8,6.1c-0.9,2.3-1.3,4.8-1.3,7.5v0.1c0,2.7,0.5,5.2,1.4,7.5
				s2.2,4.4,3.8,6.1c1.6,1.7,3.5,3.1,5.8,4.1C622.5,869,624.9,869.5,627.6,869.5"/>
			<path class="st2" d="M678,872.4c-3.1,0-5.9-0.6-8.5-1.7c-2.6-1.1-4.8-2.7-6.7-4.7s-3.4-4.3-4.5-7s-1.6-5.6-1.6-8.6v-0.1
				c0-3,0.5-5.9,1.6-8.6c1.1-2.7,2.6-5,4.5-7.1c1.9-2,4.2-3.6,6.8-4.8s5.5-1.7,8.6-1.7c1.9,0,3.6,0.2,5.2,0.5c1.5,0.3,3,0.8,4.3,1.4
				c1.3,0.6,2.6,1.3,3.7,2.2c1.2,0.8,2.3,1.8,3.4,2.8l-2.3,2.3c-0.9-0.9-1.9-1.7-2.9-2.5s-2.1-1.4-3.3-2c-1.2-0.5-2.4-1-3.8-1.3
				c-1.4-0.3-2.8-0.5-4.4-0.5c-2.6,0-5,0.5-7.2,1.5s-4.1,2.3-5.7,4.1c-1.6,1.7-2.9,3.8-3.8,6.1c-0.9,2.3-1.4,4.8-1.4,7.5v0.1
				c0,2.7,0.5,5.2,1.4,7.6c0.9,2.3,2.2,4.4,3.8,6.1c1.6,1.7,3.5,3.1,5.7,4.1s4.6,1.5,7.2,1.5c3.1,0,5.8-0.6,8.1-1.7
				c2.3-1.2,4.5-2.8,6.7-4.9l2.1,2.1c-1.1,1.1-2.3,2.1-3.5,3s-2.5,1.7-3.9,2.4s-2.8,1.2-4.4,1.5C681.7,872.2,679.9,872.4,678,872.4"
				/>
			<polygon class="st2" points="702.6,828.7 705.7,828.7 705.7,847.9 733.1,847.9 733.1,828.7 736.3,828.7 736.3,869.9 733.1,869.9 
				733.1,850.6 705.7,850.6 705.7,869.9 702.6,869.9 			"/>
			<polygon class="st2" points="747.8,828.8 778.3,828.8 778.3,831.7 751,831.7 751,848.6 775.5,848.6 775.5,851.5 751,851.5 
				751,868.7 778.6,868.7 778.6,871.6 747.8,871.6 			"/>
			<path class="st2" d="M435.1,936.5c0,0.7-0.6,1.3-1.3,1.3h-8c-0.7,0-1.3-0.6-1.3-1.3v-38.7c0-0.7,0.6-1.3,1.3-1.3h8.1
				c0.7,0,1.5,0.5,1.8,1.1l10.8,21.5c0.2,0.4,0.7,0.4,0.9,0l10.9-21.5c0.4-0.6,1.1-1.1,1.8-1.1h8.1c0.7,0,1.3,0.6,1.3,1.3v38.7
				c0,0.7-0.6,1.3-1.3,1.3h-8c-0.7,0-1.3-0.6-1.3-1.3v-18.8c0-0.3-0.4-0.4-0.5-0.1l-7.5,15.1c-0.4,0.6-1.1,1.1-1.8,1.1h-4.4
				c-0.7,0-1.5-0.5-1.8-1.1l-7.5-15.1c-0.1-0.3-0.5-0.2-0.5,0.1v18.8H435.1z"/>
			<path class="st2" d="M508,897.9c0-0.7,0.6-1.3,1.3-1.3h8c0.7,0,1.3,0.6,1.3,1.3v21.9c0,10.6-6.7,18.8-19,18.8
				c-12.4,0-18.9-8.2-18.9-18.8v-21.9c0-0.7,0.6-1.3,1.3-1.3h8c0.7,0,1.3,0.6,1.3,1.3v21.3c0,6,2.9,9.2,8.3,9.2
				c5.5,0,8.4-3.3,8.4-9.2L508,897.9L508,897.9z"/>
			<path class="st2" d="M540.1,936.5c0,0.7-0.6,1.3-1.3,1.3h-8c-0.7,0-1.3-0.6-1.3-1.3v-38.7c0-0.7,0.6-1.3,1.3-1.3h6.4
				c0.8,0,1.6,0.4,2.1,1l16.9,21.2c0.2,0.3,0.6,0.2,0.6-0.2v-20.7c0-0.7,0.6-1.3,1.3-1.3h8c0.7,0,1.3,0.6,1.3,1.3v38.7
				c0,0.7-0.6,1.3-1.3,1.3h-6.4c-0.8,0-1.6-0.4-2.1-1l-16.9-21.1c-0.2-0.3-0.6-0.2-0.6,0.2V936.5z"/>
			<path class="st2" d="M579,897.9c0-0.7,0.6-1.3,1.3-1.3h8c0.7,0,1.3,0.6,1.3,1.3v38.7c0,0.7-0.6,1.3-1.3,1.3h-8
				c-0.7,0-1.3-0.6-1.3-1.3V897.9z"/>
			<path class="st2" d="M630.3,923.6c0.4-0.7,1.2-0.9,1.8-0.6l7.3,3.2c0.6,0.2,0.8,1.1,0.5,1.6c-3.8,6.4-10.9,10.7-18.9,10.7
				c-11.9,0-21.9-9.6-21.9-21.4s10-21.4,21.9-21.4c8,0,15.1,4.3,18.9,10.6c0.3,0.5,0.1,1.4-0.5,1.6l-7.3,3.2
				c-0.7,0.4-1.4,0.2-1.8-0.5c-2-2.9-5.4-4.8-9.2-4.8c-6.2,0-11.2,5-11.2,11.2s5,11.2,11.2,11.2C625,928.4,628.3,926.5,630.3,923.6"
				/>
			<path class="st2" d="M649.6,897.9c0-0.7,0.6-1.3,1.3-1.3h8c0.7,0,1.3,0.6,1.3,1.3v38.7c0,0.7-0.6,1.3-1.3,1.3h-8
				c-0.7,0-1.3-0.6-1.3-1.3V897.9z"/>
			<path class="st2" d="M673,937.8c-0.7,0-1.3-0.6-1.3-1.3v-38.7c0-0.7,0.6-1.3,1.3-1.3h16.9c10.9,0,16.2,7.5,16.2,15.8
				c0,8.7-5.2,16.1-16.2,16.1h-6.5c-0.6,0-1.1,0.5-1.1,1.1v7c0,0.7-0.6,1.3-1.3,1.3L673,937.8L673,937.8z M689.4,906.2h-6
				c-0.6,0-1.1,0.5-1.1,1.1v10.5c0,0.6,0.5,1.1,1.1,1.1h6c4.4,0,6.1-2.7,6.1-6.4C695.4,909.2,693.8,906.2,689.4,906.2"/>
			<path class="st2" d="M715.4,897.9c0-0.7,0.6-1.3,1.3-1.3h8c0.7,0,1.3,0.6,1.3,1.3v38.7c0,0.7-0.6,1.3-1.3,1.3h-8
				c-0.7,0-1.3-0.6-1.3-1.3V897.9z"/>
			<path class="st2" d="M735.7,917.2c0-11.8,10-21.4,21.9-21.4c12,0,21.9,9.6,21.9,21.4s-9.8,21.4-21.9,21.4
				C745.6,938.6,735.7,929,735.7,917.2 M746.3,917.2c0,6.2,5,11.2,11.2,11.2c6.3,0,11.2-5,11.2-11.2s-4.9-11.2-11.2-11.2
				C751.3,906,746.3,911,746.3,917.2"/>
		</g>
	</g>
</g>
</svg>
