<?xml version="1.0" encoding="utf-8"?>
<!-- Generator: Adobe Illustrator 22.0.0, SVG Export Plug-In . SVG Version: 6.00 Build 0)  -->
<svg version="1.1" id="Layer_1" xmlns="http://www.w3.org/2000/svg" xmlns:xlink="http://www.w3.org/1999/xlink" x="0px" y="0px"
	 viewBox="0 0 250 29.5" style="enable-background:new 0 0 250 29.5;" xml:space="preserve">
<style type="text/css">
	.st0{fill:#FCF8F0;}
</style>
<g>
	<g>
		<g>
			<path class="st0" d="M177.3,26.8c-1.6,0-3-0.5-4.1-1.6c-1.1-1-1.7-2.4-1.7-4c0-1.6,0.6-2.9,1.7-3.9c1.1-1.1,2.5-1.6,4.2-1.6
				c2,0,3.6,0.8,4.7,2.2l-2.3,1.7c-0.7-0.8-1.5-1.2-2.5-1.2c-0.8,0-1.4,0.3-1.9,0.8c-0.5,0.5-0.8,1.2-0.8,2s0.2,1.5,0.8,2
				c0.5,0.5,1.1,0.8,1.9,0.8c0.5,0,1-0.1,1.4-0.3c0.4-0.2,0.8-0.5,1.1-1l2.3,1.6c-0.6,0.8-1.3,1.3-2.1,1.8
				C179.4,26.6,178.4,26.8,177.3,26.8z"/>
			<path class="st0" d="M188.6,26.8c-1.7,0-2.9-0.4-3.9-1.2c-0.9-0.8-1.4-2-1.4-3.6v-6h3.2v5.9c0,0.8,0.2,1.3,0.6,1.7
				c0.4,0.4,0.9,0.6,1.5,0.6s1.1-0.2,1.5-0.5c0.4-0.4,0.6-0.9,0.6-1.6v-6h3.2v5.9c0,1.7-0.5,2.9-1.4,3.7
				C191.6,26.3,190.3,26.8,188.6,26.8z"/>
			<path class="st0" d="M195.8,26.6V15.9h3.1v8h5.5v2.6H195.8z"/>
			<path class="st0" d="M206.8,26.6v-8h-3.4v-2.6h9.9v2.6h-3.4v8H206.8z"/>
			<path class="st0" d="M219.8,26.8c-1.7,0-2.9-0.4-3.9-1.2c-0.9-0.8-1.4-2-1.4-3.6v-6h3.2v5.9c0,0.8,0.2,1.3,0.6,1.7
				c0.4,0.4,0.9,0.6,1.5,0.6s1.1-0.2,1.5-0.5c0.4-0.4,0.6-0.9,0.6-1.6v-6h3.2v5.9c0,1.7-0.5,2.9-1.4,3.7
				C222.7,26.3,221.4,26.8,219.8,26.8z"/>
			<path class="st0" d="M226.9,26.6V15.9h5.3c1.6,0,2.9,0.4,3.7,1.1c0.7,0.6,1,1.5,1,2.5c0,1.6-0.8,2.6-2.3,3.3l2.7,3.7h-3.6
				l-2.3-3.2H230v3.2L226.9,26.6L226.9,26.6z M230,21h2c0.5,0,0.9-0.1,1.2-0.3c0.3-0.2,0.4-0.5,0.4-1s-0.1-0.7-0.4-1
				c-0.3-0.2-0.7-0.3-1.2-0.3h-2L230,21L230,21z"/>
			<path class="st0" d="M237.4,26.6l4.8-10.7h3l4.8,10.7h-3.3l-0.8-1.9h-4.3l-0.8,1.9H237.4z M242.4,22.4h2.5l-1.2-3L242.4,22.4z"/>
		</g>
		<g>
			<path class="st0" d="M158.1,23c0.3-0.5,0.5-1,0.7-1.5c0.1-0.2,0.1-0.4,0.2-0.6c0.2-0.4,0.2-0.8,0.3-1.1c0-0.2,0.1-0.3,0.1-0.5
				c0.1-0.3,0.1-0.7,0.1-1c0-0.1,0-0.2,0-0.3c0-0.3,0-0.6,0-0.9c0-0.1,0-0.2,0-0.3c0-0.3,0-0.5-0.2-0.8c0-0.1,0-0.2-0.1-0.2
				c0-0.2-0.1-0.5-0.2-0.7c0-0.1,0-0.2-0.1-0.3c0-0.2-0.2-0.4-0.3-0.5c0-0.1-0.1-0.2-0.2-0.3c-0.1-0.2-0.2-0.3-0.3-0.5
				c0-0.1-0.1-0.1-0.2-0.2c-0.1-0.2-0.2-0.3-0.4-0.5c0-0.1-0.1-0.1-0.2-0.2c-0.1-0.2-0.3-0.3-0.5-0.4c0-0.1-0.1-0.1-0.2-0.1
				c-0.2-0.1-0.3-0.3-0.5-0.3c-0.1,0-0.2-0.1-0.3-0.2c-0.2-0.1-0.3-0.2-0.5-0.3c-0.1-0.1-0.2-0.1-0.4-0.2c-0.2-0.1-0.4-0.2-0.6-0.2
				c-0.1-0.1-0.1,0-0.2-0.1c-0.3-0.1-0.6-0.2-0.9-0.2c-0.1,0-0.2,0-0.3,0c-0.3-0.1-0.6-0.1-0.9,0c-0.1,0-0.2,0-0.3,0
				c-0.4,0-0.8,0-1.1,0.1c-0.1,0-0.3,0-0.5,0.1c-0.5,0.1-1,0.2-1.4,0.4c0,0-0.1,0-0.1,0l0,0c-0.3,0.1-0.5,0.2-0.7,0.3
				c-0.6,0.3-1.1,0.8-1.6,1.2c-0.9,0.8-1.8,1.7-2.8,2.5c-0.4,0.3-0.9,0.6-1.3,0.9c-0.1,0-0.2,0-0.3,0c-0.2-0.1-0.4-0.2-0.5-0.3
				c0-0.1-0.1-0.2-0.2-0.3c0-0.4,0.2-0.7,0.5-0.9c0.8-0.5,1.5-1.1,2.2-1.8c0.9-0.9,1.8-1.7,2.8-2.4c0,0,0,0,0.1,0l0,0
				c0,0,0.1,0,0.1-0.1l0,0c0.2-0.1,0.5-0.2,0.7-0.4c0.5-0.2,1-0.4,1.5-0.6c0.1,0,0.3-0.1,0.5-0.1c0.4-0.1,0.8-0.1,1.2-0.2
				c0.1,0,0.3,0,0.4,0c0.3,0,0.7,0,1,0c0.1,0,0.2,0,0.3,0c0.3,0,0.6,0,0.9,0.1c0.1,0,0.2,0,0.3,0c0.3,0,0.5,0.1,0.8,0.2
				c0.1,0,0.2,0.1,0.3,0.1c0.2,0.1,0.5,0.2,0.7,0.2c0.1,0.1,0.2,0.1,0.3,0.1c0.2,0.1,0.4,0.2,0.6,0.3c0.1,0,0.2,0.1,0.3,0.1
				c0.2,0.1,0.3,0.2,0.5,0.3c0.1,0,0.2,0.1,0.3,0.2c0.2,0.1,0.3,0.2,0.5,0.4c0,0,0.1,0.1,0.2,0.1c0.2,0.1,0.3,0.3,0.5,0.4
				c0.1,0.1,0.2,0.2,0.3,0.2c0.1,0.1,0.3,0.3,0.4,0.4c0.1,0.1,0.1,0.2,0.2,0.2c0.1,0.1,0.2,0.3,0.3,0.4c0.1,0.1,0.1,0.2,0.2,0.3
				c0.1,0.2,0.2,0.4,0.3,0.6c0,0.1,0.1,0.1,0.1,0.2c0.1,0.2,0.2,0.4,0.3,0.7c0,0.1,0,0.1,0.1,0.2c0.1,0.2,0.2,0.5,0.2,0.7
				c0,0.1,0,0.2,0.1,0.2c0,0.2,0.1,0.5,0.2,0.8c0,0.1,0,0.2,0,0.2c0,0.3,0,0.6,0.1,0.9c0,0.1,0,0.2,0,0.3c0,0.3,0,0.7,0,1
				c0,0.1,0,0.2,0,0.3c0,0.4-0.1,0.8-0.2,1.1c-0.1,0.1,0,0.2-0.1,0.4c-0.1,0.4-0.3,0.9-0.4,1.3c0,0.2-0.1,0.3-0.2,0.5
				c-0.3,0.5-0.5,1.1-0.8,1.6c-0.1,0.2-0.3,0.5-0.4,0.7c0,0,0,0,0,0.1c0,0-0.1,0.1-0.1,0.1c-0.8,1.1-1.7,2.1-2.7,3
				c-0.5,0.4-1,0.7-1.4,1c0,0-0.1,0-0.1,0.1c0,0,0,0-0.1,0c-0.2,0.1-0.4,0.2-0.7,0.3c-0.3,0.1-0.7,0.1-1,0c0,0-0.1-0.1-0.1-0.1
				c-0.1-0.2-0.2-0.4-0.2-0.6c0-0.1,0.1-0.3,0.2-0.4c0.1,0,0.1-0.1,0.2-0.2c0.2-0.1,0.4-0.1,0.5-0.2c0,0,0.1,0,0.1-0.1l0,0
				c1.7-0.9,3-2.2,4-3.8l0,0c0,0,0.1-0.1,0.1-0.1l0,0c0,0,0,0,0-0.1c0.1-0.1,0.2-0.3,0.3-0.5l0,0C158.1,23.2,158.1,23.1,158.1,23z"
				/>
			<path class="st0" d="M153.7,26.1c0,0-0.1,0.1-0.1,0.1c-0.4,0.3-0.9,0.6-1.3,0.9c-0.8,0.5-1.6,1-2.4,1.4c0,0-0.1,0-0.1,0.1l0,0
				c-0.2,0.1-0.5,0.2-0.7,0.4c-0.3,0.1-0.6,0.2-0.9,0.4c-0.2,0.1-0.4,0.1-0.6,0.1c-0.1,0-0.2,0-0.2-0.1c-0.2-0.1-0.3-0.3-0.4-0.5
				c0-0.1,0-0.2,0-0.2c0-0.4,0.3-0.7,0.7-0.8c0.1,0,0.2-0.1,0.3-0.2c0,0,0.1,0,0.1-0.1l0,0c0.3-0.1,0.5-0.2,0.7-0.4
				c0.8-0.4,1.6-0.9,2.4-1.4c0,0,0,0,0.1,0l0,0c0,0,0.1,0,0.1-0.1l0,0c0.4-0.2,0.7-0.5,1.1-0.7c0,0,0.1,0,0.1-0.1
				c0.1,0,0.1-0.1,0.2-0.2c0.8-0.6,1.5-1.2,2.1-2c0,0,0,0,0-0.1c0,0,0-0.1,0.1-0.1l0,0c0,0,0,0,0.1-0.1c0.2-0.2,0.3-0.4,0.5-0.7l0,0
				c0,0,0.1-0.1,0.1-0.1c0.3-0.5,0.5-1,0.7-1.6c0.1-0.1,0.1-0.2,0.1-0.4c0.1-0.4,0.2-0.7,0.1-1.1c0-0.1,0-0.2,0-0.3
				c0-0.3,0-0.6,0-0.9c0-0.1,0-0.2,0-0.2c0-0.3-0.1-0.6-0.2-0.9c0-0.1,0-0.1-0.1-0.2c0-0.2-0.1-0.4-0.3-0.6c0-0.1-0.1-0.2-0.1-0.2
				c-0.1-0.2-0.3-0.4-0.5-0.6c0-0.1-0.1-0.1-0.1-0.1c-0.1-0.1-0.3-0.3-0.5-0.4c-0.1-0.1-0.2-0.1-0.3-0.2c-0.2-0.1-0.4-0.2-0.7-0.3
				c-0.1-0.1-0.2-0.1-0.3-0.1c-0.3-0.1-0.5-0.1-0.8-0.1c-0.1,0-0.2,0-0.3,0c-0.4,0-0.8,0-1.1,0.1c-0.1,0-0.3,0-0.4,0.1
				c-0.6,0.1-1.2,0.3-1.7,0.7c0,0,0,0-0.1,0l0,0c0,0-0.1,0-0.1,0.1l0,0c-0.5,0.3-1,0.7-1.4,1.1c-0.9,0.8-1.7,1.6-2.6,2.3
				c-0.8,0.5-1.6,1-2.4,1.4c0,0-0.1,0-0.1,0.1l0,0c-0.2,0-0.4,0.1-0.5,0.2c-0.3,0.1-0.6,0.1-0.9-0.1c0,0-0.1-0.1-0.1-0.1
				c-0.1-0.2-0.2-0.4-0.2-0.7c0.1-0.4,0.5-0.6,0.8-0.7c0.9-0.3,1.6-0.8,2.3-1.3c0,0,0,0,0.1-0.1l0,0c0,0,0,0,0.1,0l0,0
				c0,0,0.1,0,0.1-0.1c0,0,0.1-0.1,0.1-0.1c0.2-0.1,0.4-0.3,0.6-0.5c1-0.9,2-1.9,3.1-2.7c0.6-0.4,1.2-0.6,1.9-0.9
				c0.2,0,0.3,0,0.5-0.1c0.4-0.1,0.8-0.2,1.3-0.2c0.1,0,0.3,0,0.4,0c0.3,0,0.7,0,1,0c0.1,0,0.1,0,0.2,0c0.3,0,0.6,0.1,0.9,0.1
				c0.1,0,0.2,0.1,0.3,0.1c0.2,0.1,0.4,0.1,0.6,0.2c0.1,0,0.2,0.1,0.3,0.1c0.2,0.1,0.3,0.2,0.5,0.3c0.1,0.1,0.2,0.1,0.3,0.2
				c0.2,0.1,0.3,0.3,0.5,0.4c0,0,0.1,0.1,0.1,0.1c0.1,0.2,0.3,0.3,0.4,0.5c0.1,0.1,0.1,0.2,0.2,0.3c0.1,0.2,0.2,0.4,0.4,0.6
				c0,0,0,0.1,0.1,0.1c0.1,0.2,0.2,0.5,0.3,0.7c0,0.1,0,0.2,0.1,0.3c0,0.2,0.1,0.4,0.1,0.7c0,0.1,0,0.2,0,0.2c0,0.3,0,0.6,0.1,0.9
				c0,0.1,0,0.2,0,0.3c0,0.3,0,0.6,0,0.9c0,0.1,0,0.2,0,0.4c-0.1,0.4-0.2,0.8-0.3,1.2c-0.1,0.1-0.1,0.3-0.1,0.4
				c-0.2,0.6-0.5,1.1-0.8,1.6c-0.2,0.3-0.4,0.6-0.7,0.9c0,0,0,0,0,0.1c0,0-0.1,0.1-0.1,0.1l0,0v0c0,0,0,0,0,0.1l0,0c0,0,0,0-0.1,0.1
				c-0.6,0.7-1.3,1.3-2,1.9c0,0,0,0-0.1,0.1l0,0c0,0,0,0-0.1,0h0h0C153.8,26,153.7,26.1,153.7,26.1z"/>
			<path class="st0" d="M163.7,14.2c0,0.2,0.1,0.5,0.1,0.7c0,0.1,0,0.2,0.1,0.3c0,0.3,0.1,0.6,0.1,0.9c0,0.1,0,0.2,0,0.3
				c0,0.3,0,0.6,0,0.9c0,0.1,0,0.2,0,0.2c0,0.3,0,0.7,0,1c0,0.1,0,0.2,0,0.4c0,0.4-0.1,0.7-0.2,1.1c0,0.1,0,0.2-0.1,0.4
				c-0.1,0.4-0.2,0.8-0.3,1.3c0,0.1-0.1,0.3-0.1,0.4c-0.2,0.5-0.4,1-0.5,1.4c0,0.1-0.1,0.3-0.2,0.4l0,0c0,0-0.1,0.1-0.1,0.1
				c-0.2,0.4-0.4,0.9-0.7,1.3c-0.3,0.6-0.6,0.7-1.2,0.5c-0.1,0-0.1-0.1-0.2-0.1c-0.1-0.2-0.2-0.4-0.2-0.6c0-0.1,0-0.2,0-0.3l0,0
				c0,0,0-0.1,0.1-0.1c0.3-0.5,0.6-1.1,0.8-1.6c0.1-0.1,0.2-0.3,0.2-0.5l0,0c0,0,0.1-0.1,0-0.1c0.2-0.4,0.3-0.8,0.4-1.3
				c0-0.2,0.1-0.3,0.1-0.5c0.1-0.4,0.2-0.8,0.3-1.2c0-0.1,0-0.2,0-0.4c0.1-0.3,0.1-0.7,0.1-1.1c0-0.1,0-0.2,0-0.3c0-0.3,0-0.6,0-0.9
				c0-0.1,0-0.2,0-0.2c0-0.3,0-0.6-0.1-0.9c0-0.1,0-0.2,0-0.2c0-0.3-0.1-0.5-0.2-0.8c0-0.1,0-0.2-0.1-0.3c0-0.2-0.1-0.5-0.2-0.7
				c0-0.1-0.1-0.2-0.1-0.2c0-0.2-0.2-0.4-0.3-0.6c0-0.1-0.1-0.2-0.1-0.2c-0.1-0.2-0.2-0.4-0.3-0.5c0-0.1-0.1-0.2-0.2-0.3
				c-0.1-0.2-0.2-0.4-0.4-0.5c0,0-0.1-0.1-0.1-0.1c-0.1-0.2-0.3-0.4-0.5-0.5c-0.1-0.1-0.1-0.1-0.2-0.2c-0.1-0.2-0.3-0.3-0.5-0.4
				c-0.1,0-0.1-0.1-0.2-0.2c-0.1-0.1-0.3-0.2-0.5-0.3c-0.1-0.1-0.2-0.1-0.3-0.2c-0.2-0.1-0.4-0.3-0.7-0.4c-0.1,0-0.1-0.1-0.2-0.1
				c-0.2-0.1-0.4-0.2-0.6-0.3c-0.1-0.1-0.2-0.1-0.3-0.1c-0.2-0.1-0.5-0.2-0.7-0.3c-0.1,0-0.1,0-0.2-0.1c-0.3-0.1-0.5-0.2-0.8-0.2
				c-0.1,0-0.2-0.1-0.3-0.1c-0.3-0.1-0.6-0.1-0.9-0.1c-0.1,0-0.2,0-0.3,0c-0.3-0.1-0.7,0-1,0c-0.1,0-0.2,0-0.3,0
				c-0.4,0-0.8,0-1.1,0.1c-0.1,0-0.3,0-0.4,0.1c-0.5,0.1-0.9,0.2-1.3,0.3c-0.2,0-0.4,0.1-0.6,0.2c-0.6,0.2-1.1,0.4-1.6,0.7
				c0,0-0.1,0-0.1,0.1c0,0,0,0-0.1,0c-0.2,0.1-0.5,0.2-0.7,0.4c-0.5,0.2-1,0.5-1.4,0.9c-0.2,0.2-0.5,0.3-0.8,0.3c-0.1,0-0.2,0-0.3,0
				c-0.2-0.1-0.3-0.2-0.5-0.4c0-0.1-0.1-0.2-0.1-0.2c0-0.4,0.1-0.7,0.5-0.9c0.5-0.3,1-0.7,1.5-1c0,0,0.1,0,0.1-0.1l0,0
				c0.2-0.1,0.5-0.2,0.7-0.4c0.6-0.2,1.1-0.5,1.7-0.8c0.2,0,0.3-0.1,0.5-0.2c0.5-0.1,0.9-0.3,1.4-0.4c0.1,0,0.3,0,0.5-0.1
				c0.4-0.1,0.8-0.1,1.2-0.2c0.1,0,0.2,0,0.3,0c0.3,0,0.7,0,1,0c0.1,0,0.2,0,0.3,0c0.3,0.1,0.6,0,0.9,0c0.1,0,0.2,0,0.3,0
				c0.3,0,0.5,0.1,0.8,0.1c0.1,0,0.2,0,0.3,0c0.3,0.1,0.5,0.1,0.8,0.2c0.1,0,0.2,0.1,0.3,0.1c0.2,0.1,0.5,0.2,0.7,0.3
				c0.1,0,0.1,0,0.2,0.1c0.2,0.1,0.4,0.2,0.6,0.3c0.1,0,0.2,0.1,0.3,0.2c0.2,0.1,0.3,0.2,0.5,0.3c0.1,0,0.2,0.1,0.3,0.2
				c0.2,0.1,0.3,0.2,0.5,0.3c0.1,0,0.1,0.1,0.2,0.1c0.2,0.1,0.4,0.3,0.6,0.4c0,0.1,0.1,0.1,0.2,0.1c0.2,0.1,0.3,0.3,0.5,0.4
				c0.1,0.1,0.2,0.2,0.3,0.2c0.1,0.1,0.3,0.3,0.5,0.5c0,0.1,0.1,0.1,0.1,0.2c0.1,0.2,0.3,0.4,0.4,0.5c0,0,0.1,0.1,0.1,0.2
				c0.1,0.2,0.2,0.4,0.4,0.5c0,0.1,0.1,0.2,0.2,0.3c0.1,0.2,0.2,0.3,0.3,0.5c0,0.1,0.1,0.2,0.1,0.2c0.1,0.2,0.2,0.4,0.3,0.6
				c0,0.1,0.1,0.2,0.1,0.2c0.1,0.2,0.1,0.4,0.2,0.6C163.6,14,163.6,14.1,163.7,14.2z"/>
			<path class="st0" d="M147.6,26.5c-0.6,0.2-1.1,0.5-1.7,0.7c-0.2,0-0.4,0.1-0.5,0.2c-0.3,0.1-0.6,0.2-0.9,0.1
				c-0.1,0-0.2-0.1-0.3-0.2c-0.2-0.2-0.2-0.4-0.3-0.6c0-0.1,0.1-0.2,0.1-0.3c0,0,0,0,0-0.1c0,0,0-0.1,0.1-0.1l0,0c0,0,0,0,0.1-0.1
				l0,0c0,0,0,0,0.1,0l0,0c0,0,0.1,0,0.1-0.1l0,0c0.2,0,0.4-0.1,0.5-0.2c0.6-0.2,1.1-0.4,1.6-0.6c0,0,0.1,0,0.1-0.1l0,0
				c0.2-0.1,0.5-0.2,0.7-0.3c0.9-0.4,1.7-0.8,2.4-1.4c0,0,0,0,0.1,0l0,0c0,0,0.1,0,0.1-0.1l0,0c0.1-0.1,0.3-0.2,0.4-0.3
				c0.9-0.7,1.8-1.4,2.4-2.4c0,0,0,0,0-0.1c0,0,0.1-0.1,0.1-0.1c0.4-0.5,0.6-1,0.7-1.6c0-0.1,0.1-0.2,0.1-0.4c0.1-0.3,0-0.6,0-0.9
				c0-0.1,0-0.2-0.1-0.3c-0.1-0.2-0.2-0.4-0.4-0.6c0-0.1-0.1-0.1-0.2-0.1c-0.3-0.2-0.6-0.3-0.9-0.2c-0.2,0-0.4,0-0.5,0.1
				c-0.3,0-0.5,0.2-0.7,0.3c-0.7,0.4-1.3,0.9-1.8,1.5c-0.9,0.9-1.9,1.8-3,2.6c0,0-0.1,0-0.1,0.1c0,0,0,0-0.1,0
				c-0.3,0.1-0.5,0.3-0.8,0.4c-0.6,0.2-1.1,0.5-1.7,0.7c0,0-0.1,0-0.1,0l0,0c-0.1,0-0.3,0-0.4,0.1c-0.4,0-0.8,0.2-1.2,0.2
				c0,0-0.1,0-0.2,0c-0.2-0.1-0.4-0.3-0.4-0.5c0-0.1,0-0.2,0-0.2c0.1-0.4,0.3-0.6,0.8-0.8c0.2,0,0.3,0,0.5-0.1
				c0.6-0.1,1.1-0.3,1.7-0.6c0,0,0.1,0,0.1-0.1c0,0,0,0,0.1,0c0.2-0.1,0.4-0.2,0.6-0.3c0,0,0.1,0,0.1-0.1l0,0
				c0.9-0.5,1.7-1.1,2.4-1.9c1-1,2-1.9,3.3-2.6c0,0,0.1,0,0.1-0.1l0,0c0.2-0.1,0.4-0.1,0.6-0.2c0.4-0.1,0.8-0.1,1.1-0.2
				c0.1,0,0.2,0,0.3,0c0.3,0.1,0.5,0.1,0.8,0.2c0.1,0,0.1,0,0.2,0.1c0.2,0.1,0.4,0.2,0.6,0.4c0.1,0,0.1,0.1,0.2,0.2
				c0.1,0.1,0.3,0.3,0.4,0.4c0,0.1,0.1,0.1,0.1,0.2c0.1,0.2,0.2,0.4,0.3,0.6c0,0.1,0,0.2,0.1,0.2c0,0.3,0.1,0.5,0.1,0.8
				c0,0.1,0,0.2,0,0.3c0,0.3-0.1,0.7-0.2,1c0,0.2-0.1,0.4-0.2,0.6c-0.3,0.6-0.6,1.2-1,1.8c-0.1,0.2-0.3,0.4-0.4,0.5
				c-0.8,1-1.8,1.8-2.8,2.5c-0.8,0.5-1.6,1-2.5,1.4c0,0-0.1,0-0.1,0.1l0,0C148,26.3,147.8,26.4,147.6,26.5z"/>
			<path class="st0" d="M162.3,6.9c0.1,0.1,0.3,0.3,0.5,0.4c0.1,0.1,0.1,0.1,0.2,0.2c0.1,0.1,0.3,0.3,0.4,0.4
				c0.1,0.1,0.2,0.2,0.2,0.3c0.1,0.1,0.2,0.3,0.3,0.4c0.1,0.1,0.1,0.2,0.2,0.2c0.1,0.2,0.2,0.3,0.3,0.5c0,0.1,0.1,0.2,0.2,0.3
				c0.1,0.2,0.2,0.4,0.3,0.6c0,0.1,0.1,0.2,0.1,0.3c0.1,0.2,0.2,0.4,0.3,0.6c0,0.1,0,0.2,0.1,0.3c0,0.2,0.1,0.4,0.1,0.5
				c0,0.1,0,0.2,0,0.4c-0.1,0.3-0.3,0.6-0.7,0.7c-0.1,0-0.3,0-0.4,0c-0.2-0.1-0.4-0.2-0.5-0.4c0,0,0-0.1-0.1-0.1
				c0-0.3-0.1-0.5-0.2-0.7c0-0.1,0-0.1-0.1-0.2c-0.1-0.2-0.2-0.4-0.3-0.6c0-0.1-0.1-0.2-0.2-0.3c-0.1-0.2-0.2-0.3-0.3-0.5
				c0-0.1-0.1-0.1-0.1-0.2c-0.1-0.2-0.3-0.4-0.5-0.6c0-0.1-0.1-0.1-0.1-0.2c-0.1-0.2-0.2-0.3-0.4-0.4c-0.1-0.1-0.1-0.2-0.3-0.3
				c-0.1-0.1-0.2-0.3-0.4-0.4C161,8,161,7.9,160.9,7.9c-0.1-0.1-0.3-0.3-0.5-0.4c-0.1-0.1-0.2-0.1-0.3-0.2c-0.2-0.1-0.3-0.3-0.5-0.4
				c-0.1,0-0.2-0.1-0.2-0.1c-0.2-0.1-0.3-0.2-0.5-0.3c-0.1,0-0.2-0.1-0.3-0.2c-0.2-0.1-0.4-0.2-0.6-0.3c-0.1-0.1-0.2-0.1-0.4-0.2
				c-0.2-0.1-0.4-0.2-0.7-0.2c-0.1,0-0.2-0.1-0.3-0.1c-0.2-0.1-0.5-0.2-0.8-0.2c-0.1,0-0.2,0-0.3-0.1c-0.3-0.1-0.5-0.1-0.8-0.1
				c-0.1,0-0.2,0-0.3,0c-0.3,0-0.6-0.1-0.9-0.1c-0.1,0-0.2,0-0.3,0c-0.3,0-0.7-0.1-1,0c-0.1,0-0.2,0-0.3,0c-0.3,0-0.7,0-1,0
				c-0.1,0-0.2,0-0.3,0c-0.4,0-0.8,0-1.1,0.1c-0.2,0-0.3,0-0.5,0.1c-0.4,0.1-0.8,0.1-1.1,0.2c-0.1,0-0.3,0-0.4,0
				c-0.3,0-0.5-0.2-0.6-0.3c0,0,0-0.1-0.1-0.1c-0.1-0.6,0.1-1,0.8-1.1c0.2,0,0.4-0.1,0.6-0.2c0.1,0,0.3,0,0.4-0.1
				c0.4-0.1,0.8-0.1,1.2-0.2c0.1,0,0.3,0,0.4,0c0.3,0,0.7-0.1,1-0.1c0.1,0,0.2,0,0.3,0c0.3,0,0.7,0,1,0c0.1,0,0.2,0,0.3,0
				c0.3,0,0.6,0,0.9,0c0.1,0,0.2,0,0.3,0c0.3,0,0.6,0,0.9,0.1c0.1,0,0.2,0,0.3,0c0.3,0,0.5,0.1,0.8,0.1c0.1,0,0.2,0.1,0.3,0.1
				c0.3,0.1,0.5,0.1,0.8,0.2c0,0,0.1,0,0.2,0c0.2,0.1,0.5,0.2,0.7,0.2c0.1,0,0.2,0.1,0.4,0.2c0.2,0.1,0.4,0.2,0.7,0.3
				c0.1,0,0.1,0.1,0.2,0.1c0.2,0.1,0.4,0.2,0.6,0.3c0.1,0,0.2,0.1,0.3,0.2c0.2,0.1,0.4,0.2,0.6,0.3c0.1,0,0.1,0.1,0.2,0.1
				c0.2,0.1,0.3,0.2,0.5,0.4c0,0,0.1,0.1,0.2,0.1c0.2,0.1,0.4,0.3,0.6,0.4C162.2,6.7,162.3,6.8,162.3,6.9z"/>
			<path class="st0" d="M154.3,0.7c0.3,0,0.6,0.1,0.9,0.1c0.1,0,0.2,0,0.3,0c0.3,0,0.6,0.1,0.9,0.2c0.1,0,0.2,0,0.3,0.1
				c0.2,0,0.5,0.1,0.7,0.1c0.1,0,0.2,0.1,0.3,0.1c0.2,0,0.4,0.1,0.6,0.1c0.1,0.1,0.2,0.1,0.4,0.1c0.3,0.1,0.5,0.2,0.8,0.3
				c0.1,0,0.1,0,0.2,0.1c0.2,0.1,0.4,0.2,0.7,0.3c0.1,0,0.1,0.1,0.2,0.1c0.2,0.1,0.4,0.2,0.7,0.3c0,0,0.1,0.1,0.1,0.1
				c0.2,0.1,0.5,0.3,0.7,0.4c0,0,0.1,0.1,0.1,0.1c0.2,0.1,0.3,0.3,0.5,0.4c0,0,0.1,0.1,0.1,0.1c0.2,0.3,0.2,0.5,0.1,0.8
				c-0.1,0.2-0.3,0.3-0.5,0.4c-0.2,0.1-0.5,0-0.7,0c-0.1-0.1-0.2-0.1-0.3-0.2c-0.1-0.1-0.3-0.3-0.5-0.4c-0.1-0.1-0.2-0.1-0.3-0.2
				c-0.2-0.1-0.4-0.2-0.6-0.3c-0.1,0-0.1-0.1-0.2-0.1c-0.2-0.1-0.4-0.2-0.6-0.3c-0.1,0-0.2-0.1-0.4-0.1c-0.2-0.1-0.5-0.2-0.7-0.2
				c-0.1,0-0.1,0-0.2-0.1c-0.2-0.1-0.5-0.2-0.8-0.2c-0.1-0.1-0.2-0.1-0.3-0.1c-0.2,0-0.5-0.1-0.7-0.1c-0.1-0.1-0.2,0-0.3,0
				c-0.3-0.1-0.6-0.1-0.9-0.1c-0.1,0-0.2,0-0.3,0c-0.3-0.1-0.6-0.1-0.9-0.1c-0.1,0-0.2,0-0.3,0c-0.3-0.1-0.6-0.1-0.9-0.1
				c-0.1,0-0.2,0-0.3,0c-0.3,0-0.6,0-0.9,0c-0.1,0-0.2,0-0.3-0.1c-0.2-0.1-0.3-0.2-0.4-0.4c0-0.1,0-0.2-0.1-0.3
				c0.1-0.6,0.3-0.7,0.9-0.9c0.1,0,0.2,0,0.3,0c0.3,0,0.7,0,1,0c0.1,0,0.2,0,0.3,0c0.3,0,0.6,0.1,0.9,0.1
				C154.1,0.7,154.2,0.7,154.3,0.7z"/>
			<path class="st0" d="M141.9,24.6c0.1-0.4,0.4-0.6,0.8-0.7c0.1,0,0.3-0.1,0.5-0.1c0.5-0.1,1.1-0.3,1.6-0.6c0,0,0.1,0,0.1-0.1l0,0
				c0.2,0,0.3-0.1,0.5-0.2c0,0,0.1,0,0.1-0.1l0,0c2.2-1,4-2.6,5.2-4.6c0.3-0.5,0.5-0.6,1.2-0.6c0.1,0,0.1,0.1,0.2,0.1
				c0.2,0.2,0.3,0.3,0.3,0.6c0,0.1,0,0.2,0,0.3c-0.5,1-1.2,1.8-2,2.6c-1.1,1.1-2.3,2-3.7,2.8c0,0,0,0-0.1,0l0,0c0,0-0.1,0-0.1,0.1
				l0,0c-0.2,0.1-0.4,0.2-0.6,0.3c-0.5,0.2-1.1,0.4-1.6,0.6c-0.2,0-0.4,0.1-0.6,0.2c-0.3,0.1-0.7,0.2-1.1,0.2
				c-0.1,0-0.2-0.1-0.3-0.1c-0.2-0.1-0.3-0.3-0.3-0.5C141.9,24.8,141.9,24.7,141.9,24.6z"/>
		</g>
		<g>
			<path class="st0" d="M172.1,11V2.4h3.9c1.1,0,1.9,0.2,2.4,0.8c0.4,0.4,0.6,0.9,0.6,1.4c0,0.9-0.5,1.6-1.4,2c1.3,0.4,2,1.1,2,2.1
				c0,0.7-0.3,1.3-0.9,1.7c-0.6,0.4-1.4,0.6-2.4,0.6L172.1,11L172.1,11z M173.1,6.2h2.7c0.6,0,1.1-0.1,1.5-0.4
				c0.4-0.3,0.6-0.7,0.6-1.1c0-0.4-0.2-0.8-0.5-1s-0.9-0.4-1.5-0.4h-2.8L173.1,6.2L173.1,6.2z M173.1,10.1h3c0.7,0,1.2-0.1,1.6-0.4
				c0.4-0.3,0.6-0.7,0.6-1.1c0-0.5-0.2-0.8-0.6-1.1c-0.4-0.2-1-0.4-1.8-0.4h-2.9V10.1z"/>
			<path class="st0" d="M180.7,11l4.1-8.6h1l4.1,8.6h-1.1l-1.1-2.3h-4.9l-1.1,2.3H180.7z M183.2,7.9h4.1l-2-4.4L183.2,7.9z"/>
			<path class="st0" d="M191.7,11V2.4h3.9c1.1,0,2,0.3,2.6,0.9c0.5,0.4,0.7,1,0.7,1.7c0,0.7-0.2,1.2-0.7,1.7s-1,0.7-1.8,0.8l2.8,3.5
				H198l-2.6-3.3h-2.6V11H191.7z M192.7,6.8h2.8c0.7,0,1.2-0.2,1.7-0.5c0.4-0.3,0.7-0.8,0.7-1.3c0-0.5-0.2-1-0.6-1.2
				c-0.4-0.3-1-0.4-1.7-0.4h-2.8V6.8z"/>
			<path class="st0" d="M201.1,11V2.4h1V11H201.1z"/>
			<path class="st0" d="M204.8,11V2.4h1v7.7h5.1V11L204.8,11L204.8,11z"/>
			<path class="st0" d="M219.8,9.8c-0.9,0.9-2,1.3-3.3,1.3c-1.3,0-2.5-0.4-3.3-1.3c-0.9-0.9-1.3-1.9-1.3-3.1s0.4-2.2,1.3-3.1
				s2-1.3,3.3-1.3c1.3,0,2.5,0.4,3.3,1.3c0.9,0.9,1.3,1.9,1.3,3.1S220.7,9,219.8,9.8z M214,9.2c0.7,0.7,1.5,1,2.6,1s1.9-0.3,2.5-1
				c0.7-0.7,1-1.5,1-2.5c0-1-0.3-1.8-1-2.5c-0.7-0.7-1.5-1-2.6-1c-1,0-1.9,0.3-2.5,1c-0.7,0.7-1,1.5-1,2.5
				C213,7.7,213.3,8.5,214,9.2z"/>
			<path class="st0" d="M227.5,11.1c-1.3,0-2.4-0.4-3.2-1.3c-0.9-0.9-1.3-1.9-1.3-3.1c0-1.2,0.4-2.3,1.3-3.1c0.9-0.9,2-1.3,3.3-1.3
				c0.8,0,1.4,0.1,2,0.3c0.5,0.2,1,0.6,1.6,1l-0.7,0.7c-0.9-0.8-1.8-1.2-2.9-1.2c-1,0-1.8,0.3-2.5,1c-0.7,0.7-1,1.5-1,2.5
				s0.3,1.8,1,2.5c0.7,0.7,1.5,1,2.5,1c0.6,0,1.1-0.1,1.6-0.3c0.4-0.2,0.9-0.5,1.4-0.9l0.7,0.7c-0.5,0.5-1,0.9-1.6,1.1
				C228.9,11,228.2,11.1,227.5,11.1z"/>
			<path class="st0" d="M232.9,11V2.4h1v3.8h5.2V2.4h1V11h-1V7.1h-5.2V11H232.9z"/>
			<path class="st0" d="M242.7,11V2.4h6.6v0.9h-5.5v2.9h5v0.9h-5v3h5.6V11L242.7,11L242.7,11z"/>
		</g>
	</g>
	<g>
		<path class="st0" d="M25.8,14.5c-2.7,0.7-3.9,1.9-5.1,3.5c0.1-0.9,0.1-1.7,0-2.2c0-0.1,0-0.3-0.1-0.6v-0.1c2.3-2.2,5-2.7,6.4-2.6
			c0.2,0,0.4,0,0.6,0v-2.2c-3.7-0.7-5.8,1.9-5.8,1.9c-1.8,2-3.6,1.4-3.6,1.4s-1.3-0.3-1.4-0.7c-0.1-0.1,0.1-0.4,0.1-0.4
			c4-4.5,8.2-4.5,10.8-3.8V0H0v13.2c0.3-0.7,0.8-1.1,0.8-1.1c0.8,0.3,1.8,0.5,1.8,0.5c-1.8,0.8-2.3,2-2.2,2.8c0,0.3-0.2,0.4-0.3,0.3
			v2.5c0.5-0.8,1-1.5,1.4-1.9c0.3,0.2,1.4,0.7,2.8,0.9L1,19.5c-0.6,0.7-0.9,1.1-1,1.6v2.3c5-5.6,11.5-4.9,11.7-4.8
			c0.6,0.7,1.4,1.6,2.2,2.6C7,19.4,2.5,22.8,0,25.6v2.1h27.7V14.5C27,14.3,26.3,14.4,25.8,14.5 M14.4,4L14.4,4
			c0.7-0.8,1.9-1.2,3.4-1.2c2.1,0,3.7,1.1,3.7,2.5c0,0.2,0,0.4-0.1,0.5C21,7.2,16,12.6,16,12.6c-0.1,0.1-0.1,0.1-0.2,0.2
			c-0.3-0.8-0.3-2.6,1.4-6.9c0.1-0.3,0-0.4-0.2,0c-2.3,4-2.4,5.9-2.3,6.6C12.2,6.4,14.4,4,14.4,4 M11.3,2.8c0,0,0.5,6.5,3.4,10.8
			c0.3,0.4-0.3,0.9-0.6,0.4c-0.2-0.3-3-7.5-3.8-11C10.1,2.3,11.2,2,11.3,2.8 M9.1,7.9c0.3-0.4,0.9-0.4,0.9-0.4
			c0.7,0.1,0.2,0.7,0.2,0.7c-0.4,0.5-0.8,0.5-1,0.3C9,8.2,9.1,8,9.1,7.9 M7.2,5.3c0.5,0,0.9,0.5,0.9,0.5c0.4,0.6-0.4,0.6-0.4,0.6
			C7,6.5,6.8,6.1,6.8,5.8C6.8,5.5,7.1,5.4,7.2,5.3 M1.1,11.6c0,0,6.5-5.3,11.5,0.7c-1-0.4-2.8-1-6-1c-0.4,0-0.4,0.2-0.1,0.2
			c4.3,0.7,5.9,1.6,6.5,2.3C12.2,14.3,9.6,14.4,1.1,11.6 M1.7,15.8c3.8-2,8.1-1.5,9.7-1.2c0.4,0.1,0.8,0.1,0.3,0.8
			C9.2,18.6,1.7,15.8,1.7,15.8 M18.9,24.6c-0.4,1.6-1.2,0.2-1.2,0.2c-1.5-2.5-3.8-5.1-4.9-6.4c-0.1-0.2-0.5-0.5-0.6-0.6
			c-0.2-0.3-0.4-0.6-0.4-0.9c0-1,1.1-1.7,2.5-1.7c0.2,0,0.4,0,0.5,0c0.7,0.6,1.7,2.1,2.7,6.3c0.1,0.3,0.3,0.3,0.2-0.1
			c-0.4-4-1.2-5.7-1.8-6.4c0.1-0.1,0.3-0.2,0.5-0.4c1.2-0.7,2.6-0.7,3.1,0.1c0.2,0.3,0.2,0.9,0.2,1.1C19.9,17.9,18.9,24.6,18.9,24.6
			"/>
		<g>
			<path class="st0" d="M33.6,0.5h4.3c0.6,0,1.1,0.1,1.6,0.2s0.8,0.4,1.1,0.7c0.4,0.4,0.7,1,0.7,1.6v0c0,0.4,0,0.7-0.1,1
				c-0.1,0.3-0.2,0.5-0.4,0.7c-0.2,0.2-0.4,0.4-0.6,0.5s-0.4,0.2-0.6,0.3c0.3,0.1,0.6,0.2,0.9,0.3c0.3,0.1,0.5,0.3,0.7,0.5
				c0.2,0.2,0.4,0.4,0.5,0.7c0.1,0.3,0.2,0.6,0.2,1v0c0,0.4-0.1,0.8-0.3,1.2c-0.2,0.3-0.4,0.7-0.8,0.9c-0.3,0.2-0.7,0.4-1.2,0.6
				c-0.5,0.1-1,0.2-1.5,0.2h-4.5L33.6,0.5L33.6,0.5z M37.8,5.3c0.4,0,0.8,0,1.1-0.1c0.3-0.1,0.6-0.2,0.9-0.4
				c0.2-0.2,0.4-0.4,0.6-0.7c0.1-0.3,0.2-0.6,0.2-0.9v0c0-0.6-0.2-1-0.7-1.4c-0.4-0.4-1.1-0.5-1.9-0.5h-3.5v4.1L37.8,5.3L37.8,5.3z
				 M38.1,10.2c0.9,0,1.6-0.2,2.1-0.6C40.8,9.2,41,8.7,41,8v0c0-0.7-0.3-1.1-0.8-1.5C39.7,6.1,38.9,6,37.8,6h-3.5v4.2L38.1,10.2
				L38.1,10.2L38.1,10.2z"/>
			<path class="st0" d="M48,0.4h0.8l4.9,10.5h-0.9L51.4,8h-6.2l-1.3,2.9h-0.8L48,0.4z M51.1,7.3l-2.7-6l-2.8,6H51.1z"/>
			<path class="st0" d="M55.5,0.5h4.4c0.6,0,1.2,0.1,1.7,0.3c0.5,0.2,0.9,0.4,1.2,0.8c0.2,0.2,0.4,0.5,0.6,0.9
				c0.1,0.3,0.2,0.7,0.2,1.1v0c0,0.4-0.1,0.8-0.2,1.2C63.3,5,63,5.3,62.8,5.5c-0.3,0.2-0.6,0.4-1,0.6c-0.4,0.1-0.8,0.3-1.2,0.3
				l3.4,4.5h-1l-3.3-4.3h0h-3.4v4.3h-0.8L55.5,0.5L55.5,0.5L55.5,0.5z M59.8,5.9c0.4,0,0.9,0,1.2-0.2c0.4-0.1,0.7-0.3,1-0.5
				c0.3-0.2,0.5-0.5,0.6-0.8c0.1-0.3,0.2-0.6,0.2-1v0c0-0.7-0.3-1.3-0.8-1.7c-0.5-0.4-1.3-0.6-2.2-0.6h-3.6v4.7H59.8z"/>
			<rect x="66.1" y="0.5" class="st0" width="0.8" height="10.4"/>
			<polygon class="st0" points="69.8,0.5 70.6,0.5 70.6,10.2 76.7,10.2 76.7,10.9 69.8,10.9 			"/>
			<path class="st0" d="M82.9,11.1c-0.8,0-1.5-0.1-2.1-0.4c-0.7-0.3-1.2-0.7-1.7-1.2c-0.5-0.5-0.8-1.1-1-1.7s-0.4-1.3-0.4-2v0
				c0-0.7,0.1-1.4,0.4-2c0.2-0.7,0.6-1.2,1.1-1.7c0.5-0.5,1-0.9,1.7-1.2c0.7-0.3,1.4-0.4,2.1-0.4c0.8,0,1.5,0.1,2.1,0.4
				c0.6,0.3,1.2,0.7,1.7,1.2c0.5,0.5,0.8,1.1,1,1.7c0.2,0.7,0.4,1.3,0.4,2v0c0,0.7-0.1,1.4-0.4,2c-0.2,0.7-0.6,1.2-1.1,1.7
				c-0.5,0.5-1,0.9-1.7,1.2C84.4,11,83.7,11.1,82.9,11.1 M82.9,10.4c0.7,0,1.2-0.1,1.8-0.4s1-0.6,1.4-1c0.4-0.4,0.7-0.9,0.9-1.5
				c0.2-0.6,0.3-1.2,0.3-1.8v0c0-0.6-0.1-1.2-0.3-1.8c-0.2-0.6-0.5-1.1-0.9-1.5c-0.4-0.4-0.9-0.8-1.4-1C84.2,1.1,83.6,1,82.9,1
				s-1.2,0.1-1.8,0.4c-0.5,0.2-1,0.6-1.4,1c-0.4,0.4-0.7,0.9-0.9,1.5c-0.2,0.6-0.3,1.2-0.3,1.8v0c0,0.7,0.1,1.3,0.3,1.8
				s0.5,1.1,0.9,1.5c0.4,0.4,0.9,0.8,1.4,1C81.7,10.3,82.3,10.4,82.9,10.4"/>
			<path class="st0" d="M95.2,11.1c-0.8,0-1.4-0.1-2.1-0.4c-0.6-0.3-1.2-0.7-1.6-1.1c-0.5-0.5-0.8-1-1.1-1.7C90.2,7.2,90,6.5,90,5.7
				v0c0-0.7,0.1-1.4,0.4-2.1c0.3-0.7,0.6-1.2,1.1-1.7c0.5-0.5,1-0.9,1.7-1.2s1.3-0.4,2.1-0.4c0.5,0,0.9,0,1.3,0.1
				c0.4,0.1,0.7,0.2,1,0.3c0.3,0.1,0.6,0.3,0.9,0.5c0.3,0.2,0.6,0.4,0.8,0.7l-0.6,0.6c-0.2-0.2-0.5-0.4-0.7-0.6
				c-0.2-0.2-0.5-0.3-0.8-0.5c-0.3-0.1-0.6-0.2-0.9-0.3C96,1,95.6,1,95.3,1c-0.6,0-1.2,0.1-1.8,0.4s-1,0.6-1.4,1
				c-0.4,0.4-0.7,0.9-0.9,1.5C91,4.4,90.8,5,90.8,5.7v0c0,0.7,0.1,1.3,0.3,1.9c0.2,0.6,0.5,1.1,0.9,1.5c0.4,0.4,0.9,0.8,1.4,1
				c0.5,0.2,1.1,0.4,1.8,0.4c0.8,0,1.4-0.1,2-0.4c0.6-0.3,1.1-0.7,1.6-1.2l0.5,0.5c-0.3,0.3-0.6,0.5-0.9,0.7s-0.6,0.4-1,0.6
				s-0.7,0.3-1.1,0.4C96.1,11,95.7,11.1,95.2,11.1"/>
			<polygon class="st0" points="101.2,0.4 102,0.4 102,5.1 108.7,5.1 108.7,0.4 109.5,0.4 109.5,10.5 108.7,10.5 108.7,5.8 102,5.8 
				102,10.5 101.2,10.5 			"/>
			<polygon class="st0" points="112.3,0.5 119.7,0.5 119.7,1.2 113,1.2 113,5.3 119,5.3 119,6 113,6 113,10.2 119.8,10.2 
				119.8,10.9 112.3,10.9 			"/>
			<path class="st0" d="M36,26.7c0,0.2-0.1,0.3-0.3,0.3h-2c-0.2,0-0.3-0.1-0.3-0.3v-9.4c0-0.2,0.1-0.3,0.3-0.3h2
				c0.2,0,0.4,0.1,0.4,0.3l2.6,5.2c0,0.1,0.2,0.1,0.2,0l2.7-5.2c0.1-0.1,0.3-0.3,0.4-0.3h2c0.2,0,0.3,0.1,0.3,0.3v9.4
				c0,0.2-0.1,0.3-0.3,0.3h-2c-0.2,0-0.3-0.1-0.3-0.3v-4.6c0-0.1-0.1-0.1-0.1,0l-1.8,3.7c-0.1,0.1-0.3,0.3-0.4,0.3h-1.1
				c-0.2,0-0.4-0.1-0.4-0.3l-1.8-3.7c0-0.1-0.1,0-0.1,0L36,26.7L36,26.7z"/>
			<path class="st0" d="M53.8,17.3c0-0.2,0.1-0.3,0.3-0.3h2c0.2,0,0.3,0.1,0.3,0.3v5.3c0,2.6-1.6,4.6-4.6,4.6c-3,0-4.6-2-4.6-4.6
				v-5.3c0-0.2,0.1-0.3,0.3-0.3h2c0.2,0,0.3,0.1,0.3,0.3v5.2c0,1.5,0.7,2.2,2,2.2c1.3,0,2-0.8,2-2.2L53.8,17.3L53.8,17.3z"/>
			<path class="st0" d="M61.6,26.7c0,0.2-0.1,0.3-0.3,0.3h-2c-0.2,0-0.3-0.1-0.3-0.3v-9.4c0-0.2,0.1-0.3,0.3-0.3h1.6
				c0.2,0,0.4,0.1,0.5,0.2l4.1,5.2c0,0.1,0.1,0,0.1,0v-5c0-0.2,0.1-0.3,0.3-0.3h2c0.2,0,0.3,0.1,0.3,0.3v9.4c0,0.2-0.1,0.3-0.3,0.3
				h-1.6c-0.2,0-0.4-0.1-0.5-0.2l-4.1-5.1c0-0.1-0.1,0-0.1,0V26.7z"/>
			<path class="st0" d="M71.1,17.3c0-0.2,0.1-0.3,0.3-0.3h2c0.2,0,0.3,0.1,0.3,0.3v9.4c0,0.2-0.1,0.3-0.3,0.3h-2
				c-0.2,0-0.3-0.1-0.3-0.3V17.3z"/>
			<path class="st0" d="M83.6,23.6c0.1-0.2,0.3-0.2,0.4-0.1l1.8,0.8c0.1,0,0.2,0.3,0.1,0.4c-0.9,1.6-2.7,2.6-4.6,2.6
				c-2.9,0-5.3-2.3-5.3-5.2s2.4-5.2,5.3-5.2c2,0,3.7,1,4.6,2.6c0.1,0.1,0,0.3-0.1,0.4L84,20.5c-0.2,0.1-0.3,0-0.4-0.1
				c-0.5-0.7-1.3-1.2-2.2-1.2c-1.5,0-2.7,1.2-2.7,2.7s1.2,2.7,2.7,2.7C82.3,24.8,83.1,24.3,83.6,23.6"/>
			<path class="st0" d="M88.3,17.3c0-0.2,0.1-0.3,0.3-0.3h2c0.2,0,0.3,0.1,0.3,0.3v9.4c0,0.2-0.1,0.3-0.3,0.3h-2
				c-0.2,0-0.3-0.1-0.3-0.3V17.3z"/>
			<path class="st0" d="M94,27c-0.2,0-0.3-0.1-0.3-0.3v-9.4c0-0.2,0.1-0.3,0.3-0.3h4.1c2.7,0,4,1.8,4,3.9c0,2.1-1.3,3.9-4,3.9h-1.6
				c-0.1,0-0.3,0.1-0.3,0.3v1.7c0,0.2-0.1,0.3-0.3,0.3L94,27L94,27z M98,19.3h-1.5c-0.1,0-0.3,0.1-0.3,0.3v2.6
				c0,0.1,0.1,0.3,0.3,0.3H98c1.1,0,1.5-0.7,1.5-1.6C99.5,20.1,99.1,19.3,98,19.3"/>
			<path class="st0" d="M104.4,17.3c0-0.2,0.1-0.3,0.3-0.3h2c0.2,0,0.3,0.1,0.3,0.3v9.4c0,0.2-0.1,0.3-0.3,0.3h-2
				c-0.2,0-0.3-0.1-0.3-0.3V17.3z"/>
			<path class="st0" d="M109.3,22c0-2.9,2.4-5.2,5.3-5.2c2.9,0,5.3,2.3,5.3,5.2s-2.4,5.2-5.3,5.2C111.7,27.2,109.3,24.9,109.3,22
				 M111.9,22c0,1.5,1.2,2.7,2.7,2.7c1.5,0,2.7-1.2,2.7-2.7s-1.2-2.7-2.7-2.7C113.1,19.3,111.9,20.5,111.9,22"/>
		</g>
	</g>
</g>
</svg>
