<?xml version="1.0" encoding="utf-8"?>
<!-- Generator: Adobe Illustrator 22.0.0, SVG Export Plug-In . SVG Version: 6.00 Build 0)  -->
<svg version="1.1" id="Layer_1" xmlns="http://www.w3.org/2000/svg" xmlns:xlink="http://www.w3.org/1999/xlink" x="0px" y="0px"
	 viewBox="0 0 627.4 95.9" style="enable-background:new 0 0 627.4 95.9;" xml:space="preserve">
<style type="text/css">
	.st0{fill:#FFFFFF;stroke:#FFFFFF;stroke-miterlimit:10;}
	.st1{fill:#D9AE30;}
</style>
<g>
	<path class="st0" d="M9.8,23c-2.4-0.9-4.2-2.1-5.5-3.7c-1.3-1.6-2-3.6-2-6c0-2.6,0.7-4.8,2-6.7c1.3-1.9,3.2-3.4,5.7-4.5
		c2.4-1.1,5.3-1.6,8.5-1.6c3.1,0,5.9,0.6,8.5,1.9c2.6,1.3,4.6,3.1,6.1,5.4c1.5,2.3,2.2,5,2.2,8h-2.4c0-2.6-0.6-4.9-1.9-6.9
		c-1.3-2-3-3.5-5.2-4.6c-2.2-1.1-4.6-1.6-7.3-1.6c-2.4,0-4.6,0.4-6.7,1.1c-2.1,0.7-3.8,1.9-5,3.4c-1.3,1.5-1.9,3.5-1.9,5.8
		c0,2.1,0.6,3.8,1.8,5c1.2,1.3,2.8,2.2,4.8,2.9c2,0.7,4.8,1.4,8.3,2.1c3.6,0.7,6.4,1.5,8.4,2.1c2,0.7,3.7,1.8,5.1,3.4
		c1.4,1.6,2.1,3.8,2.1,6.7c0,2.9-0.8,5.3-2.3,7.2c-1.5,2-3.5,3.4-6,4.4c-2.5,1-5.2,1.5-8.2,1.5c-3.7,0-6.9-0.7-9.6-2
		c-2.8-1.4-4.9-3.3-6.4-5.8c-1.5-2.5-2.2-5.3-2.2-8.5h2.4c0,2.8,0.6,5.3,1.9,7.4c1.3,2.1,3.1,3.8,5.4,4.9c2.4,1.2,5.2,1.7,8.4,1.7
		c4,0,7.4-1,10.1-2.9c2.7-1.9,4-4.6,4-7.9c0-2.3-0.6-4-1.7-5.3c-1.1-1.2-2.6-2.1-4.3-2.7c-1.7-0.5-4.3-1.2-7.8-1.9
		C15.2,24.8,12.1,23.9,9.8,23z"/>
	<path class="st0" d="M77.2,3.1c2.9,1.7,5.2,4,6.9,6.9c1.7,2.9,2.5,6.1,2.5,9.5v10c0,3.4-0.8,6.6-2.5,9.5c-1.7,2.9-4,5.2-6.9,6.9
		c-2.9,1.7-6.1,2.5-9.5,2.5s-6.6-0.8-9.5-2.5c-2.9-1.7-5.2-4-6.9-6.9c-1.7-2.9-2.5-6.1-2.5-9.5v-10c0-3.4,0.8-6.6,2.5-9.5
		c1.7-2.9,4-5.2,6.9-6.9c2.9-1.7,6.1-2.5,9.5-2.5S74.3,1.4,77.2,3.1z M53.4,37.8c1.5,2.5,3.5,4.5,6,6c2.5,1.5,5.3,2.2,8.3,2.2
		c3,0,5.8-0.7,8.3-2.2c2.5-1.5,4.5-3.5,6-6c1.5-2.5,2.2-5.3,2.2-8.3v-10c0-3-0.7-5.8-2.2-8.3c-1.5-2.5-3.5-4.5-6-6
		C73.4,3.7,70.7,3,67.7,3c-3,0-5.8,0.7-8.3,2.2c-2.5,1.5-4.5,3.5-6,6c-1.5,2.5-2.2,5.3-2.2,8.3v10C51.2,32.5,51.9,35.3,53.4,37.8z"
		/>
	<path class="st0" d="M103.3,47.5V1.6h2.4v43.5h32v2.4H103.3z"/>
	<path class="st0" d="M225.8,4.1c2.8,1.7,5.1,3.9,6.8,6.8c1.7,2.8,2.5,5.9,2.5,9.3v8.8c0,3.3-0.8,6.4-2.5,9.3
		c-1.7,2.8-3.9,5.1-6.8,6.8s-5.9,2.5-9.3,2.5h-17V1.6h17C219.9,1.6,223,2.4,225.8,4.1z M232.6,20.1c0-2.9-0.7-5.6-2.2-8.1
		c-1.5-2.5-3.4-4.4-5.9-5.9C222,4.7,219.4,4,216.4,4H202v41.1h14.5c2.9,0,5.6-0.7,8.1-2.2c2.5-1.5,4.5-3.4,5.9-5.9
		c1.5-2.5,2.2-5.1,2.2-8.1V20.1z"/>
	<path class="st0" d="M250.9,1.6h32.3V4h-29.9v18.6h26v2.4h-26v20h29.9v2.4h-32.3V1.6z"/>
	<path class="st0" d="M348.3,47.5V1.6h2.6L383,32.7V1.6h2.4v45.9H383V36.1L350.8,4.7v42.8H348.3z"/>
	<path class="st0" d="M425.5,3.1c2.9,1.7,5.2,4,6.9,6.9c1.7,2.9,2.5,6.1,2.5,9.5v10c0,3.4-0.8,6.6-2.5,9.5c-1.7,2.9-4,5.2-6.9,6.9
		c-2.9,1.7-6.1,2.5-9.5,2.5c-3.4,0-6.6-0.8-9.5-2.5c-2.9-1.7-5.2-4-6.9-6.9c-1.7-2.9-2.5-6.1-2.5-9.5v-10c0-3.4,0.8-6.6,2.5-9.5
		c1.7-2.9,4-5.2,6.9-6.9c2.9-1.7,6.1-2.5,9.5-2.5C419.5,0.6,422.6,1.4,425.5,3.1z M401.7,37.8c1.5,2.5,3.5,4.5,6,6
		c2.5,1.5,5.3,2.2,8.3,2.2c3,0,5.8-0.7,8.3-2.2c2.5-1.5,4.5-3.5,6-6c1.5-2.5,2.2-5.3,2.2-8.3v-10c0-3-0.7-5.8-2.2-8.3
		c-1.5-2.5-3.5-4.5-6-6C421.8,3.7,419,3,416,3c-3,0-5.8,0.7-8.3,2.2c-2.5,1.5-4.5,3.5-6,6c-1.5,2.5-2.2,5.3-2.2,8.3v10
		C399.5,32.5,400.3,35.3,401.7,37.8z"/>
	<path class="st0" d="M452.2,38c1.5,2.5,3.5,4.4,5.9,5.9c2.5,1.5,5.2,2.2,8.1,2.2c3,0,5.7-0.6,8.1-1.8c2.4-1.2,4.3-2.8,5.7-5
		c1.4-2.1,2.1-4.5,2.1-7.1h2.4c0,3-0.8,5.8-2.4,8.3c-1.6,2.5-3.8,4.4-6.6,5.9c-2.8,1.4-5.9,2.1-9.3,2.1c-3.3,0-6.4-0.8-9.3-2.5
		c-2.9-1.7-5.1-3.9-6.8-6.8c-1.7-2.8-2.5-5.9-2.5-9.3V19.1c0-3.3,0.8-6.4,2.5-9.3c1.6-2.8,3.9-5.1,6.7-6.8c2.8-1.7,5.9-2.5,9.3-2.5
		c3.4,0,6.5,0.7,9.3,2.1c2.8,1.4,5,3.4,6.6,5.9c1.6,2.5,2.4,5.2,2.4,8.3h-2.4c0-2.6-0.8-5-2.2-7.1c-1.4-2.1-3.3-3.8-5.7-5
		c-2.4-1.2-5.1-1.8-8.1-1.8c-2.9,0-5.6,0.7-8.1,2.2c-2.5,1.5-4.4,3.4-5.9,5.9c-1.5,2.5-2.2,5.1-2.2,8.1v10.8
		C450,32.8,450.8,35.5,452.2,38z"/>
	<path class="st0" d="M497.9,47.5V1.6h2.4v21.7h30.5V1.6h2.4v45.9h-2.4V25.7h-30.5v21.8H497.9z"/>
	<path class="st0" d="M549.5,1.6h32.3V4h-29.9v18.6h26v2.4h-26v20h29.9v2.4h-32.3V1.6z"/>
</g>
<g>
	<g>
		<path class="st0" d="M11.6,78.3v0.9h-5v14.9h5V95H0.7v-0.9h5V79.2h-5v-0.9H11.6z"/>
		<path class="st0" d="M30.1,80.9c0.6,0.9,0.8,1.9,0.8,2.9c0,1.2-0.4,2.4-1.1,3.3c-0.8,1-1.7,1.6-2.9,2l4.2,5.9h-1.1L26,89.3l-0.8,0
			h-6V95h-0.9V78.3h6.4c0.7,0,1.3,0,1.8,0.1s1,0.2,1.4,0.4C28.8,79.3,29.6,80,30.1,80.9z M25.5,88.4c0.8,0,1.6-0.2,2.3-0.6
			c0.7-0.4,1.3-1,1.7-1.7c0.4-0.7,0.6-1.5,0.6-2.3c0-0.9-0.2-1.8-0.7-2.5c-0.5-0.8-1.2-1.3-2-1.7c-0.6-0.3-1.5-0.4-2.6-0.4h-5.5v9.2
			H25.5z"/>
		<path class="st0" d="M48.2,80.9c0.6,0.9,0.8,1.9,0.8,2.9c0,1.2-0.4,2.4-1.1,3.3c-0.8,1-1.7,1.6-2.9,2l4.2,5.9h-1.1l-4.1-5.8
			l-0.8,0h-6V95h-0.9V78.3h6.4c0.7,0,1.3,0,1.8,0.1s1,0.2,1.4,0.4C46.9,79.3,47.7,80,48.2,80.9z M43.5,88.4c0.8,0,1.6-0.2,2.3-0.6
			c0.7-0.4,1.3-1,1.7-1.7c0.4-0.7,0.6-1.5,0.6-2.3c0-0.9-0.2-1.8-0.7-2.5c-0.5-0.8-1.2-1.3-2-1.7c-0.6-0.3-1.5-0.4-2.6-0.4h-5.5v9.2
			H43.5z"/>
		<path class="st0" d="M53.7,78.3h0.9v10.3c0,1.1,0.3,2,0.8,2.9c0.5,0.9,1.2,1.6,2.1,2.1c0.9,0.5,1.9,0.8,2.9,0.8
			c1.1,0,2-0.3,2.9-0.8c0.9-0.5,1.6-1.2,2.1-2.1c0.5-0.9,0.8-1.9,0.8-2.9V78.3h0.9v10.3c0,1.2-0.3,2.3-0.9,3.4
			c-0.6,1-1.4,1.9-2.5,2.5c-1,0.6-2.2,0.9-3.4,0.9s-2.3-0.3-3.4-0.9c-1-0.6-1.9-1.4-2.5-2.5c-0.6-1-0.9-2.2-0.9-3.4V78.3z"/>
		<path class="st0" d="M73.9,95H73V78.3h6.7c1.1,0,2.2,0.2,3.1,0.7c1,0.5,1.7,1.2,2.3,2c0.6,0.9,0.8,1.9,0.8,3c0,1.1-0.3,2.1-0.9,3
			c-0.6,0.9-1.3,1.6-2.3,2.1c-0.8,0.4-1.9,0.6-3,0.6h-5.8V95z M73.9,89.1h5.8c1,0,1.9-0.2,2.5-0.5c0.8-0.4,1.5-1,2-1.8
			c0.5-0.8,0.8-1.7,0.8-2.7c0-1-0.3-1.8-0.8-2.6c-0.5-0.8-1.2-1.4-2.1-1.8c-0.7-0.3-1.5-0.5-2.5-0.5h-5.8V89.1z"/>
		<path class="st0" d="M91.7,91.6c0.5,0.9,1.3,1.6,2.2,2.1s1.9,0.8,2.9,0.8c1.1,0,2.1-0.2,3-0.6c0.9-0.4,1.6-1,2.1-1.8
			c0.5-0.8,0.8-1.6,0.8-2.6h0.9c0,1.1-0.3,2.1-0.9,3c-0.6,0.9-1.4,1.6-2.4,2.1c-1,0.5-2.1,0.8-3.4,0.8c-1.2,0-2.3-0.3-3.4-0.9
			c-1-0.6-1.9-1.4-2.5-2.5c-0.6-1-0.9-2.2-0.9-3.4v-3.9c0-1.2,0.3-2.3,0.9-3.4c0.6-1,1.4-1.9,2.4-2.5c1-0.6,2.2-0.9,3.4-0.9
			c1.2,0,2.4,0.3,3.4,0.8c1,0.5,1.8,1.2,2.4,2.1c0.6,0.9,0.9,1.9,0.9,3h-0.9c0-1-0.3-1.8-0.8-2.6c-0.5-0.8-1.2-1.4-2.1-1.8
			s-1.9-0.6-2.9-0.6c-1.1,0-2,0.3-2.9,0.8c-0.9,0.5-1.6,1.2-2.1,2.1s-0.8,1.9-0.8,2.9v3.9C90.9,89.7,91.1,90.7,91.7,91.6z"/>
		<path class="st0" d="M120.1,78.3v0.9h-5v14.9h5V95h-10.8v-0.9h5V79.2h-5v-0.9H120.1z"/>
		<path class="st0" d="M136.3,78.9c1.1,0.6,1.9,1.5,2.5,2.5c0.6,1.1,0.9,2.2,0.9,3.5v3.6c0,1.2-0.3,2.4-0.9,3.5
			c-0.6,1.1-1.5,1.9-2.5,2.5c-1.1,0.6-2.2,0.9-3.5,0.9s-2.4-0.3-3.5-0.9c-1.1-0.6-1.9-1.5-2.5-2.5c-0.6-1.1-0.9-2.2-0.9-3.5v-3.6
			c0-1.2,0.3-2.4,0.9-3.5c0.6-1.1,1.5-1.9,2.5-2.5c1.1-0.6,2.2-0.9,3.5-0.9S135.2,78.3,136.3,78.9z M127.6,91.5
			c0.5,0.9,1.3,1.6,2.2,2.2c0.9,0.5,1.9,0.8,3,0.8s2.1-0.3,3-0.8c0.9-0.5,1.6-1.3,2.2-2.2c0.5-0.9,0.8-1.9,0.8-3v-3.6
			c0-1.1-0.3-2.1-0.8-3c-0.5-0.9-1.3-1.6-2.2-2.2c-0.9-0.5-1.9-0.8-3-0.8s-2.1,0.3-3,0.8c-0.9,0.5-1.6,1.3-2.2,2.2
			c-0.5,0.9-0.8,1.9-0.8,3v3.6C126.8,89.6,127.1,90.6,127.6,91.5z"/>
		<path class="st0" d="M144.4,95V78.3h0.9L157,89.6V78.3h0.9V95H157v-4.1l-11.7-11.4V95H144.4z"/>
		<path class="st0" d="M163.2,78.3H175v0.9h-10.9V86h9.5v0.9h-9.5v7.3H175V95h-11.8V78.3z"/>
		<path class="st0" d="M184.1,86.1c-0.9-0.3-1.5-0.8-2-1.3c-0.5-0.6-0.7-1.3-0.7-2.2c0-0.9,0.2-1.7,0.7-2.4c0.5-0.7,1.2-1.2,2.1-1.6
			c0.9-0.4,1.9-0.6,3.1-0.6c1.1,0,2.1,0.2,3.1,0.7s1.7,1.1,2.2,2c0.5,0.8,0.8,1.8,0.8,2.9h-0.9c0-0.9-0.2-1.8-0.7-2.5
			c-0.5-0.7-1.1-1.3-1.9-1.7c-0.8-0.4-1.7-0.6-2.7-0.6c-0.9,0-1.7,0.1-2.4,0.4c-0.8,0.3-1.4,0.7-1.8,1.2c-0.5,0.6-0.7,1.3-0.7,2.1
			c0,0.8,0.2,1.4,0.7,1.8c0.4,0.5,1,0.8,1.8,1c0.7,0.2,1.7,0.5,3,0.8c1.3,0.3,2.3,0.5,3.1,0.8s1.3,0.7,1.8,1.2s0.8,1.4,0.8,2.4
			c0,1-0.3,1.9-0.8,2.6c-0.6,0.7-1.3,1.2-2.2,1.6s-1.9,0.5-3,0.5c-1.3,0-2.5-0.2-3.5-0.7c-1-0.5-1.8-1.2-2.3-2.1
			c-0.5-0.9-0.8-1.9-0.8-3.1h0.9c0,1,0.2,1.9,0.7,2.7c0.5,0.8,1.1,1.4,2,1.8c0.9,0.4,1.9,0.6,3.1,0.6c1.5,0,2.7-0.4,3.7-1.1
			c1-0.7,1.5-1.7,1.5-2.9c0-0.8-0.2-1.5-0.6-1.9s-0.9-0.8-1.6-1c-0.6-0.2-1.6-0.4-2.8-0.7C186.1,86.8,185,86.5,184.1,86.1z"/>
		<path class="st0" d="M226.5,79.2c1,0.6,1.9,1.4,2.5,2.5c0.6,1,0.9,2.2,0.9,3.4v3.2c0,1.2-0.3,2.3-0.9,3.4c-0.6,1-1.4,1.9-2.5,2.5
			s-2.2,0.9-3.4,0.9h-6.2V78.3h6.2C224.3,78.3,225.5,78.6,226.5,79.2z M229,85.1c0-1.1-0.3-2-0.8-2.9c-0.5-0.9-1.2-1.6-2.1-2.1
			c-0.9-0.5-1.9-0.8-2.9-0.8h-5.3v14.9h5.3c1.1,0,2-0.3,2.9-0.8c0.9-0.5,1.6-1.2,2.1-2.1c0.5-0.9,0.8-1.9,0.8-2.9V85.1z"/>
		<path class="st0" d="M235.6,78.3h11.8v0.9h-10.9V86h9.5v0.9h-9.5v7.3h10.9V95h-11.8V78.3z"/>
		<path class="st0" d="M271.2,78.3l6.4,15.5l6.4-15.5h0.9L278,95h-0.9l-6.9-16.7H271.2z"/>
		<path class="st0" d="M301.1,78.3v0.9h-5v14.9h5V95h-10.8v-0.9h5V79.2h-5v-0.9H301.1z"/>
		<path class="st0" d="M317,79.2c1,0.6,1.9,1.4,2.5,2.5c0.6,1,0.9,2.2,0.9,3.4v3.2c0,1.2-0.3,2.3-0.9,3.4c-0.6,1-1.4,1.9-2.5,2.5
			s-2.2,0.9-3.4,0.9h-6.2V78.3h6.2C314.8,78.3,315.9,78.6,317,79.2z M319.4,85.1c0-1.1-0.3-2-0.8-2.9c-0.5-0.9-1.2-1.6-2.1-2.1
			c-0.9-0.5-1.9-0.8-2.9-0.8h-5.3v14.9h5.3c1.1,0,2-0.3,2.9-0.8c0.9-0.5,1.6-1.2,2.1-2.1c0.5-0.9,0.8-1.9,0.8-2.9V85.1z"/>
		<path class="st0" d="M326.1,78.3h11.8v0.9H327V86h9.5v0.9H327v7.3h10.9V95h-11.8V78.3z"/>
		<path class="st0" d="M353.4,78.9c1.1,0.6,1.9,1.5,2.5,2.5c0.6,1.1,0.9,2.2,0.9,3.5v3.6c0,1.2-0.3,2.4-0.9,3.5
			c-0.6,1.1-1.5,1.9-2.5,2.5c-1.1,0.6-2.2,0.9-3.5,0.9s-2.4-0.3-3.5-0.9c-1.1-0.6-1.9-1.5-2.5-2.5c-0.6-1.1-0.9-2.2-0.9-3.5v-3.6
			c0-1.2,0.3-2.4,0.9-3.5c0.6-1.1,1.5-1.9,2.5-2.5c1.1-0.6,2.2-0.9,3.5-0.9S352.4,78.3,353.4,78.9z M344.8,91.5
			c0.5,0.9,1.3,1.6,2.2,2.2c0.9,0.5,1.9,0.8,3,0.8s2.1-0.3,3-0.8s1.6-1.3,2.2-2.2c0.5-0.9,0.8-1.9,0.8-3v-3.6c0-1.1-0.3-2.1-0.8-3
			c-0.5-0.9-1.3-1.6-2.2-2.2s-1.9-0.8-3-0.8s-2.1,0.3-3,0.8c-0.9,0.5-1.6,1.3-2.2,2.2c-0.5,0.9-0.8,1.9-0.8,3v3.6
			C344,89.6,344.2,90.6,344.8,91.5z"/>
	</g>
</g>
<circle class="st1" cx="618.2" cy="42.8" r="9.1"/>
</svg>
