<?xml version="1.0" encoding="utf-8"?>
<!-- Generator: Adobe Illustrator 22.0.0, SVG Export Plug-In . SVG Version: 6.00 Build 0)  -->
<svg version="1.1" id="Layer_1" xmlns="http://www.w3.org/2000/svg" xmlns:xlink="http://www.w3.org/1999/xlink" x="0px" y="0px"
	 viewBox="0 0 252.5 54" style="enable-background:new 0 0 252.5 54;" xml:space="preserve">
<style type="text/css">
	.st0{fill:#FFFFFF;stroke:#FFFFFF;stroke-miterlimit:10;}
	.st1{fill:#D9AE30;}
</style>
<title>logo-mobile</title>
<g>
	<path class="st0" d="M4.3,25.7c-1-0.4-1.7-0.8-2.2-1.5c-0.5-0.6-0.8-1.4-0.8-2.4c0-1,0.3-1.9,0.8-2.7s1.3-1.4,2.3-1.8
		c1-0.4,2.1-0.6,3.4-0.6c1.2,0,2.4,0.2,3.4,0.8s1.8,1.2,2.5,2.2c0.6,0.9,0.9,2,0.9,3.2h-1c0-1-0.2-2-0.8-2.8
		c-0.5-0.8-1.2-1.4-2.1-1.8c-0.9-0.4-1.8-0.6-2.9-0.6c-1,0-1.8,0.2-2.7,0.4s-1.5,0.8-2,1.4c-0.5,0.6-0.8,1.4-0.8,2.3
		c0,0.8,0.2,1.5,0.7,2c0.5,0.5,1.1,0.9,1.9,1.2s1.9,0.6,3.3,0.8c1.4,0.3,2.6,0.6,3.4,0.8c0.8,0.3,1.5,0.7,2,1.4
		c0.6,0.6,0.8,1.5,0.8,2.7c0,1.2-0.3,2.1-0.9,2.9c-0.6,0.8-1.4,1.4-2.4,1.8c-1,0.4-2.1,0.6-3.3,0.6c-1.5,0-2.8-0.3-3.9-0.8
		c-1.1-0.6-2-1.3-2.6-2.3c-0.6-1-0.9-2.1-0.9-3.4h1c0,1.1,0.2,2.1,0.8,3s1.2,1.5,2.2,2c1,0.5,2.1,0.7,3.4,0.7c1.6,0,3-0.4,4.1-1.2
		s1.6-1.8,1.6-3.2c0-0.9-0.2-1.6-0.7-2.1c-0.4-0.5-1-0.8-1.7-1.1c-0.7-0.2-1.7-0.5-3.1-0.8C6.5,26.4,5.2,26.1,4.3,25.7z"/>
	<path class="st0" d="M31.4,17.7c1.2,0.7,2.1,1.6,2.8,2.8c0.7,1.2,1,2.5,1,3.8v4c0,1.4-0.3,2.7-1,3.8c-0.7,1.2-1.6,2.1-2.8,2.8
		c-1.2,0.7-2.5,1-3.8,1s-2.7-0.3-3.8-1c-1.2-0.7-2.1-1.6-2.8-2.8c-0.7-1.2-1-2.5-1-3.8v-4c0-1.4,0.3-2.7,1-3.8
		c0.7-1.2,1.6-2.1,2.8-2.8c1.2-0.7,2.5-1,3.8-1S30.2,17,31.4,17.7z M21.8,31.7c0.6,1,1.4,1.8,2.4,2.4c1,0.6,2.1,0.9,3.3,0.9
		c1.2,0,2.3-0.3,3.3-0.9c1-0.6,1.8-1.4,2.4-2.4c0.6-1,0.9-2.1,0.9-3.3v-4c0-1.2-0.3-2.3-0.9-3.3s-1.4-1.8-2.4-2.4
		c-1-0.6-2.1-0.9-3.3-0.9c-1.2,0-2.3,0.3-3.3,0.9S22.4,20,21.8,21c-0.6,1-0.9,2.1-0.9,3.3v4C20.9,29.5,21.2,30.7,21.8,31.7z"/>
	<path class="st0" d="M41.9,35.6V17.1h1v17.5h12.9v1H41.9z"/>
	<path class="st0" d="M91.1,18.1c1.1,0.7,2.1,1.6,2.7,2.7c0.7,1.1,1,2.4,1,3.7v3.5c0,1.3-0.3,2.6-1,3.7c-0.7,1.1-1.6,2-2.7,2.7
		c-1.2,0.7-2.4,1-3.7,1h-6.8V17.1h6.8C88.7,17.1,90,17.4,91.1,18.1z M93.9,24.5c0-1.2-0.3-2.3-0.9-3.3s-1.4-1.8-2.4-2.4
		c-1-0.6-2.1-0.8-3.3-0.8h-5.8v16.5h5.8c1.2,0,2.3-0.3,3.3-0.9c1-0.6,1.8-1.4,2.4-2.4c0.6-1,0.9-2,0.9-3.3L93.9,24.5L93.9,24.5z"/>
	<path class="st0" d="M101.2,17.1h13v1h-12v7.5h10.5v1h-10.5v8h12v1h-13L101.2,17.1L101.2,17.1z"/>
	<path class="st0" d="M140.4,35.6V17.1h1l12.9,12.5V17.1h1v18.4h-1V31l-12.9-12.6v17.2H140.4z"/>
	<path class="st0" d="M171.4,17.7c1.2,0.7,2.1,1.6,2.8,2.8c0.7,1.2,1,2.5,1,3.8v4c0,1.4-0.3,2.7-1,3.8c-0.7,1.2-1.6,2.1-2.8,2.8
		c-1.2,0.7-2.5,1-3.8,1c-1.4,0-2.7-0.3-3.8-1c-1.2-0.7-2.1-1.6-2.8-2.8c-0.7-1.2-1-2.5-1-3.8v-4c0-1.4,0.3-2.7,1-3.8
		c0.7-1.2,1.6-2.1,2.8-2.8s2.5-1,3.8-1C169,16.7,170.2,17,171.4,17.7z M161.8,31.7c0.6,1,1.4,1.8,2.4,2.4c1,0.6,2.1,0.9,3.3,0.9
		c1.2,0,2.3-0.3,3.3-0.9c1-0.6,1.8-1.4,2.4-2.4c0.6-1,0.9-2.1,0.9-3.3v-4c0-1.2-0.3-2.3-0.9-3.3c-0.6-1-1.4-1.8-2.4-2.4
		c-1-0.6-2.1-0.9-3.3-0.9c-1.2,0-2.3,0.3-3.3,0.9s-1.8,1.4-2.4,2.4s-0.9,2.1-0.9,3.3v4C160.9,29.5,161.3,30.7,161.8,31.7z"/>
	<path class="st0" d="M182.1,31.7c0.6,1,1.4,1.8,2.4,2.4c1,0.6,2.1,0.9,3.3,0.9c1.2,0,2.3-0.2,3.3-0.7c1-0.5,1.7-1.1,2.3-2
		c0.6-0.8,0.8-1.8,0.8-2.9h1c0,1.2-0.3,2.3-1,3.3c-0.6,1-1.5,1.8-2.7,2.4c-1.1,0.6-2.4,0.8-3.7,0.8c-1.3,0-2.6-0.3-3.7-1
		c-1.2-0.7-2-1.6-2.7-2.7c-0.7-1.1-1-2.4-1-3.7v-4.3c0-1.3,0.3-2.6,1-3.7c0.6-1.1,1.6-2,2.7-2.7c1.1-0.7,2.4-1,3.7-1
		c1.4,0,2.6,0.3,3.7,0.8s2,1.4,2.7,2.4s1,2.1,1,3.3h-1c0-1-0.3-2-0.9-2.9c-0.6-0.8-1.3-1.5-2.3-2c-1-0.5-2.1-0.7-3.3-0.7
		c-1.2,0-2.3,0.3-3.3,0.9c-1,0.6-1.8,1.4-2.4,2.4c-0.6,1-0.9,2-0.9,3.3v4.3C181.2,29.7,181.6,30.7,182.1,31.7z"/>
	<path class="st0" d="M200.5,35.6V17.1h1v8.7h12.3v-8.7h1v18.4h-1v-8.8h-12.3v8.8H200.5z"/>
	<path class="st0" d="M221.2,17.1h13v1h-12v7.5h10.5v1h-10.5v8h12v1h-13V17.1z"/>
</g>
<circle class="st1" cx="248.9" cy="33.7" r="3.7"/>
</svg>
