<?xml version="1.0" encoding="utf-8"?>
<!-- Generator: Adobe Illustrator 22.0.0, SVG Export Plug-In . SVG Version: 6.00 Build 0)  -->
<svg version="1.1" id="Layer_1" xmlns="http://www.w3.org/2000/svg" xmlns:xlink="http://www.w3.org/1999/xlink" x="0px" y="0px"
	 viewBox="0 0 371.7 371.7" style="enable-background:new 0 0 371.7 371.7;" xml:space="preserve">
<style type="text/css">
	.st0{fill:#FFFFFF;stroke:#FFFFFF;stroke-miterlimit:10;}
	.st1{fill:#D9AE30;stroke:#D9AE30;stroke-miterlimit:10;}
	.st2{fill:none;stroke:#FFFFFF;stroke-width:2;stroke-miterlimit:10;}
	.st3{fill:none;stroke:#D9AE2E;stroke-width:2;stroke-miterlimit:10;}
</style>
<g>
	<path class="st0" d="M85.9,119.8c-1.9-0.7-3.4-1.7-4.5-3c-1.1-1.3-1.6-2.9-1.6-4.8c0-2,0.5-3.9,1.6-5.4c1.1-1.6,2.6-2.8,4.6-3.6
		c2-0.8,4.2-1.3,6.8-1.3c2.5,0,4.7,0.5,6.8,1.6c2.1,1,3.7,2.5,4.9,4.4c1.2,1.9,1.8,4,1.8,6.4h-2c0-2.1-0.5-3.9-1.5-5.5
		c-1-1.6-2.4-2.8-4.2-3.7c-1.8-0.9-3.7-1.3-5.9-1.3c-1.9,0-3.7,0.3-5.4,0.9c-1.7,0.6-3,1.5-4.1,2.8c-1,1.2-1.6,2.8-1.6,4.7
		c0,1.7,0.5,3,1.5,4.1c1,1,2.3,1.8,3.9,2.3c1.6,0.5,3.8,1.1,6.7,1.7c2.9,0.6,5.1,1.2,6.8,1.7c1.6,0.5,3,1.5,4.1,2.7
		c1.1,1.3,1.7,3.1,1.7,5.4c0,2.3-0.6,4.2-1.8,5.8c-1.2,1.6-2.8,2.7-4.8,3.5c-2,0.8-4.2,1.2-6.6,1.2c-2.9,0-5.5-0.5-7.7-1.6
		c-2.2-1.1-3.9-2.6-5.1-4.6c-1.2-2-1.8-4.3-1.8-6.9h2c0,2.3,0.5,4.2,1.5,5.9c1,1.7,2.5,3,4.4,3.9c1.9,0.9,4.2,1.4,6.8,1.4
		c3.3,0,5.9-0.8,8.1-2.3c2.1-1.6,3.2-3.7,3.2-6.4c0-1.8-0.5-3.3-1.4-4.2c-0.9-1-2.1-1.7-3.5-2.1c-1.4-0.4-3.5-0.9-6.3-1.5
		C90.2,121.2,87.7,120.5,85.9,119.8z"/>
	<path class="st0" d="M140,103.8c2.3,1.4,4.2,3.2,5.5,5.5c1.4,2.3,2,4.9,2,7.6v8.1c0,2.8-0.7,5.3-2,7.6c-1.4,2.3-3.2,4.2-5.5,5.5
		s-4.9,2-7.6,2c-2.8,0-5.3-0.7-7.6-2s-4.2-3.2-5.5-5.5c-1.4-2.3-2-4.9-2-7.6v-8.1c0-2.8,0.7-5.3,2-7.6c1.4-2.3,3.2-4.2,5.5-5.5
		c2.3-1.4,4.9-2,7.6-2C135.1,101.7,137.7,102.4,140,103.8z M120.9,131.7c1.2,2,2.8,3.6,4.8,4.8c2,1.2,4.2,1.8,6.7,1.8
		c2.4,0,4.6-0.6,6.7-1.8c2-1.2,3.6-2.8,4.8-4.8c1.2-2,1.8-4.2,1.8-6.7v-8.1c0-2.4-0.6-4.6-1.8-6.7c-1.2-2-2.8-3.6-4.8-4.8
		c-2-1.2-4.2-1.8-6.7-1.8c-2.4,0-4.6,0.6-6.7,1.8c-2,1.2-3.6,2.8-4.8,4.8c-1.2,2-1.8,4.2-1.8,6.7v8.1
		C119.1,127.4,119.7,129.6,120.9,131.7z"/>
	<path class="st0" d="M160.9,139.4v-36.9h2v34.9h25.7v2H160.9z"/>
	<path class="st0" d="M99.5,168.1c2.3,1.3,4.1,3.2,5.4,5.4c1.3,2.3,2,4.8,2,7.4v7.1c0,2.7-0.7,5.2-2,7.4c-1.3,2.3-3.2,4.1-5.4,5.4
		s-4.8,2-7.4,2H78.4v-36.9H92C94.7,166.1,97.2,166.8,99.5,168.1z M105,181c0-2.3-0.6-4.5-1.7-6.5c-1.2-2-2.7-3.6-4.7-4.7
		c-2-1.2-4.2-1.7-6.5-1.7H80.4v33H92c2.3,0,4.5-0.6,6.5-1.7c2-1.2,3.6-2.7,4.7-4.7c1.2-2,1.7-4.1,1.7-6.5V181z"/>
	<path class="st0" d="M119.6,166.1h26v2h-24V183h20.9v2h-20.9v16.1h24v2h-26V166.1z"/>
	<path class="st0" d="M78,266.6v-36.9h2.1l25.8,25v-25h2v36.9h-2v-9.1l-25.9-25.2v34.3H78z"/>
	<path class="st1" d="M140,231c2.3,1.4,4.2,3.2,5.5,5.5c1.4,2.3,2,4.9,2,7.6v8.1c0,2.8-0.7,5.3-2,7.6c-1.4,2.3-3.2,4.2-5.5,5.5
		c-2.3,1.4-4.9,2-7.6,2c-2.8,0-5.3-0.7-7.6-2c-2.3-1.4-4.2-3.2-5.5-5.5c-1.4-2.3-2-4.9-2-7.6v-8.1c0-2.8,0.7-5.3,2-7.6
		c1.4-2.3,3.2-4.2,5.5-5.5s4.9-2,7.6-2C135.1,228.9,137.7,229.6,140,231z M120.9,258.9c1.2,2,2.8,3.6,4.8,4.8c2,1.2,4.2,1.8,6.7,1.8
		c2.4,0,4.6-0.6,6.7-1.8c2-1.2,3.6-2.8,4.8-4.8c1.2-2,1.8-4.2,1.8-6.7v-8.1c0-2.4-0.6-4.6-1.8-6.7c-1.2-2-2.8-3.6-4.8-4.8
		c-2-1.2-4.2-1.8-6.7-1.8c-2.4,0-4.6,0.6-6.7,1.8c-2,1.2-3.6,2.8-4.8,4.8c-1.2,2-1.8,4.2-1.8,6.7v8.1
		C119.1,254.6,119.7,256.8,120.9,258.9z"/>
	<path class="st0" d="M161.4,259c1.2,2,2.8,3.6,4.8,4.7c2,1.2,4.2,1.7,6.5,1.7c2.4,0,4.6-0.5,6.5-1.4c1.9-1,3.5-2.3,4.6-4
		s1.7-3.6,1.7-5.7h1.9c0,2.4-0.6,4.7-1.9,6.7c-1.3,2-3.1,3.6-5.3,4.7c-2.2,1.1-4.7,1.7-7.5,1.7c-2.7,0-5.2-0.7-7.5-2
		c-2.3-1.3-4.1-3.2-5.5-5.4c-1.3-2.3-2-4.8-2-7.4v-8.7c0-2.7,0.7-5.2,2-7.4c1.3-2.3,3.1-4.1,5.4-5.4c2.3-1.3,4.8-2,7.4-2
		c2.7,0,5.2,0.6,7.4,1.7c2.2,1.1,4,2.7,5.3,4.7c1.3,2,2,4.2,2,6.7h-1.9c0-2.1-0.6-4-1.7-5.7c-1.1-1.7-2.7-3-4.6-4
		c-1.9-1-4.1-1.4-6.5-1.4c-2.3,0-4.5,0.6-6.5,1.7c-2,1.2-3.6,2.7-4.7,4.7s-1.7,4.1-1.7,6.5v8.7C159.7,254.9,160.3,257,161.4,259z"/>
	<path class="st0" d="M198.1,266.6v-36.9h2v17.4h24.5v-17.4h2v36.9h-2v-17.5H200v17.5H198.1z"/>
	<path class="st0" d="M239.5,229.7h26v2h-24v14.9h20.9v2h-20.9v16.1h24v2h-26V229.7z"/>
</g>
<ellipse transform="matrix(0.7071 -0.7071 0.7071 0.7071 -76.9796 185.8446)" class="st2" cx="185.8" cy="185.8" rx="184.8" ry="184.8"/>
<circle class="st3" cx="185.8" cy="185.8" r="179.2"/>
</svg>
