<?xml version="1.0" encoding="utf-8"?>
<!-- Generator: Adobe Illustrator 22.0.0, SVG Export Plug-In . SVG Version: 6.00 Build 0)  -->
<svg version="1.1" id="Layer_1" xmlns="http://www.w3.org/2000/svg" xmlns:xlink="http://www.w3.org/1999/xlink" x="0px" y="0px"
	 viewBox="0 0 1600 1200" style="enable-background:new 0 0 1600 1200;" xml:space="preserve">
<style type="text/css">
	.st0{fill:#FFFFFF;stroke:#FFFFFF;stroke-miterlimit:10;}
	.st1{fill:#D9AE30;stroke:#D9AE30;stroke-miterlimit:10;}
	.st2{fill:none;stroke:#FFFFFF;stroke-width:3;stroke-miterlimit:10;}
	.st3{fill:none;stroke:#D9AE2E;stroke-width:3;stroke-miterlimit:10;}
	.st4{fill:#D0BFDD;stroke:#D0BFDD;stroke-miterlimit:10;}
	.st5{fill:#FCF8F0;}
</style>
<title>pointing</title>
<g>
	<path class="st0" d="M265.7,243.2c-2.8-1.1-5-2.5-6.6-4.4s-2.4-4.3-2.4-7.2c0-3,0.8-5.7,2.4-8s3.9-4.1,6.8-5.3
		c2.9-1.3,6.3-1.9,10.1-1.9c3.7,0,7,0.8,10.1,2.3s5.5,3.7,7.3,6.5s2.7,6,2.7,9.5h-2.9c0-3.1-0.8-5.8-2.3-8.2s-3.6-4.2-6.2-5.5
		s-5.5-1.9-8.7-1.9c-2.8,0-5.5,0.4-7.9,1.3c-2.5,0.9-4.5,2.3-6,4.1s-2.3,4.1-2.3,6.9c0,2.5,0.7,4.5,2.2,6s3.4,2.6,5.7,3.4
		s5.7,1.6,9.9,2.5c4.3,0.9,7.6,1.7,10,2.6c2.4,0.8,4.4,2.2,6.1,4.1c1.7,1.9,2.5,4.5,2.5,7.9s-0.9,6.3-2.7,8.6
		c-1.8,2.3-4.2,4.1-7.2,5.2c-3,1.2-6.2,1.7-9.8,1.7c-4.4,0-8.2-0.8-11.5-2.4s-5.8-3.9-7.6-6.9c-1.8-3-2.6-6.4-2.6-10.2h2.9
		c0,3.4,0.7,6.3,2.2,8.8s3.7,4.5,6.5,5.9s6.2,2.1,10.1,2.1c4.8,0,8.8-1.2,12-3.5s4.8-5.5,4.8-9.4c0-2.7-0.7-4.8-2-6.3
		c-1.4-1.5-3.1-2.5-5.2-3.2s-5.2-1.4-9.3-2.2C272.1,245.3,268.5,244.3,265.7,243.2z"/>
	<path class="st0" d="M346.1,219.5c3.5,2,6.2,4.8,8.2,8.2c2,3.5,3,7.2,3,11.3v12c0,4.1-1,7.9-3,11.3c-2,3.5-4.8,6.2-8.2,8.2
		c-3.5,2-7.2,3-11.3,3c-4.1,0-7.9-1-11.3-3c-3.5-2-6.2-4.8-8.2-8.2c-2-3.5-3-7.2-3-11.3v-12c0-4.1,1-7.9,3-11.3
		c2-3.5,4.8-6.2,8.2-8.2c3.5-2,7.2-3,11.3-3C338.8,216.4,342.6,217.4,346.1,219.5z M317.7,260.8c1.8,3,4.1,5.4,7.2,7.2
		c3,1.8,6.3,2.6,9.9,2.6s6.9-0.9,9.9-2.6c3-1.8,5.4-4.1,7.2-7.2c1.8-3,2.6-6.3,2.6-9.9v-12c0-3.6-0.9-6.9-2.6-9.9
		c-1.8-3-4.1-5.4-7.2-7.2c-3-1.8-6.3-2.6-9.9-2.6s-6.9,0.9-9.9,2.6c-3,1.8-5.4,4.1-7.2,7.2c-1.8,3-2.6,6.3-2.6,9.9v12
		C315.1,254.5,315.9,257.8,317.7,260.8z"/>
	<path class="st0" d="M377.1,272.4v-54.8h2.9v51.8h38.2v2.9h-41.1V272.4z"/>
	<path class="st0" d="M285.9,315c3.4,2,6.1,4.7,8.1,8.1s3,7.1,3,11.1v10.5c0,4-1,7.7-3,11.1s-4.7,6.1-8.1,8.1s-7.1,3-11.1,3h-20.2
		V312h20.2C278.9,312,282.5,313,285.9,315z M294.1,334.1c0-3.5-0.9-6.7-2.6-9.6s-4.1-5.3-7-7c-3-1.7-6.2-2.6-9.6-2.6h-17.2v48.9
		h17.2c3.5,0,6.7-0.9,9.6-2.6c3-1.7,5.3-4.1,7-7s2.6-6.1,2.6-9.6V334.1z"/>
	<path class="st0" d="M315.9,312h38.5v2.9h-35.6v22.2h31v2.9h-31v23.8h35.6v2.9h-38.5V312z"/>
	<path class="st0" d="M254,461.2v-54.8h3.1l38.2,37.1v-37.1h2.9v54.8h-2.9v-13.5l-38.4-37.4v51H254V461.2z"/>
	<path class="st1" d="M346.1,408.3c3.5,2,6.2,4.8,8.2,8.2c2,3.5,3,7.2,3,11.3v12c0,4.1-1,7.9-3,11.3c-2,3.5-4.8,6.2-8.2,8.2
		c-3.5,2-7.2,3-11.3,3c-4.1,0-7.9-1-11.3-3c-3.5-2-6.2-4.8-8.2-8.2c-2-3.5-3-7.2-3-11.3v-12c0-4.1,1-7.9,3-11.3
		c2-3.5,4.8-6.2,8.2-8.2c3.5-2,7.2-3,11.3-3C338.8,405.2,342.6,406.3,346.1,408.3z M317.7,449.7c1.8,3,4.1,5.4,7.2,7.2
		c3,1.8,6.3,2.6,9.9,2.6s6.9-0.9,9.9-2.6c3-1.8,5.4-4.1,7.2-7.2c1.8-3,2.6-6.3,2.6-9.9v-12c0-3.6-0.9-6.9-2.6-9.9
		c-1.8-3-4.1-5.4-7.2-7.2c-3-1.8-6.3-2.6-9.9-2.6s-6.9,0.9-9.9,2.6c-3,1.8-5.4,4.1-7.2,7.2c-1.8,3-2.6,6.3-2.6,9.9v12
		C315.1,443.3,315.9,446.6,317.7,449.7z"/>
	<path class="st0" d="M377.9,449.9c1.8,2.9,4.1,5.3,7.1,7s6.2,2.6,9.6,2.6c3.6,0,6.8-0.7,9.7-2.1c2.9-1.4,5.2-3.4,6.8-5.9
		c1.7-2.5,2.5-5.3,2.6-8.5h2.8c0,3.6-1,6.9-2.9,9.9s-4.5,5.3-7.9,7c-3.3,1.7-7,2.6-11.1,2.6c-4,0-7.7-1-11.1-3s-6.1-4.7-8.1-8.1
		s-3-7.1-3-11.1v-12.9c0-4,1-7.7,3-11.1s4.6-6.1,8-8.1s7.1-3,11.1-3s7.7,0.9,11.1,2.6c3.3,1.7,6,4,7.9,7s2.9,6.3,2.9,9.9h-2.8
		c-0.1-3.1-0.9-6-2.6-8.5s-3.9-4.5-6.8-5.9s-6.1-2.1-9.6-2.1s-6.7,0.9-9.6,2.6s-5.3,4.1-7,7s-2.6,6.1-2.6,9.6v12.9
		C375.3,443.7,376.1,446.9,377.9,449.9z"/>
	<path class="st0" d="M432.3,461.2v-54.8h2.9v25.9h36.3v-25.9h2.9v54.8h-2.9v-26h-36.3v26H432.3z"/>
	<path class="st0" d="M493.8,406.4h38.5v2.9h-35.6v22.2h31v2.9h-31v23.8h35.6v2.9h-38.5L493.8,406.4L493.8,406.4z"/>
</g>
<rect x="206.7" y="158.6" class="st2" width="1095.3" height="548.2"/>
<circle class="st3" cx="1301.9" cy="347.4" r="124.7"/>
<g>
	<g>
		<path class="st4" d="M401.6,503.8v1.7h-9.8v29.4h9.8v1.7h-21.3v-1.7h9.8v-29.4h-9.8v-1.7L401.6,503.8L401.6,503.8z"/>
		<path class="st4" d="M438.2,508.8c1.1,1.7,1.6,3.7,1.6,5.8c0,2.5-0.7,4.6-2.2,6.6c-1.5,1.9-3.4,3.2-5.7,3.8l8.4,11.7h-2.1
			l-8.1-11.3h-1.5h-11.8v11.3h-1.7v-32.9h12.5c1.4,0,2.6,0.1,3.6,0.3c1,0.2,1.9,0.4,2.7,0.8C435.6,505.7,437.1,507,438.2,508.8z
			 M429,523.6c1.6,0,3.1-0.4,4.5-1.2s2.5-1.9,3.3-3.3c0.8-1.4,1.2-2.9,1.2-4.5c0-1.8-0.5-3.5-1.4-5c-1-1.5-2.3-2.6-4-3.3
			c-1.2-0.5-3-0.8-5.2-0.8h-10.8v18.1H429z"/>
		<path class="st4" d="M473.7,508.8c1.1,1.7,1.6,3.7,1.6,5.8c0,2.5-0.7,4.6-2.2,6.6c-1.5,1.9-3.4,3.2-5.7,3.8l8.4,11.7h-2.1
			l-8.1-11.3h-1.5h-11.8v11.3h-1.7v-32.9H463c1.4,0,2.6,0.1,3.6,0.3c1,0.2,1.9,0.4,2.7,0.8C471.2,505.7,472.7,507,473.7,508.8z
			 M464.6,523.6c1.6,0,3.1-0.4,4.5-1.2s2.5-1.9,3.3-3.3c0.8-1.4,1.2-2.9,1.2-4.5c0-1.8-0.5-3.5-1.4-5c-1-1.5-2.3-2.6-4-3.3
			c-1.2-0.5-3-0.8-5.2-0.8h-10.8v18.1H464.6z"/>
		<path class="st4" d="M484.5,503.8h1.7v20.3c0,2.1,0.5,4,1.6,5.8c1,1.8,2.4,3.2,4.2,4.2c1.8,1,3.7,1.6,5.8,1.6s4-0.5,5.8-1.6
			c1.8-1,3.2-2.4,4.2-4.2s1.6-3.7,1.6-5.8v-20.3h1.7v20.3c0,2.4-0.6,4.6-1.8,6.6c-1.2,2-2.8,3.6-4.8,4.8s-4.2,1.8-6.6,1.8
			s-4.6-0.6-6.6-1.8s-3.6-2.8-4.8-4.8c-1.2-2-1.8-4.2-1.8-6.6v-20.3H484.5z"/>
		<path class="st4" d="M524.2,536.6h-1.7v-32.9h13.2c2.2,0,4.2,0.5,6.1,1.4c1.9,0.9,3.4,2.3,4.5,4s1.7,3.7,1.7,6
			c0,2.2-0.6,4.2-1.7,6c-1.1,1.8-2.6,3.2-4.6,4.2c-1.7,0.8-3.7,1.3-6,1.3h-11.5V536.6z M524.2,524.9h11.5c2,0,3.7-0.3,5-0.9
			c1.7-0.8,3-2,4-3.5c1-1.6,1.5-3.3,1.5-5.2s-0.5-3.6-1.5-5.2s-2.4-2.8-4.1-3.5c-1.3-0.6-2.9-0.9-4.9-0.9h-11.5V524.9z"/>
		<path class="st4" d="M559.2,529.8c1.1,1.8,2.5,3.2,4.2,4.2c1.8,1,3.7,1.6,5.8,1.6s4.1-0.4,5.8-1.3c1.7-0.8,3.1-2,4.1-3.5
			s1.5-3.2,1.5-5.1h1.7c0,2.2-0.6,4.1-1.7,5.9c-1.1,1.8-2.7,3.2-4.7,4.2s-4.2,1.5-6.7,1.5c-2.4,0-4.6-0.6-6.7-1.8
			c-2-1.2-3.7-2.8-4.9-4.8s-1.8-4.2-1.8-6.6v-7.7c0-2.4,0.6-4.6,1.8-6.6s2.8-3.6,4.8-4.8c2-1.2,4.2-1.8,6.6-1.8
			c2.4,0,4.6,0.5,6.6,1.5s3.6,2.4,4.7,4.2c1.2,1.8,1.7,3.8,1.7,5.9h-1.7c0-1.9-0.6-3.6-1.6-5.1s-2.4-2.7-4.1-3.5
			c-1.7-0.8-3.6-1.3-5.8-1.3c-2.1,0-4,0.5-5.8,1.6c-1.8,1-3.2,2.4-4.2,4.2c-1,1.8-1.6,3.7-1.6,5.8v7.7
			C557.6,526.1,558.2,528.1,559.2,529.8z"/>
		<path class="st4" d="M615.2,503.8v1.7h-9.8v29.4h9.8v1.7h-21.3v-1.7h9.8v-29.4h-9.8v-1.7L615.2,503.8L615.2,503.8z"/>
		<path class="st4" d="M646.9,504.9c2.1,1.2,3.7,2.9,4.9,4.9c1.2,2.1,1.8,4.3,1.8,6.8v7.2c0,2.5-0.6,4.7-1.8,6.8s-2.9,3.7-4.9,4.9
			s-4.3,1.8-6.8,1.8s-4.7-0.6-6.8-1.8s-3.7-2.9-4.9-4.9c-1.2-2.1-1.8-4.3-1.8-6.8v-7.2c0-2.5,0.6-4.7,1.8-6.8
			c1.2-2.1,2.9-3.7,4.9-4.9c2.1-1.2,4.3-1.8,6.8-1.8S644.8,503.7,646.9,504.9z M629.9,529.7c1.1,1.8,2.5,3.2,4.3,4.3
			s3.8,1.6,5.9,1.6c2.1,0,4.1-0.5,5.9-1.6c1.8-1.1,3.2-2.5,4.3-4.3s1.6-3.8,1.6-5.9v-7.2c0-2.1-0.5-4.1-1.6-5.9
			c-1.1-1.8-2.5-3.2-4.3-4.3c-1.8-1.1-3.8-1.6-5.9-1.6c-2.1,0-4.1,0.5-5.9,1.6c-1.8,1.1-3.2,2.5-4.3,4.3c-1.1,1.8-1.6,3.8-1.6,5.9
			v7.2C628.3,525.9,628.8,527.9,629.9,529.7z"/>
		<path class="st4" d="M662.9,536.6v-32.9h1.8l22.9,22.3v-22.3h1.7v32.9h-1.7v-8.1l-23-22.5v30.6L662.9,536.6L662.9,536.6z"/>
		<path class="st4" d="M700,503.8h23.1v1.7h-21.4v13.3h18.6v1.7h-18.6v14.3h21.4v1.7H700V503.8z"/>
		<path class="st4" d="M741.1,519.1c-1.7-0.6-3-1.5-4-2.6s-1.4-2.6-1.4-4.3c0-1.8,0.5-3.4,1.4-4.8s2.3-2.5,4.1-3.2s3.8-1.1,6.1-1.1
			c2.2,0,4.2,0.5,6.1,1.4s3.3,2.2,4.4,3.9c1.1,1.7,1.6,3.6,1.6,5.7h-1.7c0-1.9-0.5-3.5-1.4-4.9s-2.2-2.5-3.7-3.3
			c-1.6-0.8-3.3-1.2-5.2-1.2c-1.7,0-3.3,0.3-4.8,0.8s-2.7,1.4-3.6,2.5c-0.9,1.1-1.4,2.5-1.4,4.2c0,1.5,0.4,2.7,1.3,3.6
			c0.9,0.9,2,1.6,3.4,2.1s3.4,1,5.9,1.5c2.6,0.5,4.6,1,6,1.5s2.6,1.3,3.6,2.4s1.5,2.7,1.5,4.8c0,2-0.5,3.8-1.6,5.2s-2.5,2.4-4.3,3.1
			c-1.8,0.7-3.7,1-5.9,1c-2.6,0-4.9-0.5-6.9-1.5s-3.5-2.4-4.6-4.1c-1.1-1.8-1.6-3.8-1.6-6.1h1.7c0,2,0.4,3.8,1.3,5.3
			c0.9,1.5,2.2,2.7,3.9,3.5s3.7,1.3,6,1.3c2.9,0,5.3-0.7,7.2-2.1c1.9-1.4,2.9-3.3,2.9-5.7c0-1.6-0.4-2.9-1.2-3.8
			c-0.8-0.9-1.8-1.5-3.1-1.9c-1.2-0.4-3.1-0.8-5.6-1.3C744.9,520.4,742.7,519.8,741.1,519.1z"/>
		<path class="st4" d="M717.6,562.2c2,1.2,3.6,2.8,4.8,4.8s1.8,4.2,1.8,6.6v6.3c0,2.4-0.6,4.6-1.8,6.6s-2.8,3.6-4.8,4.8
			s-4.2,1.8-6.6,1.8h-12.1v-32.9H711C713.4,560.4,715.6,561,717.6,562.2z M722.5,573.7c0-2.1-0.5-4-1.6-5.8c-1-1.8-2.4-3.2-4.2-4.2
			s-3.7-1.6-5.8-1.6h-10.3v29.4h10.3c2.1,0,4-0.5,5.8-1.6c1.8-1,3.2-2.4,4.2-4.2s1.6-3.7,1.6-5.8V573.7z"/>
		<path class="st4" d="M735.6,560.4h23.1v1.7h-21.4v13.3h18.6v1.7h-18.6v14.3h21.4v1.7h-23.1V560.4z"/>
		<path class="st4" d="M591.9,617l12.6,30.5L617,617h1.8l-13.5,32.9h-1.8L590,617H591.9z"/>
		<path class="st4" d="M650.8,617v1.7H641v29.4h9.8v1.7h-21.3v-1.7h9.8v-29.4h-9.8V617H650.8z"/>
		<path class="st4" d="M682,618.8c2,1.2,3.6,2.8,4.8,4.8s1.8,4.2,1.8,6.6v6.3c0,2.4-0.6,4.6-1.8,6.6s-2.8,3.6-4.8,4.8
			s-4.2,1.8-6.6,1.8h-12.1V617h12.1C677.8,617,680,617.6,682,618.8z M686.9,630.3c0-2.1-0.5-4-1.6-5.8c-1-1.8-2.4-3.2-4.2-4.2
			s-3.7-1.6-5.8-1.6H665v29.4h10.3c2.1,0,4-0.5,5.8-1.6c1.8-1,3.2-2.4,4.2-4.2s1.6-3.7,1.6-5.8L686.9,630.3L686.9,630.3z"/>
		<path class="st4" d="M700,617h23.1v1.7h-21.4V632h18.6v1.7h-18.6V648h21.4v1.7H700V617z"/>
		<path class="st4" d="M753.7,618.2c2.1,1.2,3.7,2.9,4.9,4.9c1.2,2.1,1.8,4.3,1.8,6.8v7.2c0,2.5-0.6,4.7-1.8,6.8s-2.9,3.7-4.9,4.9
			s-4.3,1.8-6.8,1.8s-4.7-0.6-6.8-1.8s-3.7-2.9-4.9-4.9c-1.2-2.1-1.8-4.3-1.8-6.8v-7.2c0-2.5,0.6-4.7,1.8-6.8s2.9-3.7,4.9-4.9
			c2.1-1.2,4.3-1.8,6.8-1.8C749.3,616.3,751.6,616.9,753.7,618.2z M736.7,643c1.1,1.8,2.5,3.2,4.3,4.3s3.8,1.6,5.9,1.6
			c2.1,0,4.1-0.5,5.9-1.6c1.8-1.1,3.2-2.5,4.3-4.3s1.6-3.8,1.6-5.9v-7.2c0-2.1-0.5-4.1-1.6-5.9s-2.5-3.2-4.3-4.3s-3.8-1.6-5.9-1.6
			c-2.1,0-4.1,0.5-5.9,1.6c-1.8,1.1-3.2,2.5-4.3,4.3s-1.6,3.8-1.6,5.9v7.2C735.1,639.2,735.6,641.2,736.7,643z"/>
	</g>
</g>
<g>
	<g>
		<g>
			<path class="st5" d="M1014.3,1056.7c-6.7,0-12.3-2.1-16.9-6.4c-4.6-4.3-6.9-9.7-6.9-16.2c0-6.4,2.3-11.8,7-16.1
				c4.6-4.4,10.4-6.5,17.4-6.5c8.2,0,14.7,3.1,19.4,9.2l-9.4,6.8c-2.9-3.4-6.2-5-10.2-5c-3.2,0-5.9,1.1-7.9,3.4
				c-2.1,2.2-3.1,5-3.1,8.3s1,6.1,3.1,8.3c2.1,2.2,4.7,3.3,7.9,3.3c2.2,0,4.2-0.4,5.7-1.3c1.6-0.9,3.1-2.2,4.7-4l9.6,6.5
				c-2.4,3.1-5.2,5.5-8.5,7.3C1023.1,1055.8,1019,1056.7,1014.3,1056.7z"/>
			<path class="st5" d="M1061,1056.6c-6.8,0-12-1.7-15.8-5c-3.7-3.3-5.6-8.3-5.6-14.9v-24.5h13v24.2c0,3.1,0.8,5.4,2.3,6.9
				c1.5,1.6,3.6,2.3,6.2,2.3s4.7-0.7,6.2-2.2s2.3-3.7,2.3-6.7v-24.5h13v24.1c0,6.8-1.9,11.9-5.7,15.2
				C1073.1,1054.9,1067.8,1056.6,1061,1056.6z"/>
			<path class="st5" d="M1090.2,1055.8v-43.6h12.8v33h22.4v10.6H1090.2z"/>
			<path class="st5" d="M1135.6,1055.8v-33h-13.9v-10.6h40.5v10.6h-13.9v33H1135.6z"/>
			<path class="st5" d="M1188.6,1056.6c-6.8,0-12-1.7-15.8-5c-3.7-3.3-5.6-8.3-5.6-14.9v-24.5h13v24.2c0,3.1,0.8,5.4,2.3,6.9
				c1.5,1.6,3.6,2.3,6.2,2.3s4.7-0.7,6.2-2.2s2.3-3.7,2.3-6.7v-24.5h13v24.1c0,6.8-1.9,11.9-5.7,15.2
				C1200.8,1054.9,1195.5,1056.6,1188.6,1056.6z"/>
			<path class="st5" d="M1217.9,1055.8v-43.6h21.8c6.7,0,11.7,1.6,15.1,4.7c2.7,2.6,4.1,6,4.1,10.3c0,6.4-3.2,10.8-9.5,13.4l11,15.2
				h-14.8l-9.3-13.2h-5.6v13.2H1217.9z M1230.7,1033.1h8.4c2.2,0,3.8-0.5,5-1.4s1.8-2.2,1.8-3.9c0-1.7-0.6-3-1.8-3.9
				c-1.2-0.9-2.9-1.3-5.1-1.3h-8.4L1230.7,1033.1L1230.7,1033.1z"/>
			<path class="st5" d="M1260.9,1055.8l19.7-43.9h12.3l19.7,43.9h-13.7l-3.4-7.8h-17.8l-3.3,7.8H1260.9z M1281.4,1038.6h10.4
				l-5.1-12.4L1281.4,1038.6z"/>
		</g>
		<g>
			<path class="st5" d="M935.7,1041.4c1.2-2,2.1-4,2.8-6.2c0.4-0.7,0.6-1.5,0.7-2.3c0.7-1.5,1-3.1,1.3-4.7c0.1-0.7,0.4-1.3,0.3-2
				c0.4-1.3,0.4-2.7,0.5-4.1c0-0.4,0-0.9,0-1.3c0.1-1.3,0.1-2.6-0.2-3.8c0-0.4-0.1-0.7-0.1-1.1c-0.1-1.1-0.2-2.2-0.7-3.3
				c0-0.4,0-0.7-0.3-1c-0.2-1-0.5-2-1-2.9c-0.1-0.5-0.2-0.9-0.6-1.3c-0.2-0.8-0.7-1.5-1.2-2.2c-0.2-0.4-0.4-0.8-0.7-1.1
				c-0.3-0.7-0.8-1.4-1.4-2c-0.2-0.3-0.5-0.6-0.7-0.9c-0.5-0.7-1-1.4-1.8-1.9c-0.2-0.3-0.5-0.6-0.8-0.8c-0.6-0.7-1.3-1.3-2.2-1.8
				c-0.2-0.3-0.5-0.5-0.8-0.6c-0.7-0.6-1.4-1.1-2.2-1.4c-0.4-0.2-0.8-0.5-1.1-0.7c-0.7-0.4-1.4-0.9-2.2-1.1c-0.5-0.4-1-0.6-1.7-0.7
				c-0.7-0.4-1.5-0.7-2.4-0.8c-0.3-0.3-0.6-0.2-1-0.3c-1.2-0.5-2.4-0.7-3.7-0.9c-0.4,0-0.7-0.1-1.1-0.1c-1.3-0.4-2.5-0.3-3.8-0.2
				c-0.5,0-0.9,0-1.4,0c-1.6,0-3.1,0.2-4.6,0.5c-0.6,0.1-1.3,0.2-1.9,0.3c-2,0.4-3.9,0.8-5.7,1.7c-0.2,0-0.4,0-0.5,0.2l0,0
				c-1.1,0.3-2.1,0.8-3,1.4c-2.5,1.3-4.6,3.1-6.6,4.9c-3.7,3.4-7.2,7.1-11.3,10.1c-1.7,1.3-3.5,2.6-5.5,3.5c-0.5,0-0.9,0-1.4,0
				c-0.8-0.3-1.6-0.7-2.2-1.3c-0.2-0.5-0.5-1-0.7-1.4c-0.1-1.6,0.7-2.8,2.2-3.7c3.4-2,6.3-4.6,9.1-7.3c3.7-3.5,7.3-7,11.5-9.9
				c0.1-0.1,0.2-0.1,0.3-0.2l0,0c0.2,0,0.4-0.1,0.5-0.3l0,0c1-0.5,2-1,3-1.6c2.1-0.8,4.2-1.5,6.3-2.3c0.6-0.1,1.3-0.3,1.9-0.4
				c1.6-0.3,3.3-0.6,4.9-0.8c0.5,0,1.1-0.1,1.6-0.1c1.4-0.1,2.7-0.2,4.1-0.2c0.5,0,0.9,0,1.4,0c1.3,0.1,2.5,0.2,3.8,0.4
				c0.3,0.2,0.7,0.2,1.1,0.2c1.1,0.2,2.2,0.5,3.3,0.7c0.3,0.2,0.7,0.3,1.1,0.3c1,0.3,2,0.7,3,1c0.3,0.3,0.7,0.4,1.1,0.5
				c0.8,0.4,1.6,0.7,2.4,1.1c0.4,0.2,0.7,0.4,1.1,0.6c0.7,0.4,1.4,0.8,2.2,1.2c0.4,0.2,0.8,0.5,1.2,0.7c0.7,0.5,1.4,1,2.2,1.5
				c0.2,0.2,0.5,0.4,0.7,0.6c0.7,0.6,1.3,1.2,2,1.8c0.4,0.3,0.7,0.7,1.1,1c0.5,0.6,1.1,1.2,1.6,1.8c0.3,0.3,0.6,0.7,0.8,1
				c0.5,0.6,0.9,1.2,1.4,1.8c0.3,0.4,0.5,0.7,0.8,1.1c0.5,0.8,0.9,1.5,1.4,2.3c0.1,0.3,0.3,0.5,0.4,0.8c0.4,0.9,0.9,1.8,1.3,2.8
				c0.1,0.3,0.2,0.5,0.3,0.8c0.3,1,0.7,2,1,3c0.1,0.3,0.2,0.7,0.3,1c0.2,1,0.5,2.1,0.7,3.1c0,0.3,0.1,0.7,0.1,1
				c0.1,1.2,0.2,2.4,0.3,3.6c0,0.4,0,0.9,0.1,1.3c0,1.4-0.1,2.7-0.1,4.1c-0.1,0.4-0.1,0.9-0.2,1.3c-0.2,1.5-0.5,3.1-0.7,4.6
				c-0.3,0.5-0.2,1-0.4,1.5c-0.6,1.8-1.1,3.6-1.7,5.4c-0.2,0.7-0.5,1.4-0.7,2c-1.1,2.2-2.1,4.5-3.2,6.7c-0.6,0.9-1.1,1.9-1.7,2.8
				c-0.1,0.1-0.1,0.2-0.2,0.3c-0.2,0.1-0.3,0.3-0.3,0.5c-3.2,4.5-6.8,8.6-11.2,12.1c-1.9,1.5-3.9,2.7-5.9,4.1
				c-0.2,0-0.4,0.1-0.5,0.3c-0.1,0.1-0.2,0.1-0.3,0.2c-0.9,0.4-1.8,0.9-2.7,1.3c-1.4,0.6-2.7,0.6-4.1-0.1c-0.2-0.2-0.4-0.3-0.5-0.5
				c-0.5-0.8-0.9-1.6-0.9-2.5c0.2-0.6,0.4-1.2,0.7-1.8c0.3-0.2,0.5-0.5,0.8-0.7c0.7-0.3,1.5-0.5,2.2-1c0.2-0.1,0.4-0.2,0.6-0.3l0,0
				c7.1-3.8,12.5-9.1,16.6-15.6l0,0c0.2-0.1,0.3-0.3,0.3-0.5l0,0c0.1-0.1,0.1-0.2,0.2-0.3c0.5-0.6,0.9-1.3,1.1-2l0,0
				C935.7,1041.9,935.7,1041.6,935.7,1041.4z"/>
			<path class="st5" d="M917.7,1054c-0.2,0.1-0.4,0.3-0.6,0.4c-1.8,1.3-3.6,2.5-5.4,3.8c-3.3,1.9-6.5,3.9-9.8,5.8
				c-0.2,0-0.4,0.1-0.5,0.3l0,0c-1,0.5-2,1-3,1.5c-1.2,0.5-2.4,1-3.5,1.6c-0.8,0.4-1.6,0.5-2.5,0.5c-0.3-0.1-0.7-0.2-1-0.4
				c-0.8-0.5-1.4-1.1-1.8-1.9c-0.1-0.3-0.1-0.7-0.2-1c0.2-1.7,1.3-2.8,3-3.4c0.5-0.2,0.9-0.5,1.4-0.7c0.2,0,0.4-0.1,0.5-0.3l0,0
				c1.1-0.3,2-0.9,3-1.5c3.4-1.7,6.7-3.5,9.8-5.7c0.1-0.1,0.2-0.2,0.3-0.2l0,0c0.2-0.1,0.3-0.2,0.5-0.3l0,0c1.6-0.9,3-1.9,4.4-3
				c0.2-0.1,0.3-0.2,0.5-0.4c0.4-0.1,0.6-0.4,0.9-0.7c3.3-2.4,6.3-5.1,8.7-8.3c0.1-0.1,0.1-0.2,0.2-0.3c0.1-0.2,0.2-0.3,0.3-0.5l0,0
				c0.1-0.1,0.2-0.2,0.3-0.3c0.8-0.9,1.4-1.8,1.9-2.8l0,0c0.2-0.1,0.3-0.3,0.3-0.5c1.3-2,2.2-4.1,2.7-6.4c0.3-0.5,0.3-1,0.4-1.5
				c0.4-1.5,0.7-3,0.6-4.6c0-0.4,0-0.9,0-1.3c0.1-1.2,0.1-2.4-0.2-3.6c0-0.3-0.1-0.7-0.1-1c-0.2-1.3-0.4-2.5-1-3.7
				c0-0.3,0-0.6-0.3-0.8c-0.2-0.8-0.6-1.6-1.1-2.3c-0.1-0.4-0.3-0.7-0.6-1c-0.4-0.9-1.1-1.7-1.9-2.4c-0.1-0.3-0.3-0.5-0.6-0.6
				c-0.6-0.6-1.2-1.2-2.1-1.6c-0.3-0.4-0.7-0.6-1.2-0.7c-0.8-0.5-1.7-0.9-2.7-1.1c-0.4-0.3-0.9-0.4-1.4-0.4
				c-1.1-0.3-2.1-0.4-3.3-0.4c-0.5-0.2-0.9-0.2-1.4-0.1c-1.6,0-3.1,0.1-4.6,0.5c-0.6,0.1-1.1,0.1-1.6,0.4c-2.6,0.5-4.9,1.4-7.1,2.8
				c-0.1,0.1-0.2,0.1-0.3,0.2l0,0c-0.2,0.1-0.3,0.2-0.5,0.3l0,0c-2.1,1.1-3.9,2.8-5.6,4.4c-3.5,3.3-6.9,6.6-10.7,9.6
				c-3.1,2.2-6.4,4.1-9.8,5.7c-0.2,0.1-0.4,0.2-0.6,0.3l0,0c-0.7,0.2-1.5,0.5-2.1,0.8c-1.3,0.4-2.6,0.3-3.8-0.4
				c-0.2-0.2-0.4-0.3-0.5-0.5c-0.5-0.8-0.9-1.7-0.8-2.7c0.4-1.7,1.9-2.4,3.4-3c3.5-1.3,6.7-3.1,9.6-5.3c0.1-0.1,0.2-0.2,0.3-0.3l0,0
				c0.1-0.1,0.2-0.1,0.3-0.2l0,0c0.2-0.1,0.3-0.2,0.5-0.4c0.2-0.1,0.4-0.3,0.6-0.4c1-0.5,1.7-1.3,2.5-2c4.2-3.8,8-7.9,12.8-11.1
				c2.4-1.5,5-2.5,7.6-3.7c0.7,0.1,1.3-0.2,1.9-0.5c1.7-0.3,3.4-0.7,5.2-1c0.5,0,1.1-0.1,1.6-0.1c1.4,0,2.9,0,4.3,0
				c0.3,0,0.6,0,0.8,0c1.2,0.2,2.3,0.4,3.5,0.6c0.5,0.1,0.9,0.3,1.4,0.4c0.8,0.3,1.6,0.6,2.4,0.8c0.4,0.2,0.8,0.4,1.1,0.5
				c0.7,0.4,1.4,0.8,2.2,1.2c0.4,0.3,0.7,0.5,1.1,0.8c0.7,0.6,1.4,1.2,2.2,1.8c0.2,0.2,0.3,0.3,0.5,0.5c0.6,0.7,1.1,1.3,1.7,2
				c0.3,0.4,0.5,0.7,0.8,1.1c0.5,0.9,1,1.7,1.5,2.6c0.1,0.2,0.2,0.4,0.3,0.5c0.4,0.9,0.8,1.9,1.2,2.8c0,0.5,0.2,1,0.5,1.4
				c0.2,0.9,0.4,1.8,0.6,2.7c0,0.4-0.1,0.7,0.2,1c0.1,1.2,0.2,2.4,0.3,3.6c0,0.4,0,0.9,0,1.3c-0.1,1.3-0.1,2.6-0.2,3.8
				c0,0.5-0.1,1-0.1,1.5c-0.4,1.6-0.7,3.2-1.1,4.9c-0.3,0.5-0.5,1.2-0.6,1.8c-1,2.3-2,4.5-3.2,6.7c-0.9,1.3-1.8,2.5-2.7,3.8
				c-0.1,0.1-0.1,0.2-0.2,0.3c-0.1,0.1-0.3,0.3-0.4,0.4l0.1,0.1v-0.1c-0.1,0.1-0.2,0.2-0.2,0.3l0,0c-0.1,0.1-0.2,0.2-0.3,0.3
				c-2.6,2.8-5.4,5.4-8.4,7.9c-0.1,0.1-0.2,0.2-0.3,0.3l0,0c-0.1,0.1-0.2,0.2-0.3,0.2h0.1h-0.1C918,1053.7,917.9,1053.9,917.7,1054z
				"/>
			<path class="st5" d="M958.7,1005.3c0.2,0.9,0.4,1.9,0.6,2.8c0.1,0.4,0.2,0.9,0.3,1.3c0.2,1.2,0.3,2.4,0.5,3.5
				c0,0.4-0.1,0.7,0.2,1.1c0,1.3,0.1,2.5,0.1,3.8c0,0.3,0,0.7,0,1c-0.1,1.4-0.1,2.7-0.2,4.1c-0.2,0.5-0.2,1-0.1,1.5
				c-0.2,1.5-0.5,2.9-0.7,4.4c-0.1,0.5-0.2,1-0.3,1.5c-0.4,1.7-0.9,3.4-1.3,5.2c-0.2,0.6-0.4,1.2-0.5,1.8c-0.7,2-1.5,3.9-2.2,5.9
				c-0.2,0.6-0.5,1.2-0.7,1.8l0,0c-0.2,0.1-0.3,0.3-0.3,0.5c-0.9,1.8-1.8,3.5-2.7,5.3c-1.2,2.3-2.5,2.8-5.1,2.1
				c-0.3-0.2-0.6-0.4-0.9-0.6c-0.5-0.7-0.9-1.5-0.9-2.3c0.1-0.4,0.1-0.8,0.2-1.2l0,0c0.1-0.2,0.2-0.4,0.3-0.5
				c1.3-2.2,2.4-4.4,3.2-6.7c0.4-0.6,0.7-1.3,0.8-2l0,0c0.2-0.1,0.3-0.3,0.2-0.5c0.8-1.7,1.3-3.4,1.8-5.2c0.2-0.7,0.4-1.3,0.5-2
				c0.5-1.6,0.8-3.3,1.1-4.9c0.1-0.5,0.1-1,0.2-1.5c0.3-1.4,0.5-2.9,0.4-4.4c0-0.4,0-0.9,0-1.3c0.2-1.3,0.1-2.6,0-3.8
				c0-0.3,0-0.7,0-1c0-1.2-0.1-2.4-0.5-3.6c0-0.4,0.1-0.7-0.2-1c0-1.1-0.4-2-0.7-3.1c-0.1-0.4-0.2-0.7-0.4-1.1c-0.2-1-0.5-1.9-1-2.8
				c-0.2-0.3-0.3-0.7-0.5-1c-0.2-0.9-0.7-1.8-1.3-2.6c-0.2-0.3-0.4-0.7-0.6-1c-0.3-0.8-0.8-1.6-1.4-2.2c-0.2-0.4-0.4-0.8-0.8-1.1
				c-0.4-0.8-1-1.5-1.6-2c-0.1-0.2-0.3-0.3-0.4-0.5c-0.5-0.8-1.2-1.5-2-2c-0.3-0.3-0.6-0.5-0.8-0.8c-0.6-0.7-1.3-1.4-2.2-1.8
				c-0.3-0.2-0.6-0.4-0.8-0.7c-0.6-0.5-1.2-1-1.9-1.3c-0.3-0.3-0.7-0.6-1.1-0.7c-0.8-0.6-1.7-1.2-2.7-1.5c-0.3-0.2-0.5-0.3-0.8-0.5
				c-0.8-0.4-1.5-0.9-2.4-1.1c-0.3-0.3-0.7-0.4-1.1-0.5c-0.9-0.5-1.9-0.9-3-1.1c-0.3-0.1-0.6-0.2-0.9-0.3c-1.1-0.3-2.1-0.7-3.2-0.8
				c-0.3-0.2-0.7-0.3-1.1-0.3c-1.2-0.3-2.3-0.5-3.5-0.5c-0.4,0-0.9-0.1-1.3-0.1c-1.4-0.3-2.7-0.2-4.1-0.1c-0.5,0-0.9,0-1.4,0
				c-1.6,0-3.1,0.2-4.6,0.5c-0.5,0.1-1.1,0.2-1.6,0.3c-1.9,0.3-3.7,0.7-5.5,1.4c-0.8,0.1-1.6,0.4-2.4,0.7c-2.3,0.8-4.5,1.6-6.6,2.7
				c-0.2,0-0.4,0.1-0.5,0.3c-0.1,0-0.2,0.1-0.3,0.1c-1,0.5-2,1-3,1.5c-2.1,1-4,2.2-5.9,3.6c-0.9,0.7-1.9,1.2-3.1,1.4
				c-0.4-0.1-0.7-0.1-1.1-0.2c-0.8-0.4-1.4-0.9-1.9-1.6c-0.1-0.3-0.3-0.7-0.4-1c-0.1-1.5,0.6-2.7,1.9-3.6c2.1-1.3,4.1-2.7,6.2-4
				c0.2-0.1,0.4-0.2,0.5-0.3l0,0c1-0.4,2-0.9,3-1.5c2.4-1,4.7-2,7.1-3.1c0.7-0.2,1.4-0.5,2.2-0.7c1.9-0.5,3.8-1.1,5.7-1.6
				c0.6-0.1,1.3-0.2,1.9-0.4c1.6-0.3,3.3-0.5,4.9-0.8c0.5-0.1,0.9-0.1,1.4-0.2c1.4-0.1,2.9-0.1,4.3-0.2c0.4,0,0.9,0,1.3,0
				c1.3,0.3,2.5,0.2,3.8,0.2c0.4,0.2,0.9,0.2,1.4,0.2c1.1,0.2,2.2,0.3,3.3,0.5c0.4,0.1,0.7,0.2,1.1,0.2c1.1,0.3,2.2,0.5,3.2,0.8
				c0.3,0.2,0.7,0.3,1.1,0.3c1,0.4,2,0.7,3,1.1c0.3,0.1,0.6,0.2,0.9,0.4c0.8,0.4,1.6,0.7,2.4,1.1c0.5,0.2,0.9,0.5,1.4,0.7
				c0.7,0.4,1.4,0.7,2.1,1.1c0.4,0.2,0.8,0.5,1.1,0.7c0.7,0.4,1.4,0.9,2.2,1.3c0.3,0.2,0.6,0.4,0.9,0.6c0.8,0.6,1.6,1.2,2.3,1.7
				c0.2,0.3,0.4,0.4,0.7,0.6c0.7,0.6,1.3,1.2,2,1.8c0.4,0.3,0.7,0.7,1.1,1c0.6,0.6,1.2,1.3,1.9,1.9c0.1,0.3,0.3,0.5,0.6,0.7
				c0.6,0.7,1.2,1.5,1.8,2.2c0.2,0.2,0.4,0.5,0.5,0.7c0.5,0.7,1,1.5,1.5,2.2c0.2,0.4,0.5,0.7,0.7,1.1c0.4,0.7,0.8,1.3,1.1,2
				c0.2,0.3,0.4,0.7,0.5,1c0.4,0.9,0.8,1.7,1.1,2.6c0.2,0.3,0.3,0.7,0.5,1c0.3,0.9,0.6,1.7,0.9,2.6
				C958.4,1004.4,958.5,1004.9,958.7,1005.3z"/>
			<path class="st5" d="M892.7,1055.6c-2.4,1-4.7,2-7.1,3c-0.8,0.1-1.5,0.4-2.2,0.8c-1.2,0.3-2.3,0.7-3.5,0.3
				c-0.4-0.2-0.8-0.5-1.1-0.7c-0.7-0.8-1-1.6-1.1-2.6c0.1-0.4,0.3-0.8,0.4-1.2c0-0.1,0.1-0.2,0.1-0.3c0.1-0.2,0.2-0.3,0.4-0.5l0,0
				c0.1-0.1,0.2-0.2,0.3-0.3l0,0c0.1-0.1,0.2-0.2,0.3-0.2l0,0c0.2-0.1,0.3-0.2,0.5-0.3l0,0c0.7-0.2,1.5-0.4,2.1-0.7
				c2.3-0.7,4.5-1.6,6.5-2.6c0.2,0,0.4,0,0.6-0.3l0,0c1-0.3,1.9-0.7,2.7-1.2c3.5-1.6,6.8-3.4,9.8-5.6c0.1-0.1,0.2-0.2,0.3-0.2l0,0
				c0.2-0.1,0.3-0.2,0.5-0.3l0,0c0.6-0.4,1.1-0.7,1.7-1.1c3.7-2.8,7.3-5.8,9.8-9.7c0.1-0.1,0.1-0.2,0.2-0.3c0.2-0.1,0.3-0.3,0.3-0.5
				c1.5-2,2.5-4.2,3-6.7c0.2-0.5,0.3-1,0.3-1.5c0.3-1.2,0.2-2.4-0.2-3.6c0-0.4-0.2-0.7-0.4-1.1c-0.3-0.9-0.9-1.7-1.7-2.3
				c-0.2-0.3-0.4-0.5-0.7-0.5c-1.1-0.8-2.3-1.1-3.7-0.8c-0.8,0-1.5,0.1-2.2,0.5c-1.1,0.2-2.1,0.8-3,1.4c-2.8,1.7-5.3,3.8-7.5,6
				c-3.8,3.8-7.7,7.5-12.3,10.5c-0.2,0.1-0.3,0.2-0.5,0.3c-0.1,0.1-0.2,0.1-0.3,0.2c-1.1,0.6-2.1,1.2-3.2,1.7c-2.3,1-4.5,2-6.8,2.9
				c-0.2,0-0.4,0-0.6,0.2l0,0c-0.6,0-1.1,0.2-1.6,0.5c-1.6,0.2-3.2,1-4.9,0.7c-0.2-0.1-0.5-0.2-0.7-0.2c-0.8-0.6-1.5-1.3-1.8-2.2
				c0-0.3-0.1-0.7-0.1-1c0.3-1.7,1.4-2.6,3.1-3.1c0.7,0,1.3-0.2,1.9-0.5c2.4-0.5,4.7-1.4,6.8-2.6c0.2,0,0.4-0.1,0.5-0.3
				c0.1,0,0.2-0.1,0.3-0.1c0.9-0.3,1.7-0.7,2.4-1.3c0.2-0.1,0.4-0.2,0.6-0.3l0,0c3.7-2,6.8-4.6,9.7-7.6c4-4.1,8.3-7.9,13.4-10.7
				c0.2,0,0.4-0.1,0.5-0.3l0,0c0.8-0.3,1.6-0.6,2.4-0.9c1.5-0.4,3.1-0.6,4.6-0.8c0.5,0,0.9,0.1,1.4,0.1c1.1,0.3,2.1,0.5,3.2,0.8
				c0.3,0.1,0.6,0.2,0.9,0.4c0.8,0.5,1.6,1,2.4,1.6c0.3,0.2,0.5,0.5,0.8,0.7c0.5,0.6,1.1,1.2,1.6,1.8c0.2,0.3,0.4,0.5,0.5,0.8
				c0.4,0.9,0.9,1.7,1.3,2.6c0.1,0.3,0.1,0.7,0.3,1c0.2,1.1,0.3,2.2,0.5,3.3c0,0.4,0,0.8,0,1.3c-0.2,1.4-0.5,2.8-0.7,4.1
				c-0.2,0.8-0.4,1.5-0.7,2.3c-1.2,2.6-2.5,5.1-4.2,7.5c-0.6,0.7-1.2,1.5-1.8,2.2c-3.3,4-7.3,7.2-11.4,10.2
				c-3.2,2.1-6.6,4.1-10.1,5.9c-0.2,0.1-0.4,0.2-0.6,0.3l0,0C894.5,1054.8,893.6,1055.2,892.7,1055.6z"/>
			<path class="st5" d="M953.1,975c0.6,0.6,1.3,1.2,1.9,1.8c0.3,0.3,0.5,0.5,0.8,0.8c0.6,0.6,1.1,1.2,1.7,1.8c0.3,0.4,0.7,0.7,1,1.1
				c0.5,0.6,0.9,1.2,1.4,1.7c0.3,0.3,0.5,0.7,0.8,1c0.5,0.7,0.9,1.4,1.4,2.1c0.2,0.4,0.5,0.7,0.7,1.1c0.4,0.8,0.9,1.5,1.3,2.3
				c0.2,0.4,0.4,0.7,0.6,1.1c0.4,0.8,0.8,1.6,1.1,2.5c0.1,0.5,0.2,1,0.5,1.4c0.2,0.7,0.4,1.5,0.6,2.2c0,0.5,0.1,1,0.1,1.5
				c-0.4,1.4-1.4,2.3-2.9,2.7c-0.5,0-1.1-0.1-1.6-0.1c-0.9-0.3-1.5-0.8-2.1-1.5c-0.1-0.2-0.2-0.4-0.3-0.6c-0.1-1.1-0.5-2.1-0.9-3
				c-0.1-0.3-0.2-0.5-0.4-0.8c-0.3-0.9-0.7-1.7-1.2-2.5c-0.2-0.5-0.4-0.9-0.8-1.3c-0.3-0.7-0.8-1.4-1.3-2c-0.1-0.3-0.3-0.6-0.5-0.8
				c-0.5-0.9-1.1-1.7-1.9-2.4c-0.1-0.3-0.3-0.5-0.6-0.7c-0.5-0.7-1-1.3-1.6-1.8c-0.3-0.4-0.6-0.8-1.1-1.1c-0.5-0.6-1-1.1-1.7-1.5
				c-0.3-0.4-0.6-0.6-1-0.9c-0.6-0.6-1.2-1.1-1.9-1.5c-0.3-0.4-0.7-0.6-1.1-0.8c-0.7-0.6-1.4-1.1-2.2-1.5c-0.3-0.2-0.7-0.4-1-0.6
				c-0.7-0.5-1.4-0.9-2.2-1.2c-0.4-0.2-0.8-0.4-1.2-0.7c-0.7-0.5-1.5-0.9-2.3-1.1c-0.4-0.3-0.9-0.5-1.5-0.7c-0.9-0.3-1.8-0.7-2.7-1
				c-0.3-0.2-0.7-0.3-1.1-0.3c-1-0.5-2.1-0.8-3.3-0.9c-0.4-0.1-0.7-0.2-1.1-0.3c-1.1-0.3-2.1-0.5-3.3-0.5c-0.5-0.1-0.9-0.2-1.4-0.2
				c-1.2-0.1-2.3-0.4-3.5-0.3c-0.4,0-0.9,0-1.3,0c-1.4-0.2-2.7-0.3-4.1-0.1c-0.5-0.1-0.9-0.1-1.4,0c-1.4,0.1-2.9,0.2-4.3,0.2
				c-0.5,0-0.9,0.1-1.4,0.1c-1.6,0-3.1,0.2-4.6,0.5c-0.7,0.1-1.4,0.2-2.1,0.3c-1.6,0.3-3.2,0.5-4.7,1c-0.5,0.1-1.1,0.2-1.6,0.2
				c-1.1-0.1-1.9-0.8-2.6-1.4c-0.1-0.2-0.2-0.4-0.4-0.6c-0.6-2.6,0.4-4,3.1-4.7c0.9-0.2,1.7-0.4,2.6-0.7c0.6-0.1,1.1,0,1.6-0.3
				c1.6-0.3,3.3-0.5,4.9-0.8c0.5,0,1.1-0.1,1.6-0.1c1.4-0.1,2.9-0.3,4.3-0.4c0.5,0,0.9,0,1.4,0c1.4,0,2.9,0.1,4.3-0.1
				c0.5,0.2,0.9,0.1,1.4,0.1c1.3,0,2.5,0.1,3.8,0.1c0.5,0.1,0.9,0.1,1.4,0.2c1.2,0.1,2.4,0.2,3.5,0.4c0.5,0.1,0.9,0.2,1.4,0.2
				c1.1,0.2,2.2,0.4,3.3,0.6c0.3,0.2,0.7,0.3,1.1,0.3c1.1,0.3,2.2,0.6,3.2,0.9c0.2,0.1,0.5,0.1,0.7,0.2c0.9,0.3,1.9,0.7,2.8,1
				c0.5,0.2,1,0.4,1.5,0.7c0.9,0.4,1.8,0.8,2.7,1.2c0.3,0.1,0.6,0.3,0.8,0.4c0.8,0.4,1.6,0.9,2.4,1.3c0.4,0.2,0.8,0.5,1.1,0.7
				c0.8,0.5,1.6,1,2.4,1.4c0.3,0.2,0.5,0.4,0.8,0.5c0.7,0.5,1.4,1,2.2,1.5c0.2,0.2,0.5,0.4,0.7,0.5c0.8,0.6,1.5,1.2,2.3,1.8
				C952.5,974.5,952.8,974.8,953.1,975z"/>
			<path class="st5" d="M920.2,949.6c1.3,0.2,2.5,0.3,3.8,0.5c0.4,0,0.7,0.1,1.1,0.1c1.2,0.2,2.3,0.4,3.5,0.7
				c0.5,0.1,0.9,0.2,1.4,0.3c1,0.2,2,0.4,3,0.6c0.5,0.1,0.9,0.3,1.4,0.4c0.8,0.2,1.5,0.4,2.3,0.6c0.5,0.3,1,0.4,1.5,0.5
				c1.1,0.4,2.2,0.8,3.2,1.2c0.3,0.1,0.6,0.2,0.8,0.3c0.9,0.4,1.8,0.7,2.7,1.1c0.3,0.1,0.6,0.3,0.8,0.4c0.9,0.4,1.8,0.9,2.7,1.3
				c0.1,0.2,0.3,0.3,0.6,0.3c1,0.6,2,1.2,2.9,1.8c0.2,0.1,0.4,0.3,0.6,0.4c0.7,0.5,1.4,1.1,2.1,1.6c0.2,0.2,0.3,0.3,0.5,0.5
				c0.7,1.1,0.9,2.2,0.5,3.4c-0.4,0.8-1.1,1.4-2,1.8c-1,0.3-2,0.2-2.9-0.1c-0.4-0.3-0.8-0.5-1.1-0.8c-0.6-0.6-1.3-1.1-2.1-1.5
				c-0.3-0.4-0.7-0.6-1.2-0.7c-0.7-0.6-1.5-1-2.4-1.4c-0.3-0.1-0.6-0.3-0.9-0.4c-0.7-0.5-1.5-0.9-2.3-1.1c-0.5-0.2-1-0.4-1.5-0.6
				c-0.9-0.4-1.9-0.8-2.9-1c-0.3-0.1-0.6-0.2-0.9-0.3c-1-0.4-2.1-0.7-3.2-0.9c-0.4-0.3-0.9-0.3-1.4-0.4c-1-0.2-2-0.6-3-0.6
				c-0.3-0.3-0.7-0.2-1.1-0.2c-1.1-0.3-2.3-0.6-3.5-0.6c-0.3-0.2-0.7-0.2-1.1-0.2c-1.2-0.3-2.5-0.4-3.8-0.5c-0.4,0-0.7,0-1.1-0.1
				c-1.2-0.3-2.5-0.3-3.8-0.3c-0.4-0.2-0.9-0.2-1.4-0.1c-1.3-0.1-2.5-0.1-3.8-0.1c-0.4-0.1-0.7-0.2-1.1-0.3
				c-0.7-0.4-1.3-0.9-1.8-1.6c-0.1-0.4-0.2-0.8-0.4-1.2c0.4-2.4,1.1-3,3.8-3.6c0.5,0,0.9,0,1.4,0c1.4,0.1,2.7,0.1,4.1,0.2
				c0.4,0,0.7,0,1.1,0c1.3,0.2,2.5,0.3,3.8,0.3C919.4,949.6,919.8,949.6,920.2,949.6z"/>
			<path class="st5" d="M869.2,1047.8c0.4-1.6,1.5-2.5,3.1-2.9c0.6-0.2,1.2-0.3,1.9-0.5c2.2-0.6,4.5-1.3,6.5-2.4
				c0.2,0,0.5,0,0.6-0.3l0,0c0.7-0.2,1.3-0.4,1.9-0.8c0.2-0.1,0.4-0.2,0.5-0.3l0,0c9-4.3,16.2-10.5,21.3-18.7
				c1.4-2.2,2.1-2.6,4.8-2.3c0.3,0.2,0.6,0.3,0.8,0.5c0.7,0.7,1.1,1.4,1.4,2.3c0,0.4-0.1,0.8-0.1,1.2c-2.1,4-4.9,7.5-8,10.7
				c-4.4,4.6-9.6,8.2-15.3,11.4c-0.1,0.1-0.2,0.1-0.3,0.2l0,0c-0.2,0.1-0.4,0.2-0.5,0.3l0,0c-0.9,0.4-1.8,0.8-2.6,1.2
				c-2.2,0.9-4.4,1.7-6.6,2.6c-0.8,0.2-1.6,0.5-2.4,0.7c-1.4,0.3-2.8,1-4.4,0.7c-0.4-0.2-0.7-0.3-1.1-0.5c-0.7-0.6-1.2-1.3-1.4-2.1
				C869.2,1048.5,869.2,1048.2,869.2,1047.8z"/>
		</g>
		<g>
			<path class="st5" d="M993.2,991.9v-35h15.8c4.4,0,7.6,1,9.7,3.1c1.6,1.6,2.4,3.5,2.4,5.7c0,3.8-2,6.5-5.9,8.1
				c5.3,1.5,8,4.4,8,8.6c0,3-1.2,5.3-3.7,7c-2.4,1.7-5.7,2.6-9.8,2.6L993.2,991.9L993.2,991.9z M997.3,972.5h11
				c2.6,0,4.7-0.6,6.2-1.7c1.6-1.1,2.3-2.7,2.3-4.7c0-1.8-0.7-3.2-2.1-4.2c-1.4-1-3.5-1.5-6.1-1.5h-11.3L997.3,972.5L997.3,972.5z
				 M997.3,988.4h12.5c2.8,0,5.1-0.6,6.7-1.7c1.6-1.1,2.4-2.7,2.4-4.7c0-1.9-0.8-3.4-2.5-4.5c-1.7-1-4.1-1.6-7.4-1.6h-11.7V988.4z"
				/>
			<path class="st5" d="M1028.3,991.9l16.9-35.3h3.9l16.9,35.3h-4.5l-4.4-9.3H1037l-4.4,9.3H1028.3z M1038.7,979.1h16.9l-8.4-17.9
				L1038.7,979.1z"/>
			<path class="st5" d="M1073.5,991.9v-35h16c4.6,0,8.1,1.2,10.6,3.5c1.9,1.8,2.9,4.1,2.9,7c0,2.8-0.9,5.1-2.8,6.8s-4.3,2.9-7.3,3.4
				l11.4,14.3h-5.1l-10.8-13.6h-10.6v13.6H1073.5z M1077.6,974.7h11.4c2.8,0,5.1-0.7,6.9-2s2.7-3.1,2.7-5.4c0-2.2-0.8-3.9-2.5-5.1
				c-1.7-1.2-4-1.8-7-1.8h-11.5V974.7z"/>
			<path class="st5" d="M1112.2,991.9v-35h4.2v35H1112.2z"/>
			<path class="st5" d="M1127.3,991.9v-35h4.2v31.4h20.9v3.7h-25.1V991.9z"/>
			<path class="st5" d="M1188.9,987.2c-3.6,3.6-8.1,5.3-13.6,5.3s-10.1-1.8-13.6-5.3s-5.3-7.8-5.3-12.8s1.8-9.2,5.4-12.8
				s8.1-5.3,13.6-5.3s10.1,1.8,13.6,5.3s5.3,7.8,5.3,12.8S1192.5,983.6,1188.9,987.2z M1164.9,984.7c2.8,2.8,6.3,4.2,10.5,4.2
				s7.7-1.4,10.4-4.2c2.7-2.8,4.1-6.2,4.1-10.3c0-4-1.4-7.5-4.2-10.3c-2.8-2.8-6.3-4.2-10.5-4.2s-7.7,1.4-10.4,4.2
				c-2.7,2.8-4.1,6.2-4.1,10.3C1160.7,978.4,1162.1,981.8,1164.9,984.7z"/>
			<path class="st5" d="M1220.2,992.5c-5.3,0-9.8-1.7-13.3-5.2s-5.3-7.8-5.3-12.9c0-5,1.8-9.3,5.4-12.8s8.1-5.3,13.4-5.3
				c3.1,0,5.8,0.5,8,1.4c2.2,1,4.3,2.4,6.4,4.2l-2.8,2.8c-3.6-3.2-7.5-4.8-11.7-4.8c-4.1,0-7.5,1.4-10.3,4.2
				c-2.7,2.8-4.1,6.2-4.1,10.3s1.4,7.5,4.1,10.3c2.8,2.8,6.2,4.2,10.2,4.2c2.4,0,4.5-0.4,6.4-1.3c1.8-0.8,3.7-2.1,5.6-3.8l2.8,2.8
				c-2.1,2-4.3,3.5-6.6,4.5C1226.1,992,1223.4,992.5,1220.2,992.5z"/>
			<path class="st5" d="M1242.4,991.9v-35h4.2v15.6h21.5v-15.6h4.2v35h-4.2v-15.8h-21.5v15.8H1242.4z"/>
			<path class="st5" d="M1282.7,991.9v-35h26.9v3.6h-22.7v12h20.3v3.6h-20.3v12.3h22.9v3.6L1282.7,991.9L1282.7,991.9z"/>
		</g>
	</g>
	<g>
		<path class="st5" d="M393.1,1006.4c-10.9,2.9-15.8,7.6-21,14.3c0.3-3.7,0.4-7,0.2-9.2c0-0.4-0.1-1.4-0.3-2.5v-0.3
			c9.3-9.2,20.3-11,26.2-10.8c0.9,0,1.8,0.1,2.6,0.2v-9c-15.2-2.9-23.9,7.8-23.9,7.8c-7.3,8.3-14.9,5.7-14.9,5.7s-5.2-1.4-5.8-2.7
			c-0.5-0.5,0.5-1.8,0.5-1.8c16.6-18.5,33.7-18.3,44.1-15.6v-35.6H287.5v54.1c1.4-2.7,3.2-4.5,3.2-4.5c3.3,1.4,7.2,2.1,7.2,2.1
			c-7.2,3.3-9.3,8.3-9,11.3c0.1,1.3-0.7,1.5-1.3,1.3v10.1c1.9-3.3,4.3-6.1,5.8-7.7c1.4,0.7,5.9,2.8,11.5,3.8l-13.2,9.3
			c-2.3,2.7-3.7,4.7-4.1,6.7v9.5c20.7-22.8,47-19.9,48.1-19.8c2.4,2.7,5.7,6.5,9.2,10.8c-28.7-7.6-47.3,6.4-57.2,17.9v8.5h113.4
			v-53.8C398.1,1005.7,395.4,1005.8,393.1,1006.4 M346.5,963.3L346.5,963.3c2.7-3.1,7.9-5.1,13.8-5c8.5,0.2,15.2,4.7,15.2,10.1
			c0,0.7-0.2,1.7-0.3,1.9c-1.7,6-22,28.2-22,28.2c-0.3,0.3-0.5,0.6-0.8,0.8c-1.1-3.1-1.4-10.7,5.8-28.3c0.5-1.1-0.2-1.6-1-0.2
			c-9.6,16.4-9.9,24.2-9.4,27.1C337.6,973.1,346.5,963.3,346.5,963.3 M333.8,958.3c0,0,2,26.7,13.9,44.1c1.1,1.6-1.4,3.6-2.5,1.7
			c-0.9-1.4-12.5-30.6-15.5-44.9C329.1,956.5,333.4,955.2,333.8,958.3 M325,979.1c1.2-1.7,3.8-1.5,3.8-1.5c2.9,0.3,0.9,2.8,0.9,2.8
			c-1.7,2.2-3.4,1.9-4.3,1.1C324.5,980.7,324.8,979.5,325,979.1 M317,968.8c2.1-0.2,3.6,2,3.6,2c1.7,2.4-1.5,2.5-1.5,2.5
			c-2.8,0.1-3.6-1.4-3.7-2.6C315.4,969.4,316.5,968.9,317,968.8 M292,994.5c0,0,26.5-21.7,47,2.7c-3.9-1.8-11.3-3.9-24.8-4.2
			c-1.6,0-1.5,0.8-0.3,1c17.5,2.8,24.2,6.7,26.7,9.3C337.7,1005.6,327,1005.9,292,994.5 M294.6,1011.8c15.4-8.1,33.1-6,39.6-4.9
			c1.6,0.3,3.1,0.6,1.1,3.2C325.1,1023.1,294.6,1011.8,294.6,1011.8 M364.8,1047.8c-1.5,6.7-5.1,0.7-5.1,0.7
			c-6.1-10.4-15.5-21.1-20.2-26.4c-0.6-0.7-2.2-2.2-2.5-2.5c-1-1.1-1.7-2.4-1.7-3.8c0-3.9,4.7-7.1,10.4-7.1c0.8,0,1.5,0.1,2.2,0.2
			c2.8,2.4,7.1,8.8,11.1,25.8c0.3,1.2,1.1,1.2,0.9-0.4c-1.6-16.2-4.9-23.3-7.2-26.3c0.6-0.5,1.3-1,2-1.5c5-3,10.6-2.8,12.7,0.5
			c0.8,1.3,1,3.8,1,4.5C369.2,1020.5,364.8,1047.8,364.8,1047.8"/>
		<g>
			<path class="st5" d="M425.1,948.8h17.6c2.4,0,4.6,0.3,6.5,1s3.4,1.6,4.6,2.8c1.8,1.8,2.7,4.1,2.7,6.7v0.1c0,1.5-0.2,2.8-0.6,3.9
				c-0.4,1.1-1,2.1-1.7,2.9c-0.7,0.8-1.5,1.5-2.4,2.1s-1.7,1-2.6,1.4c1.3,0.3,2.5,0.8,3.7,1.3c1.2,0.6,2.2,1.2,3,2.1
				c0.9,0.8,1.6,1.8,2.1,2.9c0.5,1.1,0.8,2.4,0.8,3.9v0.1c0,1.8-0.4,3.4-1.1,4.9c-0.7,1.4-1.8,2.7-3.1,3.7c-1.3,1-2.9,1.8-4.8,2.3
				c-1.9,0.6-4,0.8-6.3,0.8H425L425.1,948.8L425.1,948.8z M442.4,968.6c1.6,0,3.1-0.2,4.4-0.6c1.3-0.4,2.5-1,3.5-1.7
				s1.7-1.7,2.3-2.8c0.6-1.1,0.8-2.4,0.8-3.8v-0.1c0-2.4-0.9-4.3-2.8-5.8c-1.8-1.5-4.5-2.2-7.9-2.2h-14.4v16.9L442.4,968.6
				L442.4,968.6z M443.8,988.7c3.7,0,6.6-0.8,8.7-2.4c2.2-1.6,3.2-3.7,3.2-6.4v-0.1c0-2.7-1.1-4.7-3.3-6.2c-2.2-1.5-5.4-2.2-9.7-2.2
				h-14.5v17.2h15.6V988.7z"/>
			<path class="st5" d="M484.3,948.5h3.1l19.9,43.1h-3.5l-5.4-12h-25.3l-5.4,12h-3.3L484.3,948.5z M497,976.8L485.8,952l-11.3,24.8
				H497z"/>
			<path class="st5" d="M515.1,948.8h18c2.6,0,5,0.4,7,1.1c2,0.8,3.7,1.8,5,3.1c1,1,1.8,2.2,2.4,3.6c0.6,1.4,0.9,2.8,0.9,4.4v0.1
				c0,1.8-0.3,3.4-0.9,4.8c-0.6,1.4-1.5,2.6-2.6,3.6s-2.4,1.8-4,2.5c-1.5,0.6-3.2,1.1-5,1.3l14.1,18.3h-4l-13.6-17.7h-0.1h-13.9
				v17.7h-3.2v-42.8H515.1z M532.8,971c1.8,0,3.5-0.2,5-0.7c1.5-0.4,2.8-1.1,3.9-1.9c1.1-0.8,2-1.9,2.6-3.1c0.6-1.2,0.9-2.6,0.9-4.1
				v-0.1c0-2.9-1.1-5.2-3.2-6.9c-2.1-1.7-5.2-2.5-9.1-2.5h-14.6V971H532.8z"/>
			<rect x="558.6" y="948.8" class="st5" width="3.2" height="42.8"/>
			<polygon class="st5" points="573.7,948.8 576.9,948.8 576.9,988.7 602,988.7 602,991.6 573.7,991.6 			"/>
			<path class="st5" d="M627.4,992.4c-3.2,0-6.2-0.6-8.8-1.8c-2.7-1.2-4.9-2.8-6.8-4.8c-1.9-2-3.3-4.4-4.3-7s-1.5-5.4-1.5-8.4v-0.1
				c0-2.9,0.5-5.7,1.6-8.4c1-2.7,2.5-5,4.4-7.1c1.9-2,4.1-3.7,6.8-4.9s5.6-1.8,8.8-1.8c3.3,0,6.2,0.6,8.8,1.8s4.9,2.8,6.8,4.8
				c1.9,2,3.3,4.4,4.3,7c1,2.7,1.5,5.4,1.5,8.4v0.1c0,2.9-0.5,5.7-1.6,8.4c-1,2.7-2.5,5-4.4,7.1c-1.9,2-4.1,3.7-6.8,4.9
				C633.7,991.8,630.7,992.4,627.4,992.4 M627.6,989.5c2.7,0,5.1-0.5,7.3-1.5s4.1-2.4,5.8-4.1c1.6-1.7,2.9-3.8,3.8-6.1
				c0.9-2.3,1.3-4.8,1.3-7.5v-0.1c0-2.6-0.5-5.1-1.4-7.5c-0.9-2.3-2.2-4.4-3.8-6.1c-1.6-1.7-3.5-3.1-5.8-4.1c-2.2-1-4.7-1.5-7.3-1.5
				s-5.1,0.5-7.3,1.5s-4.1,2.4-5.7,4.1c-1.6,1.7-2.9,3.8-3.8,6.1c-0.9,2.3-1.3,4.8-1.3,7.5v0.1c0,2.7,0.5,5.2,1.4,7.5
				s2.2,4.4,3.8,6.1c1.6,1.7,3.5,3.1,5.8,4.1C622.5,989,624.9,989.5,627.6,989.5"/>
			<path class="st5" d="M678,992.4c-3.1,0-5.9-0.6-8.5-1.7c-2.6-1.1-4.8-2.7-6.7-4.7s-3.4-4.3-4.5-7s-1.6-5.6-1.6-8.6v-0.1
				c0-3,0.5-5.9,1.6-8.6c1.1-2.7,2.6-5,4.5-7.1c1.9-2,4.2-3.6,6.8-4.8s5.5-1.7,8.6-1.7c1.9,0,3.6,0.2,5.2,0.5c1.5,0.3,3,0.8,4.3,1.4
				c1.3,0.6,2.6,1.3,3.7,2.2c1.2,0.8,2.3,1.8,3.4,2.8l-2.3,2.3c-0.9-0.9-1.9-1.7-2.9-2.5s-2.1-1.4-3.3-2c-1.2-0.5-2.4-1-3.8-1.3
				c-1.4-0.3-2.8-0.5-4.4-0.5c-2.6,0-5,0.5-7.2,1.5s-4.1,2.3-5.7,4.1c-1.6,1.7-2.9,3.8-3.8,6.1c-0.9,2.3-1.4,4.8-1.4,7.5v0.1
				c0,2.7,0.5,5.2,1.4,7.6c0.9,2.3,2.2,4.4,3.8,6.1c1.6,1.7,3.5,3.1,5.7,4.1s4.6,1.5,7.2,1.5c3.1,0,5.8-0.6,8.1-1.7
				c2.3-1.2,4.5-2.8,6.7-4.9l2.1,2.1c-1.1,1.1-2.3,2.1-3.5,3s-2.5,1.7-3.9,2.4s-2.8,1.2-4.4,1.5C681.7,992.2,679.9,992.4,678,992.4"
				/>
			<polygon class="st5" points="702.6,948.7 705.7,948.7 705.7,967.9 733.1,967.9 733.1,948.7 736.3,948.7 736.3,989.9 733.1,989.9 
				733.1,970.6 705.7,970.6 705.7,989.9 702.6,989.9 			"/>
			<polygon class="st5" points="747.8,948.8 778.3,948.8 778.3,951.7 751,951.7 751,968.6 775.5,968.6 775.5,971.5 751,971.5 
				751,988.7 778.6,988.7 778.6,991.6 747.8,991.6 			"/>
			<path class="st5" d="M435.1,1056.5c0,0.7-0.6,1.3-1.3,1.3h-8c-0.7,0-1.3-0.6-1.3-1.3v-38.7c0-0.7,0.6-1.3,1.3-1.3h8.1
				c0.7,0,1.5,0.5,1.8,1.1l10.8,21.5c0.2,0.4,0.7,0.4,0.9,0l10.9-21.5c0.4-0.6,1.1-1.1,1.8-1.1h8.1c0.7,0,1.3,0.6,1.3,1.3v38.7
				c0,0.7-0.6,1.3-1.3,1.3h-8c-0.7,0-1.3-0.6-1.3-1.3v-18.8c0-0.3-0.4-0.4-0.5-0.1l-7.5,15.1c-0.4,0.6-1.1,1.1-1.8,1.1h-4.4
				c-0.7,0-1.5-0.5-1.8-1.1l-7.5-15.1c-0.1-0.3-0.5-0.2-0.5,0.1v18.8H435.1z"/>
			<path class="st5" d="M508,1017.9c0-0.7,0.6-1.3,1.3-1.3h8c0.7,0,1.3,0.6,1.3,1.3v21.9c0,10.6-6.7,18.8-19,18.8
				c-12.4,0-18.9-8.2-18.9-18.8v-21.9c0-0.7,0.6-1.3,1.3-1.3h8c0.7,0,1.3,0.6,1.3,1.3v21.3c0,6,2.9,9.2,8.3,9.2
				c5.5,0,8.4-3.3,8.4-9.2L508,1017.9L508,1017.9z"/>
			<path class="st5" d="M540.1,1056.5c0,0.7-0.6,1.3-1.3,1.3h-8c-0.7,0-1.3-0.6-1.3-1.3v-38.7c0-0.7,0.6-1.3,1.3-1.3h6.4
				c0.8,0,1.6,0.4,2.1,1l16.9,21.2c0.2,0.3,0.6,0.2,0.6-0.2v-20.7c0-0.7,0.6-1.3,1.3-1.3h8c0.7,0,1.3,0.6,1.3,1.3v38.7
				c0,0.7-0.6,1.3-1.3,1.3h-6.4c-0.8,0-1.6-0.4-2.1-1l-16.9-21.1c-0.2-0.3-0.6-0.2-0.6,0.2V1056.5z"/>
			<path class="st5" d="M579,1017.9c0-0.7,0.6-1.3,1.3-1.3h8c0.7,0,1.3,0.6,1.3,1.3v38.7c0,0.7-0.6,1.3-1.3,1.3h-8
				c-0.7,0-1.3-0.6-1.3-1.3V1017.9z"/>
			<path class="st5" d="M630.3,1043.6c0.4-0.7,1.2-0.9,1.8-0.6l7.3,3.2c0.6,0.2,0.8,1.1,0.5,1.6c-3.8,6.4-10.9,10.7-18.9,10.7
				c-11.9,0-21.9-9.6-21.9-21.4s10-21.4,21.9-21.4c8,0,15.1,4.3,18.9,10.6c0.3,0.5,0.1,1.4-0.5,1.6l-7.3,3.2
				c-0.7,0.4-1.4,0.2-1.8-0.5c-2-2.9-5.4-4.8-9.2-4.8c-6.2,0-11.2,5-11.2,11.2s5,11.2,11.2,11.2
				C625,1048.4,628.3,1046.5,630.3,1043.6"/>
			<path class="st5" d="M649.6,1017.9c0-0.7,0.6-1.3,1.3-1.3h8c0.7,0,1.3,0.6,1.3,1.3v38.7c0,0.7-0.6,1.3-1.3,1.3h-8
				c-0.7,0-1.3-0.6-1.3-1.3V1017.9z"/>
			<path class="st5" d="M673,1057.8c-0.7,0-1.3-0.6-1.3-1.3v-38.7c0-0.7,0.6-1.3,1.3-1.3h16.9c10.9,0,16.2,7.5,16.2,15.8
				c0,8.7-5.2,16.1-16.2,16.1h-6.5c-0.6,0-1.1,0.5-1.1,1.1v7c0,0.7-0.6,1.3-1.3,1.3H673z M689.4,1026.2h-6c-0.6,0-1.1,0.5-1.1,1.1
				v10.5c0,0.6,0.5,1.1,1.1,1.1h6c4.4,0,6.1-2.7,6.1-6.4C695.4,1029.2,693.8,1026.2,689.4,1026.2"/>
			<path class="st5" d="M715.4,1017.9c0-0.7,0.6-1.3,1.3-1.3h8c0.7,0,1.3,0.6,1.3,1.3v38.7c0,0.7-0.6,1.3-1.3,1.3h-8
				c-0.7,0-1.3-0.6-1.3-1.3V1017.9z"/>
			<path class="st5" d="M735.7,1037.2c0-11.8,10-21.4,21.9-21.4c12,0,21.9,9.6,21.9,21.4s-9.8,21.4-21.9,21.4
				C745.6,1058.6,735.7,1049,735.7,1037.2 M746.3,1037.2c0,6.2,5,11.2,11.2,11.2c6.3,0,11.2-5,11.2-11.2s-4.9-11.2-11.2-11.2
				C751.3,1026,746.3,1031,746.3,1037.2"/>
		</g>
	</g>
</g>
</svg>
